<?xml version="1.0" standalone="no"?>
<!DOCTYPE svg PUBLIC "-//W3C//DTD SVG 1.1//EN" "http://www.w3.org/Graphics/SVG/1.1/DTD/svg11.dtd" >
<svg xmlns="http://www.w3.org/2000/svg" xmlns:xlink="http://www.w3.org/1999/xlink" version="1.1">
<metadata>
Created by FontForge 20161116 at Mon Jul 12 02:06:17 2010
 By Jimmy Wärting
Copyright Veylon 2010
</metadata>
<defs>
<font id="Final-Fantasy-36-Font" horiz-adv-x="448" >
  <font-face 
    font-family="Final Fantasy 3/6 Font"
    font-weight="400"
    font-stretch="normal"
    units-per-em="1024"
    panose-1="0 0 4 0 0 0 0 0 0 0"
    ascent="819"
    descent="-205"
    x-height="384"
    cap-height="512"
    bbox="-128 -192 704 704"
    underline-thickness="51"
    underline-position="77"
    unicode-range="U+000D-FB02"
  />
<missing-glyph horiz-adv-x="320" 
d="M256 72v82h-82v-82h82zM337 167v82h-163v-82h163zM256 262v82h-82v-82h82zM337 357v81h-81q-34 0 -58 -23q-24 -24 -24 -58h163zM0 0v512h512v-512h-512z" />
    <glyph glyph-name=".notdef" horiz-adv-x="320" 
d="M256 72v82h-82v-82h82zM337 167v82h-163v-82h163zM256 262v82h-82v-82h82zM337 357v81h-81q-34 0 -58 -23q-24 -24 -24 -58h163zM0 0v512h512v-512h-512z" />
    <glyph glyph-name="glyph1" horiz-adv-x="0" 
 />
    <glyph glyph-name="glyph1" horiz-adv-x="0" 
 />
    <glyph glyph-name="uni000D" unicode="&#xd;" horiz-adv-x="0" 
 />
    <glyph glyph-name="space" unicode=" " horiz-adv-x="192" 
 />
    <glyph glyph-name="exclam" unicode="!" horiz-adv-x="192" 
d="M0 -64v128h128v-128h-128zM0 192v320h128v-320h-128z" />
    <glyph glyph-name="quotedbl" unicode="&#x22;" horiz-adv-x="384" 
d="M0 320v192h128v-192h-128zM192 320v192h128v-192h-128z" />
    <glyph glyph-name="numbersign" unicode="#" 
d="M256 192v128h-128v-128h128zM64 0v128h-64v64h64v128h-64v64h64v128h64v-128h128v128h64v-128h64v-64h-64v-128h64v-64h-64v-128h-64v128h-128v-128h-64z" />
    <glyph glyph-name="dollar" unicode="$" horiz-adv-x="576" 
d="M384 64v128h-64v-128h64zM192 320v128h-64v-128h64zM192 -64v64h-128v64h-64v64h128v-64h64v192h-128v64h-64v128h64v64h128v64h128v-64h128v-64h64v-64h-128v64h-64v-192h128v-64h64v-128h-64v-64h-128v-64h-128z" />
    <glyph glyph-name="percent" unicode="%" horiz-adv-x="576" 
d="M128 0v128h64v-128h-64zM384 64v64h64v-64h-64zM320 128v64h64v-64h-64zM448 128v64h64v-64h-64zM192 128v128h64v-128h-64zM384 192v64h64v-64h-64zM64 256v64h64v-64h-64zM0 320v64h64v-64h-64zM128 320v64h64v-64h-64zM256 256v128h64v-128h-64zM64 384v64h64v-64h-64
zM320 384v128h64v-128h-64z" />
    <glyph glyph-name="ampersand" unicode="&#x26;" 
d="M64 0v64h192v-64h-192zM320 0v64h64v-64h-64zM256 64v64h64v-64h-64zM192 128v64h64v-64h-64zM320 128v64h64v-64h-64zM0 64v192h64v-192h-64zM128 192v64h64v-64h-64zM64 256v64h64v-64h-64zM128 320v64h64v-64h-64zM0 320v128h64v-128h-64zM192 384v64h64v-64h-64z
M64 448v64h128v-64h-128z" />
    <glyph glyph-name="quotesingle" unicode="'" horiz-adv-x="192" 
d="M64 320v64h-64v128h128v-192h-64z" />
    <glyph glyph-name="parenleft" unicode="(" horiz-adv-x="256" 
d="M128 0v64h64v-64h-64zM64 64v64h64v-64h-64zM0 128v256h64v-256h-64zM64 384v64h64v-64h-64zM128 448v64h64v-64h-64z" />
    <glyph glyph-name="parenright" unicode=")" horiz-adv-x="256" 
d="M0 0v64h64v-64h-64zM64 64v64h64v-64h-64zM128 128v256h64v-256h-64zM64 384v64h64v-64h-64zM0 448v64h64v-64h-64z" />
    <glyph glyph-name="asterisk" unicode="*" horiz-adv-x="256" 
d="M0 256v64h64v-64h-64zM128 256v64h64v-64h-64zM64 320v64h-64v64h64v64h64v-64h64v-64h-64v-64h-64z" />
    <glyph glyph-name="plus" unicode="+" horiz-adv-x="512" 
d="M192 0v192h-192v64h192v192h64v-192h192v-64h-192v-192h-64z" />
    <glyph glyph-name="comma" unicode="," horiz-adv-x="192" 
d="M0 -128v64h64v-64h-64zM64 -64v64h-64v128h128v-192h-64z" />
    <glyph glyph-name="hyphen" unicode="-" horiz-adv-x="384" 
d="M0 192v64h320v-64h-320z" />
    <glyph glyph-name="period" unicode="." horiz-adv-x="192" 
d="M0 0v128h128v-128h-128z" />
    <glyph glyph-name="slash" unicode="/" horiz-adv-x="320" 
d="M0 0v128h64v-128h-64zM64 128v128h64v-128h-64zM128 256v128h64v-128h-64zM192 384v128h64v-128h-64z" />
    <glyph glyph-name="zero" unicode="0" 
d="M256 64v192h-64v64h64v128h-128v-192h64v-64h-64v-128h128zM64 0v64h-64v384h64v64h256v-64h64v-384h-64v-64h-256z" />
    <glyph glyph-name="one" unicode="1" horiz-adv-x="256" 
d="M64 0v384h-64v64h64v64h128v-512h-128z" />
    <glyph glyph-name="two" unicode="2" 
d="M0 384v64h64v-64h-64zM0 0v64h64v64h64v64h64v64h64v192h-192v64h256v-64h64v-192h-64v-64h-64v-64h-64v-64h192v-64h-384z" />
    <glyph glyph-name="three" unicode="3" 
d="M0 64v64h64v-64h-64zM64 0v64h192v192h-192v64h64v64h64v64h-192v64h384v-64h-64v-64h-64v-64h64v-64h64v-192h-64v-64h-256z" />
    <glyph glyph-name="four" unicode="4" horiz-adv-x="512" 
d="M64 256v64h64v-64h-64zM128 320v64h64v-64h-64zM256 0v128h-256v128h64v-64h192v192h-64v64h64v64h128v-320h64v-64h-64v-128h-128z" />
    <glyph glyph-name="five" unicode="5" 
d="M0 64v64h64v-64h-64zM64 0v64h192v192h-256v256h384v-64h-256v-128h192v-64h64v-192h-64v-64h-256z" />
    <glyph glyph-name="six" unicode="6" 
d="M256 64v192h-128v-192h128zM64 0v64h-64v320h64v64h64v64h192v-64h-128v-64h-64v-64h192v-64h64v-192h-64v-64h-256z" />
    <glyph glyph-name="seven" unicode="7" 
d="M128 0v192h64v64h64v192h-256v64h384v-256h-64v-64h-64v-192h-128z" />
    <glyph glyph-name="eight" unicode="8" 
d="M256 64v192h-128v-192h128zM256 320v128h-128v-128h128zM64 0v64h-64v192h64v64h-64v128h64v64h256v-64h64v-128h-64v-64h64v-192h-64v-64h-256z" />
    <glyph glyph-name="nine" unicode="9" 
d="M256 256v192h-128v-192h128zM64 0v64h128v64h64v64h-192v64h-64v192h64v64h256v-64h64v-320h-64v-64h-64v-64h-192z" />
    <glyph glyph-name="colon" unicode=":" horiz-adv-x="192" 
d="M0 64v128h128v-128h-128zM0 320v128h128v-128h-128z" />
    <glyph glyph-name="semicolon" unicode=";" horiz-adv-x="192" 
d="M0 0v64h64v-64h-64zM64 64v64h-64v128h128v-192h-64zM0 320v128h128v-128h-128z" />
    <glyph glyph-name="less" unicode="&#x3c;" horiz-adv-x="320" 
d="M192 0v64h64v-64h-64zM128 64v64h64v-64h-64zM64 128v64h64v-64h-64zM0 192v64h64v-64h-64zM64 256v64h64v-64h-64zM128 320v64h64v-64h-64zM192 384v64h64v-64h-64z" />
    <glyph glyph-name="equal" unicode="=" horiz-adv-x="384" 
d="M0 128v64h320v-64h-320zM0 320v64h320v-64h-320z" />
    <glyph glyph-name="greater" unicode="&#x3e;" horiz-adv-x="320" 
d="M0 0v64h64v-64h-64zM64 64v64h64v-64h-64zM128 128v64h64v-64h-64zM192 192v64h64v-64h-64zM128 256v64h64v-64h-64zM64 320v64h64v-64h-64zM0 384v64h64v-64h-64z" />
    <glyph glyph-name="question" unicode="?" 
d="M128 -64v128h128v-128h-128zM0 384v64h64v-64h-64zM128 128v128h64v64h64v128h-192v64h256v-64h64v-128h-64v-64h-64v-128h-128z" />
    <glyph glyph-name="at" unicode="@" horiz-adv-x="512" 
d="M128 64v64h256v-64h-256zM64 128v64h64v-64h-64zM384 128v64h64v-64h-64zM320 192v64h64v-64h-64zM0 192v192h64v-192h-64zM128 192v192h192v-128h-64v64h-64v-64h64v-64h-128zM384 256v128h64v-128h-64zM64 384v64h64v-64h-64zM320 384v64h64v-64h-64zM128 448v64h192
v-64h-192z" />
    <glyph glyph-name="A" unicode="A" 
d="M256 256v192h-128v-192h128zM0 0v448h64v64h256v-64h64v-448h-128v192h-128v-192h-128z" />
    <glyph glyph-name="B" unicode="B" 
d="M256 64v192h-128v-192h128zM256 320v128h-128v-128h128zM0 0v512h320v-64h64v-128h-64v-64h64v-192h-64v-64h-320z" />
    <glyph glyph-name="C" unicode="C" 
d="M320 64v64h64v-64h-64zM320 384v64h64v-64h-64zM64 0v64h-64v384h64v64h256v-64h-192v-384h192v-64h-256z" />
    <glyph glyph-name="D" unicode="D" 
d="M256 64v384h-128v-384h128zM0 0v512h320v-64h64v-384h-64v-64h-320z" />
    <glyph glyph-name="E" unicode="E" horiz-adv-x="384" 
d="M0 0v512h320v-64h-192v-128h128v-64h-128v-192h192v-64h-320z" />
    <glyph glyph-name="F" unicode="F" horiz-adv-x="384" 
d="M0 0v512h320v-64h-192v-128h128v-64h-128v-256h-128z" />
    <glyph glyph-name="G" unicode="G" 
d="M320 384v64h64v-64h-64zM64 0v64h-64v384h64v64h256v-64h-192v-384h128v128h-64v64h192v-192h-64v-64h-256z" />
    <glyph glyph-name="H" unicode="H" 
d="M0 0v512h128v-256h128v256h128v-512h-128v192h-128v-192h-128z" />
    <glyph glyph-name="I" unicode="I" horiz-adv-x="320" 
d="M0 0v64h64v384h-64v64h256v-64h-64v-384h64v-64h-256z" />
    <glyph glyph-name="J" unicode="J" 
d="M64 0v64h-64v128h128v-128h128v448h128v-448h-64v-64h-256z" />
    <glyph glyph-name="K" unicode="K" horiz-adv-x="512" 
d="M0 0v512h128v-192h64v64h64v64h64v64h128v-64h-64v-64h-64v-64h-64v-128h64v-64h64v-64h64v-64h-128v64h-64v64h-64v64h-64v-192h-128z" />
    <glyph glyph-name="L" unicode="L" horiz-adv-x="384" 
d="M0 0v512h128v-448h192v-64h-320z" />
    <glyph glyph-name="M" unicode="M" horiz-adv-x="576" 
d="M0 0v512h64v-64h64v-64h64v-64h64v64h64v64h64v64h128v-512h-128v256h-64v-64h-64v-64h-64v64h-64v64h-64v-256h-64z" />
    <glyph glyph-name="N" unicode="N" horiz-adv-x="512" 
d="M0 0v512h64v-64h64v-64h64v-64h64v-64h64v-64h64v320h64v-512h-128v64h-64v64h-64v64h-64v64h-64v-256h-64z" />
    <glyph glyph-name="O" unicode="O" 
d="M256 64v384h-128v-384h128zM64 0v64h-64v384h64v64h256v-64h64v-384h-64v-64h-256z" />
    <glyph glyph-name="P" unicode="P" 
d="M256 256v192h-128v-192h128zM0 0v512h320v-64h64v-192h-64v-64h-192v-192h-128z" />
    <glyph glyph-name="Q" unicode="Q" 
d="M256 64v384h-128v-384h128zM256 -64v64h-192v64h-64v384h64v64h256v-64h64v-320h-64v-128h64v-64h-128z" />
    <glyph glyph-name="R" unicode="R" 
d="M256 256v192h-128v-192h128zM0 0v512h320v-64h64v-192h-64v-64h64v-192h-128v192h-128v-192h-128z" />
    <glyph glyph-name="S" unicode="S" horiz-adv-x="384" 
d="M0 64v64h64v-64h-64zM256 384v64h64v-64h-64zM64 0v64h128v64h-64v64h-64v64h-64v192h64v64h192v-64h-128v-128h64v-64h64v-64h64v-128h-64v-64h-192z" />
    <glyph glyph-name="T" unicode="T" 
d="M128 0v448h-128v64h384v-64h-128v-448h-128z" />
    <glyph glyph-name="U" unicode="U" 
d="M64 0v64h-64v448h128v-448h128v448h128v-448h-64v-64h-256z" />
    <glyph glyph-name="V" unicode="V" 
d="M0 0v512h128v-448h128v-64h-256zM256 64v448h128v-384h-64v-64h-64z" />
    <glyph glyph-name="W" unicode="W" horiz-adv-x="704" 
d="M0 0v512h128v-448h128v448h128v-448h128v-64h-512zM512 64v448h128v-384h-64v-64h-64z" />
    <glyph glyph-name="X" unicode="X" 
d="M0 0v192h64v64h-64v256h128v-256h128v256h128v-256h-64v-64h64v-192h-128v192h-128v-192h-128z" />
    <glyph glyph-name="Y" unicode="Y" 
d="M128 0v192h-64v64h-64v256h128v-256h128v256h128v-256h-64v-64h-64v-192h-128z" />
    <glyph glyph-name="Z" unicode="Z" 
d="M0 0v192h64v64h64v64h64v64h64v64h-256v64h384v-192h-64v-64h-64v-64h-64v-64h-64v-64h256v-64h-384z" />
    <glyph glyph-name="bracketleft" unicode="[" horiz-adv-x="320" 
d="M0 0v512h256v-64h-128v-384h128v-64h-256z" />
    <glyph glyph-name="backslash" unicode="\" horiz-adv-x="320" 
d="M192 0v128h64v-128h-64zM128 128v128h64v-128h-64zM64 256v128h64v-128h-64zM0 384v128h64v-128h-64z" />
    <glyph glyph-name="bracketright" unicode="]" horiz-adv-x="320" 
d="M0 0v64h128v384h-128v64h256v-512h-256z" />
    <glyph glyph-name="asciicircum" unicode="^" horiz-adv-x="256" 
d="M0 320v128h64v-128h-64zM128 320v128h64v-128h-64zM64 448v64h64v-64h-64z" />
    <glyph glyph-name="underscore" unicode="_" 
d="M0 0v64h384v-64h-384z" />
    <glyph glyph-name="grave" unicode="`" horiz-adv-x="320" 
d="M128 320v64h-64v64h-64v64h128v-64h64v-64h64v-64h-128z" />
    <glyph glyph-name="a" unicode="a" 
d="M256 64v128h-128v-128h128zM0 256v64h64v-64h-64zM64 0v64h-64v128h64v64h192v64h-192v64h256v-64h64v-320h-320z" />
    <glyph glyph-name="b" unicode="b" 
d="M256 64v256h-128v-256h128zM0 0v512h128v-128h192v-64h64v-256h-64v-64h-320z" />
    <glyph glyph-name="c" unicode="c" horiz-adv-x="384" 
d="M256 64v64h64v-64h-64zM256 256v64h64v-64h-64zM64 0v64h-64v256h64v64h192v-64h-128v-256h128v-64h-192z" />
    <glyph glyph-name="d" unicode="d" 
d="M256 64v256h-128v-256h128zM64 0v64h-64v256h64v64h192v128h128v-512h-320z" />
    <glyph glyph-name="e" unicode="e" 
d="M320 64v64h64v-64h-64zM256 256v64h-128v-64h128zM64 0v64h-64v256h64v64h256v-64h64v-128h-256v-128h192v-64h-256z" />
    <glyph glyph-name="f" unicode="f" horiz-adv-x="384" 
d="M64 0v320h-64v64h64v64h64v64h192v-64h-128v-64h64v-64h-64v-320h-128z" />
    <glyph glyph-name="g" unicode="g" 
d="M0 -128v64h64v-64h-64zM256 64v256h-128v-256h128zM64 -192v64h192v128h-192v64h-64v256h64v64h320v-512h-64v-64h-256z" />
    <glyph glyph-name="h" unicode="h" 
d="M0 0v512h128v-128h192v-64h64v-320h-128v320h-128v-320h-128z" />
    <glyph glyph-name="i" unicode="i" horiz-adv-x="192" 
d="M0 0v384h128v-384h-128zM0 448v64h128v-64h-128z" />
    <glyph glyph-name="j" unicode="j" horiz-adv-x="320" 
d="M-64 -128v64h64v-64h-64zM0 -192v64h128v512h128v-512h-64v-64h-192zM128 448v64h128v-64h-128z" />
    <glyph glyph-name="k" unicode="k" 
d="M0 0v512h128v-192h64v64h128v-64h-64v-64h-64v-64h64v-64h64v-64h64v-64h-128v64h-64v64h-64v-128h-128z" />
    <glyph glyph-name="l" unicode="l" horiz-adv-x="192" 
d="M0 0v512h128v-512h-128z" />
    <glyph glyph-name="m" unicode="m" horiz-adv-x="704" 
d="M0 0v384h576v-64h64v-320h-128v320h-128v-320h-128v320h-128v-320h-128z" />
    <glyph glyph-name="n" unicode="n" 
d="M0 0v384h320v-64h64v-320h-128v320h-128v-320h-128z" />
    <glyph glyph-name="o" unicode="o" 
d="M256 64v256h-128v-256h128zM64 0v64h-64v256h64v64h256v-64h64v-256h-64v-64h-256z" />
    <glyph glyph-name="p" unicode="p" 
d="M256 64v256h-128v-256h128zM0 -128v512h320v-64h64v-256h-64v-64h-192v-128h-128z" />
    <glyph glyph-name="q" unicode="q" 
d="M256 64v256h-128v-256h128zM256 -128v128h-192v64h-64v256h64v64h320v-512h-128z" />
    <glyph glyph-name="r" unicode="r" horiz-adv-x="384" 
d="M0 0v384h128v-64h64v-64h-64v-256h-128zM192 320v64h128v-64h-128z" />
    <glyph glyph-name="s" unicode="s" horiz-adv-x="384" 
d="M0 64v64h64v-64h-64zM256 256v64h64v-64h-64zM64 0v64h128v64h-64v64h-64v64h-64v64h64v64h192v-64h-128v-64h64v-64h64v-64h64v-64h-64v-64h-192z" />
    <glyph glyph-name="t" unicode="t" horiz-adv-x="320" 
d="M128 0v64h-64v256h-64v64h64v128h128v-128h64v-64h-64v-256h64v-64h-128z" />
    <glyph glyph-name="u" unicode="u" 
d="M64 0v64h-64v320h128v-320h128v320h128v-384h-320z" />
    <glyph glyph-name="v" unicode="v" 
d="M0 0v384h128v-320h128v-64h-256zM256 64v320h128v-256h-64v-64h-64z" />
    <glyph glyph-name="w" unicode="w" horiz-adv-x="704" 
d="M0 0v384h128v-320h128v320h128v-320h128v-64h-512zM512 64v320h128v-256h-64v-64h-64z" />
    <glyph glyph-name="x" unicode="x" 
d="M0 0v192h64v64h-64v128h128v-128h128v128h128v-128h-64v-64h64v-192h-128v192h-128v-192h-128z" />
    <glyph glyph-name="y" unicode="y" 
d="M0 -128v64h64v-64h-64zM64 -192v64h192v128h-192v64h-64v320h128v-320h128v320h128v-512h-64v-64h-256z" />
    <glyph glyph-name="z" unicode="z" horiz-adv-x="384" 
d="M0 0v128h64v64h64v64h64v64h-192v64h320v-128h-64v-64h-64v-64h-64v-64h192v-64h-320z" />
    <glyph glyph-name="braceleft" unicode="{" horiz-adv-x="320" 
d="M128 0v64h-64v128h-64v64h64v192h64v64h128v-64h-64v-192h-64v-64h64v-128h64v-64h-128z" />
    <glyph glyph-name="bar" unicode="|" horiz-adv-x="192" 
d="M0 0v512h128v-512h-128z" />
    <glyph glyph-name="braceright" unicode="}" horiz-adv-x="320" 
d="M0 0v64h64v128h64v64h-64v192h-64v64h128v-64h64v-192h64v-64h-64v-128h-64v-64h-128z" />
    <glyph glyph-name="asciitilde" unicode="~" horiz-adv-x="512" 
d="M0 192v64h64v-64h-64zM192 192v64h192v-64h-192zM64 256v64h128v-64h-128zM384 256v64h64v-64h-64z" />
    <glyph glyph-name="exclamdown" unicode="&#xa1;" horiz-adv-x="192" 
d="M0 -64v320h128v-320h-128zM0 384v128h128v-128h-128z" />
    <glyph glyph-name="cent" unicode="&#xa2;" 
d="M320 64v64h64v-64h-64zM192 64v256h-64v-256h64zM320 256v64h64v-64h-64zM192 -64v64h-128v64h-64v256h64v64h128v64h64v-64h64v-64h-64v-256h64v-64h-64v-64h-64z" />
    <glyph glyph-name="sterling" unicode="&#xa3;" 
d="M320 384v64h64v-64h-64zM0 0v64h64v128h-64v64h64v192h64v64h192v-64h-128v-192h64v-64h-64v-128h192v-64h-384z" />
    <glyph glyph-name="currency" unicode="&#xa4;" horiz-adv-x="320" 
d="M0 128v64h64v-64h-64zM192 128v64h64v-64h-64zM64 192v64h-64v64h64v64h128v-64h64v-64h-64v-64h-128zM0 384v64h64v-64h-64zM192 384v64h64v-64h-64z" />
    <glyph glyph-name="yen" unicode="&#xa5;" 
d="M128 0v64h-128v64h128v64h-128v64h128v64h-64v64h-64v128h64v-64h64v-64h128v64h64v64h64v-128h-64v-64h-64v-64h128v-64h-128v-64h128v-64h-128v-64h-128z" />
    <glyph glyph-name="brokenbar" unicode="&#xa6;" horiz-adv-x="192" 
d="M0 0v192h128v-192h-128zM0 320v192h128v-192h-128z" />
    <glyph glyph-name="section" unicode="&#xa7;" 
d="M256 192v128h-128v-128h128zM0 0v64h256v64h-192v64h-64v256h64v64h320v-64h-256v-64h192v-64h64v-256h-64v-64h-320z" />
    <glyph glyph-name="dieresis" unicode="&#xa8;" horiz-adv-x="384" 
d="M0 384v128h128v-128h-128zM192 384v128h128v-128h-128z" />
    <glyph glyph-name="copyright" unicode="&#xa9;" horiz-adv-x="640" 
d="M64 0v64h320v-64h-320zM128 128v256h192v-64h-128v-128h128v-64h-192zM0 64v384h64v-384h-64zM384 64v384h64v-384h-64zM64 448v64h320v-64h-320z" />
    <glyph glyph-name="ordfeminine" unicode="&#xaa;" 
d="M192 256v64h-64v-64h64zM64 192v64h-64v64h64v64h128v64h-128v64h192v-64h64v-192h64v-64h-320z" />
    <glyph glyph-name="guillemotleft" unicode="&#xab;" 
d="M128 0v64h64v-64h-64zM320 0v64h64v-64h-64zM64 64v64h64v-64h-64zM256 64v64h64v-64h-64zM0 128v64h64v-64h-64zM192 128v64h64v-64h-64zM64 192v64h64v-64h-64zM256 192v64h64v-64h-64zM128 256v64h64v-64h-64zM320 256v64h64v-64h-64z" />
    <glyph glyph-name="logicalnot" unicode="&#xac;" 
d="M256 0v192h-256v64h384v-256h-128z" />
    <glyph glyph-name="uni00AD" unicode="&#xad;" horiz-adv-x="384" 
d="M0 192v64h320v-64h-320z" />
    <glyph glyph-name="registered" unicode="&#xae;" horiz-adv-x="512" 
d="M64 0v64h320v-64h-320zM256 128v64h64v-64h-64zM256 256v64h64v-64h-64zM128 128v256h128v-64h-64v-64h64v-64h-64v-64h-64zM0 64v384h64v-384h-64zM384 64v384h64v-384h-64zM64 448v64h320v-64h-320z" />
    <glyph glyph-name="macron" unicode="&#xaf;" horiz-adv-x="384" 
d="M0 448v64h320v-64h-320z" />
    <glyph glyph-name="degree" unicode="&#xb0;" horiz-adv-x="384" 
d="M192 320v128h-64v-128h64zM64 256v64h-64v128h64v64h192v-64h64v-128h-64v-64h-192z" />
    <glyph glyph-name="plusminus" unicode="&#xb1;" horiz-adv-x="384" 
d="M0 0v64h320v-64h-320zM128 128v128h-128v64h128v128h64v-128h128v-64h-128v-128h-64z" />
    <glyph glyph-name="uni00B2" unicode="&#xb2;" horiz-adv-x="320" 
d="M0 192v64h64v64h64v-64h128v-64h-256zM128 320v64h64v-64h-64zM0 384v64h64v-64h-64zM192 384v64h64v-64h-64zM64 448v64h128v-64h-128z" />
    <glyph glyph-name="uni00B3" unicode="&#xb3;" horiz-adv-x="320" 
d="M0 192v64h192v-64h-192zM192 256v64h64v-64h-64zM64 320v64h64v64h-128v64h256v-64h-64v-128h-128z" />
    <glyph glyph-name="acute" unicode="&#xb4;" horiz-adv-x="256" 
d="M0 384v64h64v64h128v-64h-64v-64h-128z" />
    <glyph glyph-name="mu" unicode="&#xb5;" 
d="M0 -128v512h128v-320h128v320h128v-320h-64v-64h-192v-128h-128z" />
    <glyph glyph-name="paragraph" unicode="&#xb6;" 
d="M192 0v256h-128v64h-64v128h64v64h320v-512h-64v448h-64v-448h-64z" />
    <glyph glyph-name="periodcentered" unicode="&#xb7;" horiz-adv-x="192" 
d="M0 192v128h128v-128h-128z" />
    <glyph glyph-name="cedilla" unicode="&#xb8;" horiz-adv-x="192" 
d="M0 -128v64h64v64h64v-128h-128z" />
    <glyph glyph-name="uni00B9" unicode="&#xb9;" horiz-adv-x="256" 
d="M64 192v192h-64v64h64v64h128v-320h-128z" />
    <glyph glyph-name="ordmasculine" unicode="&#xba;" horiz-adv-x="384" 
d="M192 320v128h-64v-128h64zM64 256v64h-64v128h64v64h192v-64h64v-128h-64v-64h-192z" />
    <glyph glyph-name="guillemotright" unicode="&#xbb;" 
d="M0 0v64h64v-64h-64zM192 0v64h64v-64h-64zM64 64v64h64v-64h-64zM256 64v64h64v-64h-64zM128 128v64h64v-64h-64zM320 128v64h64v-64h-64zM64 192v64h64v-64h-64zM256 192v64h64v-64h-64zM0 256v64h64v-64h-64zM192 256v64h64v-64h-64z" />
    <glyph glyph-name="onequarter" unicode="&#xbc;" horiz-adv-x="576" 
d="M0 0v64h64v-64h-64zM64 64v64h64v-64h-64zM128 128v64h64v-64h-64zM192 192v64h64v-64h-64zM256 256v64h64v-64h-64zM448 0v64h-128v128h64v-64h64v64h-64v64h64v64h64v-320h-64zM320 320v64h64v-64h-64zM384 384v64h64v-64h-64zM64 256v128h-64v64h64v64h64v-256h-64z
M448 448v64h64v-64h-64z" />
    <glyph glyph-name="onehalf" unicode="&#xbd;" horiz-adv-x="576" 
d="M0 0v64h64v-64h-64zM64 64v64h64v-64h-64zM256 0v64h64v64h64v-64h128v-64h-256zM128 128v64h64v-64h-64zM256 128v64h64v-64h-64zM192 192v64h64v-64h-64zM384 128v64h-64v64h128v-128h-64zM256 256v64h64v-64h-64zM320 320v64h64v-64h-64zM384 384v64h64v-64h-64z
M64 256v128h-64v64h64v64h64v-256h-64zM448 448v64h64v-64h-64z" />
    <glyph glyph-name="threequarters" unicode="&#xbe;" horiz-adv-x="576" 
d="M0 0v64h64v-64h-64zM64 64v64h64v-64h-64zM128 128v64h64v-64h-64zM0 192v64h128v-64h-128zM192 192v64h64v-64h-64zM128 256v64h64v-64h-64zM256 256v64h64v-64h-64zM448 0v64h-128v128h64v-64h64v64h-64v64h64v64h64v-320h-64zM64 320v64h64v-64h-64zM320 320v64h64
v-64h-64zM128 384v64h64v-64h-64zM384 384v64h64v-64h-64zM0 448v64h128v-64h-128zM448 448v64h64v-64h-64z" />
    <glyph glyph-name="questiondown" unicode="&#xbf;" 
d="M320 0v64h64v-64h-64zM64 -64v64h-64v128h64v64h64v128h128v-128h-64v-64h-64v-128h192v-64h-256zM128 384v128h128v-128h-128z" />
    <glyph glyph-name="Agrave" unicode="&#xc0;" 
d="M256 256v192h-128v-192h128zM0 0v448h64v64h256v-64h64v-448h-128v192h-128v-192h-128zM128 576v64h-64v64h192v-64h64v-64h-192z" />
    <glyph glyph-name="Aacute" unicode="&#xc1;" 
d="M256 256v192h-128v-192h128zM0 0v448h64v64h256v-64h64v-448h-128v192h-128v-192h-128zM64 576v64h64v64h192v-64h-64v-64h-192z" />
    <glyph glyph-name="Acircumflex" unicode="&#xc2;" 
d="M256 256v192h-128v-192h128zM0 0v448h64v64h256v-64h64v-448h-128v192h-128v-192h-128zM64 576v64h64v-64h-64zM256 576v64h64v-64h-64zM128 640v64h128v-64h-128z" />
    <glyph glyph-name="Atilde" unicode="&#xc3;" 
d="M256 256v192h-128v-192h128zM0 0v448h64v64h256v-64h64v-448h-128v192h-128v-192h-128zM0 576v64h64v-64h-64zM192 576v64h128v-64h-128zM64 640v64h128v-64h-128zM320 640v64h64v-64h-64z" />
    <glyph glyph-name="Adieresis" unicode="&#xc4;" 
d="M256 256v192h-128v-192h128zM0 0v448h64v64h256v-64h64v-448h-128v192h-128v-192h-128zM0 576v128h128v-128h-128zM256 576v128h128v-128h-128z" />
    <glyph glyph-name="Aring" unicode="&#xc5;" 
d="M256 256v128h-128v-128h128zM0 0v384h64v64h256v-64h64v-384h-128v192h-128v-192h-128zM128 512v64h128v-64h-128zM64 576v64h64v-64h-64zM256 576v64h64v-64h-64zM128 640v64h128v-64h-128z" />
    <glyph glyph-name="AE" unicode="&#xc6;" horiz-adv-x="704" 
d="M320 256v128h-64v-64h-64v-64h128zM0 0v256h64v64h64v64h64v64h64v64h384v-64h-192v-192h128v-64h-128v-128h192v-64h-320v192h-192v-192h-128z" />
    <glyph glyph-name="Ccedilla" unicode="&#xc7;" 
d="M320 64v64h64v-64h-64zM320 384v64h64v-64h-64zM128 -128v64h64v64h-128v64h-64v384h64v64h256v-64h-192v-384h192v-64h-64v-128h-128z" />
    <glyph glyph-name="Egrave" unicode="&#xc8;" horiz-adv-x="384" 
d="M0 0v512h320v-64h-192v-128h128v-64h-128v-192h192v-64h-320zM128 576v64h-64v64h128v-64h64v-64h-128z" />
    <glyph glyph-name="Eacute" unicode="&#xc9;" horiz-adv-x="384" 
d="M0 0v512h320v-64h-192v-128h128v-64h-128v-192h192v-64h-320zM64 576v64h64v64h128v-64h-64v-64h-128z" />
    <glyph glyph-name="Ecircumflex" unicode="&#xca;" horiz-adv-x="384" 
d="M0 0v512h320v-64h-192v-128h128v-64h-128v-192h192v-64h-320zM64 576v64h64v-64h-64zM192 576v64h64v-64h-64zM128 640v64h64v-64h-64z" />
    <glyph glyph-name="Edieresis" unicode="&#xcb;" horiz-adv-x="384" 
d="M0 0v512h320v-64h-192v-128h128v-64h-128v-192h192v-64h-320zM0 576v128h128v-128h-128zM192 576v128h128v-128h-128z" />
    <glyph glyph-name="Igrave" unicode="&#xcc;" horiz-adv-x="320" 
d="M0 0v64h64v384h-64v64h256v-64h-64v-384h64v-64h-256zM64 576v64h-64v64h192v-64h64v-64h-192z" />
    <glyph glyph-name="Iacute" unicode="&#xcd;" horiz-adv-x="320" 
d="M0 0v64h64v384h-64v64h256v-64h-64v-384h64v-64h-256zM0 576v64h64v64h192v-64h-64v-64h-192z" />
    <glyph glyph-name="Icircumflex" unicode="&#xce;" horiz-adv-x="320" 
d="M0 0v64h64v384h-64v64h256v-64h-64v-384h64v-64h-256zM0 576v64h64v-64h-64zM192 576v64h64v-64h-64zM64 640v64h128v-64h-128z" />
    <glyph glyph-name="Idieresis" unicode="&#xcf;" horiz-adv-x="320" 
d="M0 0v64h64v384h-64v64h256v-64h-64v-384h64v-64h-256zM0 576v64h64v-64h-64zM192 576v64h64v-64h-64z" />
    <glyph glyph-name="Eth" unicode="&#xd0;" horiz-adv-x="512" 
d="M320 64v384h-128v-128h64v-128h-64v-128h128zM64 0v192h-64v128h64v192h320v-64h64v-384h-64v-64h-320z" />
    <glyph glyph-name="Ntilde" unicode="&#xd1;" 
d="M0 0v512h64v-64h64v-64h64v-64h64v-64h64v256h64v-512h-64v64h-64v64h-64v64h-64v64h-64v-256h-64zM0 576v64h64v-64h-64zM192 576v64h128v-64h-128zM64 640v64h128v-64h-128zM320 640v64h64v-64h-64z" />
    <glyph glyph-name="Ograve" unicode="&#xd2;" 
d="M256 64v384h-128v-384h128zM64 0v64h-64v384h64v64h256v-64h64v-384h-64v-64h-256zM128 576v64h-64v64h192v-64h64v-64h-192z" />
    <glyph glyph-name="Oacute" unicode="&#xd3;" 
d="M256 64v384h-128v-384h128zM64 0v64h-64v384h64v64h256v-64h64v-384h-64v-64h-256zM64 576v64h64v64h192v-64h-64v-64h-192z" />
    <glyph glyph-name="Ocircumflex" unicode="&#xd4;" 
d="M256 64v384h-128v-384h128zM64 0v64h-64v384h64v64h256v-64h64v-384h-64v-64h-256zM64 576v64h64v-64h-64zM256 576v64h64v-64h-64zM128 640v64h128v-64h-128z" />
    <glyph glyph-name="Otilde" unicode="&#xd5;" 
d="M256 64v384h-128v-384h128zM64 0v64h-64v384h64v64h256v-64h64v-384h-64v-64h-256zM0 576v64h64v-64h-64zM192 576v64h128v-64h-128zM64 640v64h128v-64h-128zM320 640v64h64v-64h-64z" />
    <glyph glyph-name="Odieresis" unicode="&#xd6;" 
d="M256 64v384h-128v-384h128zM64 0v64h-64v384h64v64h256v-64h64v-384h-64v-64h-256zM0 576v128h128v-128h-128zM256 576v128h128v-128h-128z" />
    <glyph glyph-name="multiply" unicode="&#xd7;" horiz-adv-x="384" 
d="M0 64v64h64v-64h-64zM256 64v64h64v-64h-64zM64 128v64h64v-64h-64zM192 128v64h64v-64h-64zM128 192v64h64v-64h-64zM64 256v64h64v-64h-64zM192 256v64h64v-64h-64zM0 320v64h64v-64h-64zM256 320v64h64v-64h-64z" />
    <glyph glyph-name="Oslash" unicode="&#xd8;" horiz-adv-x="576" 
d="M0 0v64h64v-64h-64zM320 64v192h-64v64h64v128h-128v-192h64v-64h-64v-128h128zM128 0v64h-64v384h64v64h256v-64h64v-384h-64v-64h-256zM448 448v64h64v-64h-64z" />
    <glyph glyph-name="Ugrave" unicode="&#xd9;" 
d="M64 0v64h-64v448h128v-448h128v448h128v-448h-64v-64h-256zM128 576v64h-64v64h192v-64h64v-64h-192z" />
    <glyph glyph-name="Uacute" unicode="&#xda;" 
d="M64 0v64h-64v448h128v-448h128v448h128v-448h-64v-64h-256zM64 576v64h64v64h192v-64h-64v-64h-192z" />
    <glyph glyph-name="Ucircumflex" unicode="&#xdb;" 
d="M64 0v64h-64v448h128v-448h128v448h128v-448h-64v-64h-256zM64 576v64h64v-64h-64zM256 576v64h64v-64h-64zM128 640v64h128v-64h-128z" />
    <glyph glyph-name="Udieresis" unicode="&#xdc;" 
d="M64 0v64h-64v448h128v-448h128v448h128v-448h-64v-64h-256zM0 576v128h128v-128h-128zM256 576v128h128v-128h-128z" />
    <glyph glyph-name="Yacute" unicode="&#xdd;" 
d="M128 0v192h-64v64h-64v256h128v-256h128v256h128v-256h-64v-64h-64v-192h-128zM64 576v64h64v64h192v-64h-64v-64h-192z" />
    <glyph glyph-name="Thorn" unicode="&#xde;" 
d="M256 192v128h-128v-128h128zM0 0v512h128v-128h192v-64h64v-128h-64v-64h-192v-128h-128z" />
    <glyph glyph-name="germandbls" unicode="&#xdf;" 
d="M192 0v64h64v128h128v-128h-64v-64h-128zM192 192v64h64v-64h-64zM0 0v448h64v64h256v-64h64v-192h-128v192h-128v-448h-128z" />
    <glyph glyph-name="agrave" unicode="&#xe0;" 
d="M256 64v128h-128v-128h128zM0 256v64h64v-64h-64zM64 0v64h-64v128h64v64h192v64h-192v64h256v-64h64v-320h-320zM128 448v64h-64v64h192v-64h64v-64h-192z" />
    <glyph glyph-name="aacute" unicode="&#xe1;" 
d="M256 64v128h-128v-128h128zM0 256v64h64v-64h-64zM64 0v64h-64v128h64v64h192v64h-192v64h256v-64h64v-320h-320zM64 448v64h64v64h192v-64h-64v-64h-192z" />
    <glyph glyph-name="acircumflex" unicode="&#xe2;" 
d="M256 64v128h-128v-128h128zM0 256v64h64v-64h-64zM64 0v64h-64v128h64v64h192v64h-192v64h256v-64h64v-320h-320zM64 448v64h64v-64h-64zM256 448v64h64v-64h-64zM128 512v64h128v-64h-128z" />
    <glyph glyph-name="atilde" unicode="&#xe3;" 
d="M256 64v128h-128v-128h128zM0 256v64h64v-64h-64zM64 0v64h-64v128h64v64h192v64h-192v64h256v-64h64v-320h-320zM0 448v64h64v-64h-64zM192 448v64h128v-64h-128zM64 512v64h128v-64h-128zM320 512v64h64v-64h-64z" />
    <glyph glyph-name="adieresis" unicode="&#xe4;" 
d="M256 64v128h-128v-128h128zM0 256v64h64v-64h-64zM64 0v64h-64v128h64v64h192v64h-192v64h256v-64h64v-320h-320zM0 448v128h128v-128h-128zM256 448v128h128v-128h-128z" />
    <glyph glyph-name="aring" unicode="&#xe5;" 
d="M256 64v128h-128v-128h128zM0 256v64h64v-64h-64zM64 0v64h-64v128h64v64h192v64h-192v64h256v-64h64v-320h-320zM128 448v64h128v-64h-128zM64 512v64h64v-64h-64zM256 512v64h64v-64h-64zM128 576v64h128v-64h-128z" />
    <glyph glyph-name="ae" unicode="&#xe6;" horiz-adv-x="704" 
d="M576 64v64h64v-64h-64zM256 64v128h-128v-128h128zM512 256v64h-128v-64h128zM64 0v64h-64v128h64v64h192v64h-192v64h512v-64h64v-128h-256v-128h192v-64h-512z" />
    <glyph glyph-name="ccedilla" unicode="&#xe7;" horiz-adv-x="384" 
d="M256 64v64h64v-64h-64zM256 256v64h64v-64h-64zM64 -128v64h64v64h-64v64h-64v256h64v64h192v-64h-128v-256h128v-64h-64v-128h-128z" />
    <glyph glyph-name="egrave" unicode="&#xe8;" 
d="M320 64v64h64v-64h-64zM256 256v64h-128v-64h128zM64 0v64h-64v256h64v64h256v-64h64v-128h-256v-128h192v-64h-256zM128 448v64h-64v64h192v-64h64v-64h-192z" />
    <glyph glyph-name="eacute" unicode="&#xe9;" 
d="M320 64v64h64v-64h-64zM256 256v64h-128v-64h128zM64 0v64h-64v256h64v64h256v-64h64v-128h-256v-128h192v-64h-256zM64 448v64h64v64h192v-64h-64v-64h-192z" />
    <glyph glyph-name="ecircumflex" unicode="&#xea;" 
d="M320 64v64h64v-64h-64zM256 256v64h-128v-64h128zM64 0v64h-64v256h64v64h256v-64h64v-128h-256v-128h192v-64h-256zM64 448v64h64v-64h-64zM256 448v64h64v-64h-64zM128 512v64h128v-64h-128z" />
    <glyph glyph-name="edieresis" unicode="&#xeb;" 
d="M320 64v64h64v-64h-64zM256 256v64h-128v-64h128zM64 0v64h-64v256h64v64h256v-64h64v-128h-256v-128h192v-64h-256zM0 448v128h128v-128h-128zM256 448v128h128v-128h-128z" />
    <glyph glyph-name="igrave" unicode="&#xec;" horiz-adv-x="192" 
d="M0 0v320h128v-320h-128zM64 384v64h64v-64h-64zM0 448v64h64v-64h-64z" />
    <glyph glyph-name="iacute" unicode="&#xed;" horiz-adv-x="192" 
d="M0 0v320h128v-320h-128zM0 384v64h64v-64h-64zM64 448v64h64v-64h-64z" />
    <glyph glyph-name="icircumflex" unicode="&#xee;" horiz-adv-x="320" 
d="M64 0v320h128v-320h-128zM0 384v64h64v-64h-64zM192 384v64h64v-64h-64zM64 448v64h128v-64h-128z" />
    <glyph glyph-name="idieresis" unicode="&#xef;" horiz-adv-x="320" 
d="M64 0v320h128v-320h-128zM0 384v128h64v-128h-64zM192 384v128h64v-128h-64z" />
    <glyph glyph-name="eth" unicode="&#xf0;" 
d="M256 64v128h-128v-128h128zM64 0v64h-64v128h64v64h192v128h-64v-64h-64v64h-128v64h128v64h64v-64h128v-64h64v-320h-64v-64h-256z" />
    <glyph glyph-name="ntilde" unicode="&#xf1;" 
d="M0 0v320h320v-64h64v-256h-128v256h-128v-256h-128zM0 384v64h64v-64h-64zM192 384v64h128v-64h-128zM64 448v64h128v-64h-128zM320 448v64h64v-64h-64z" />
    <glyph glyph-name="ograve" unicode="&#xf2;" 
d="M256 64v192h-128v-192h128zM64 0v64h-64v192h64v64h256v-64h64v-192h-64v-64h-256zM128 384v64h-64v64h192v-64h64v-64h-192z" />
    <glyph glyph-name="oacute" unicode="&#xf3;" 
d="M256 64v192h-128v-192h128zM64 0v64h-64v192h64v64h256v-64h64v-192h-64v-64h-256zM64 384v64h64v64h192v-64h-64v-64h-192z" />
    <glyph glyph-name="ocircumflex" unicode="&#xf4;" 
d="M256 64v192h-128v-192h128zM64 0v64h-64v192h64v64h256v-64h64v-192h-64v-64h-256zM64 384v64h64v-64h-64zM256 384v64h64v-64h-64zM128 448v64h128v-64h-128z" />
    <glyph glyph-name="otilde" unicode="&#xf5;" 
d="M256 64v192h-128v-192h128zM64 0v64h-64v192h64v64h256v-64h64v-192h-64v-64h-256zM0 384v64h64v-64h-64zM192 384v64h128v-64h-128zM64 448v64h128v-64h-128zM320 448v64h64v-64h-64z" />
    <glyph glyph-name="odieresis" unicode="&#xf6;" 
d="M256 64v192h-128v-192h128zM64 0v64h-64v192h64v64h256v-64h64v-192h-64v-64h-256zM0 384v128h128v-128h-128zM256 384v128h128v-128h-128z" />
    <glyph glyph-name="divide" unicode="&#xf7;" horiz-adv-x="384" 
d="M128 64v64h64v-64h-64zM0 192v64h320v-64h-320zM128 320v64h64v-64h-64z" />
    <glyph glyph-name="oslash" unicode="&#xf8;" horiz-adv-x="576" 
d="M0 0v64h64v-64h-64zM320 64v128h-64v64h64v64h-128v-128h64v-64h-64v-64h128zM128 0v64h-64v256h64v64h256v-64h64v-256h-64v-64h-256zM448 320v64h64v-64h-64z" />
    <glyph glyph-name="ugrave" unicode="&#xf9;" 
d="M64 0v64h-64v320h128v-320h128v320h128v-384h-320zM128 448v64h-64v64h192v-64h64v-64h-192z" />
    <glyph glyph-name="uacute" unicode="&#xfa;" 
d="M64 0v64h-64v320h128v-320h128v320h128v-384h-320zM64 448v64h64v64h192v-64h-64v-64h-192z" />
    <glyph glyph-name="ucircumflex" unicode="&#xfb;" 
d="M64 0v64h-64v320h128v-320h128v320h128v-384h-320zM64 448v64h64v-64h-64zM256 448v64h64v-64h-64zM128 512v64h128v-64h-128z" />
    <glyph glyph-name="udieresis" unicode="&#xfc;" 
d="M64 0v64h-64v320h128v-320h128v320h128v-384h-320zM0 448v128h128v-128h-128zM256 448v128h128v-128h-128z" />
    <glyph glyph-name="yacute" unicode="&#xfd;" 
d="M0 -128v64h64v-64h-64zM64 -192v64h192v128h-192v64h-64v256h128v-256h128v256h128v-448h-64v-64h-256zM64 384v64h64v64h192v-64h-64v-64h-192z" />
    <glyph glyph-name="thorn" unicode="&#xfe;" 
d="M256 64v128h-128v-128h128zM0 -128v512h128v-128h192v-64h64v-128h-64v-64h-192v-128h-128z" />
    <glyph glyph-name="ydieresis" unicode="&#xff;" 
d="M0 -128v64h64v-64h-64zM64 -192v64h192v128h-192v64h-64v256h128v-256h128v256h128v-448h-64v-64h-256zM0 384v128h128v-128h-128zM256 384v128h128v-128h-128z" />
    <glyph glyph-name="Amacron" unicode="&#x100;" 
d="M256 256v192h-128v-192h128zM0 0v448h64v64h256v-64h64v-448h-128v192h-128v-192h-128zM0 576v64h384v-64h-384z" />
    <glyph glyph-name="amacron" unicode="&#x101;" 
d="M256 64v128h-128v-128h128zM0 256v64h64v-64h-64zM64 0v64h-64v128h64v64h192v64h-192v64h256v-64h64v-320h-320zM0 448v64h384v-64h-384z" />
    <glyph glyph-name="Abreve" unicode="&#x102;" 
d="M256 256v192h-128v-192h128zM0 0v448h64v64h256v-64h64v-448h-128v192h-128v-192h-128zM64 576v64h256v-64h-256zM0 640v64h64v-64h-64zM320 640v64h64v-64h-64z" />
    <glyph glyph-name="abreve" unicode="&#x103;" 
d="M256 64v128h-128v-128h128zM0 256v64h64v-64h-64zM64 0v64h-64v128h64v64h192v64h-192v64h256v-64h64v-320h-320zM64 448v64h256v-64h-256zM0 512v64h64v-64h-64zM320 512v64h64v-64h-64z" />
    <glyph glyph-name="Aogonek" unicode="&#x104;" 
d="M192 -192v128h64v-64h128v-64h-192zM256 256v192h-128v-192h128zM256 -64v256h-128v-192h-128v448h64v64h256v-64h64v-448h-64v-64h-64z" />
    <glyph glyph-name="aogonek" unicode="&#x105;" 
d="M256 64v128h-128v-128h128zM0 256v64h64v-64h-64zM256 -128v128h-192v64h-64v128h64v64h192v64h-192v64h256v-64h64v-320h-64v-64h64v-64h-128z" />
    <glyph glyph-name="Cacute" unicode="&#x106;" 
d="M320 64v64h64v-64h-64zM320 384v64h64v-64h-64zM64 0v64h-64v384h64v64h256v-64h-192v-384h192v-64h-256zM64 576v64h64v64h192v-64h-64v-64h-192z" />
    <glyph glyph-name="cacute" unicode="&#x107;" horiz-adv-x="384" 
d="M256 64v64h64v-64h-64zM256 256v64h64v-64h-64zM64 0v64h-64v256h64v64h192v-64h-128v-256h128v-64h-192zM64 448v64h64v64h128v-64h-64v-64h-128z" />
    <glyph glyph-name="Ccircumflex" unicode="&#x108;" 
d="M320 64v64h64v-64h-64zM320 384v64h64v-64h-64zM64 0v64h-64v384h64v64h256v-64h-192v-384h192v-64h-256zM64 576v64h64v-64h-64zM256 576v64h64v-64h-64zM128 640v64h128v-64h-128z" />
    <glyph glyph-name="ccircumflex" unicode="&#x109;" horiz-adv-x="384" 
d="M256 64v64h64v-64h-64zM256 256v64h64v-64h-64zM64 0v64h-64v256h64v64h192v-64h-128v-256h128v-64h-192zM64 448v64h64v-64h-64zM192 448v64h64v-64h-64zM128 512v64h64v-64h-64z" />
    <glyph glyph-name="Cdotaccent" unicode="&#x10a;" 
d="M320 64v64h64v-64h-64zM320 384v64h64v-64h-64zM64 0v64h-64v384h64v64h256v-64h-192v-384h192v-64h-256zM128 576v128h128v-128h-128z" />
    <glyph glyph-name="cdotaccent" unicode="&#x10b;" horiz-adv-x="384" 
d="M256 64v64h64v-64h-64zM256 256v64h64v-64h-64zM64 0v64h-64v256h64v64h192v-64h-128v-256h128v-64h-192zM64 448v128h128v-128h-128z" />
    <glyph glyph-name="Ccaron" unicode="&#x10c;" 
d="M320 64v64h64v-64h-64zM320 384v64h64v-64h-64zM64 0v64h-64v384h64v64h256v-64h-192v-384h192v-64h-256zM128 576v64h128v-64h-128zM64 640v64h64v-64h-64zM256 640v64h64v-64h-64z" />
    <glyph glyph-name="ccaron" unicode="&#x10d;" horiz-adv-x="384" 
d="M256 64v64h64v-64h-64zM256 256v64h64v-64h-64zM64 0v64h-64v256h64v64h192v-64h-128v-256h128v-64h-192zM128 448v64h64v-64h-64zM64 512v64h64v-64h-64zM192 512v64h64v-64h-64z" />
    <glyph glyph-name="Dcaron" unicode="&#x10e;" 
d="M256 64v384h-128v-384h128zM0 0v512h320v-64h64v-384h-64v-64h-320zM128 576v64h128v-64h-128zM64 640v64h64v-64h-64zM256 640v64h64v-64h-64z" />
    <glyph glyph-name="dcaron" unicode="&#x10f;" horiz-adv-x="640" 
d="M256 64v256h-128v-256h128zM448 256v64h64v-64h-64zM64 0v64h-64v256h64v64h192v128h128v-512h-320zM512 320v64h-64v128h128v-192h-64z" />
    <glyph glyph-name="Dcroat" unicode="&#x110;" horiz-adv-x="512" 
d="M320 64v384h-128v-128h64v-128h-64v-128h128zM64 0v192h-64v128h64v192h320v-64h64v-384h-64v-64h-320z" />
    <glyph glyph-name="dcroat" unicode="&#x111;" horiz-adv-x="512" 
d="M256 64v256h-128v-256h128zM64 0v64h-64v256h64v64h192v64h-64v64h64v64h128v-64h64v-64h-64v-448h-320z" />
    <glyph glyph-name="Emacron" unicode="&#x112;" horiz-adv-x="384" 
d="M0 0v512h320v-64h-192v-128h128v-64h-128v-192h192v-64h-320zM0 576v64h320v-64h-320z" />
    <glyph glyph-name="emacron" unicode="&#x113;" 
d="M320 64v64h64v-64h-64zM256 256v64h-128v-64h128zM64 0v64h-64v256h64v64h256v-64h64v-128h-256v-128h192v-64h-256zM0 448v64h384v-64h-384z" />
    <glyph glyph-name="Ebreve" unicode="&#x114;" horiz-adv-x="384" 
d="M0 0v512h320v-64h-192v-128h128v-64h-128v-192h192v-64h-320zM64 576v64h192v-64h-192zM0 640v64h64v-64h-64zM256 640v64h64v-64h-64z" />
    <glyph glyph-name="ebreve" unicode="&#x115;" 
d="M320 64v64h64v-64h-64zM256 256v64h-128v-64h128zM64 0v64h-64v256h64v64h256v-64h64v-128h-256v-128h192v-64h-256zM64 448v64h256v-64h-256zM0 512v64h64v-64h-64zM320 512v64h64v-64h-64z" />
    <glyph glyph-name="Edotaccent" unicode="&#x116;" horiz-adv-x="384" 
d="M0 0v512h320v-64h-192v-128h128v-64h-128v-192h192v-64h-320zM64 576v128h128v-128h-128z" />
    <glyph glyph-name="edotaccent" unicode="&#x117;" 
d="M320 64v64h64v-64h-64zM256 256v64h-128v-64h128zM64 0v64h-64v256h64v64h256v-64h64v-128h-256v-128h192v-64h-256zM128 448v128h128v-128h-128z" />
    <glyph glyph-name="Eogonek" unicode="&#x118;" horiz-adv-x="384" 
d="M128 -192v128h64v-64h128v-64h-192zM192 -64v64h-192v512h320v-64h-192v-128h128v-64h-128v-192h192v-64h-64v-64h-64z" />
    <glyph glyph-name="eogonek" unicode="&#x119;" 
d="M192 -192v128h64v-64h128v-64h-192zM320 64v64h64v-64h-64zM256 256v64h-128v-64h128zM256 -64v64h-192v64h-64v256h64v64h256v-64h64v-128h-256v-128h192v-128h-64z" />
    <glyph glyph-name="Ecaron" unicode="&#x11a;" horiz-adv-x="384" 
d="M0 0v512h320v-64h-192v-128h128v-64h-128v-192h192v-64h-320zM128 576v64h64v-64h-64zM64 640v64h64v-64h-64zM192 640v64h64v-64h-64z" />
    <glyph glyph-name="ecaron" unicode="&#x11b;" 
d="M320 64v64h64v-64h-64zM256 256v64h-128v-64h128zM64 0v64h-64v256h64v64h256v-64h64v-128h-256v-128h192v-64h-256zM128 448v64h128v-64h-128zM64 512v64h64v-64h-64zM256 512v64h64v-64h-64z" />
    <glyph glyph-name="Gcircumflex" unicode="&#x11c;" 
d="M320 384v64h64v-64h-64zM64 0v64h-64v384h64v64h256v-64h-192v-384h128v128h-64v64h192v-192h-64v-64h-256zM64 576v64h64v-64h-64zM256 576v64h64v-64h-64zM128 640v64h128v-64h-128z" />
    <glyph glyph-name="gcircumflex" unicode="&#x11d;" 
d="M0 -128v64h64v-64h-64zM256 64v256h-128v-256h128zM64 -192v64h192v128h-192v64h-64v256h64v64h320v-512h-64v-64h-256zM64 448v64h64v-64h-64zM256 448v64h64v-64h-64zM128 512v64h128v-64h-128z" />
    <glyph glyph-name="Gbreve" unicode="&#x11e;" 
d="M320 384v64h64v-64h-64zM64 0v64h-64v384h64v64h256v-64h-192v-384h128v128h-64v64h192v-192h-64v-64h-256zM64 576v64h256v-64h-256zM0 640v64h64v-64h-64zM320 640v64h64v-64h-64z" />
    <glyph glyph-name="gbreve" unicode="&#x11f;" 
d="M0 -128v64h64v-64h-64zM256 64v256h-128v-256h128zM64 -192v64h192v128h-192v64h-64v256h64v64h320v-512h-64v-64h-256zM64 448v64h256v-64h-256zM0 512v64h64v-64h-64zM320 512v64h64v-64h-64z" />
    <glyph glyph-name="Gdotaccent" unicode="&#x120;" 
d="M320 384v64h64v-64h-64zM64 0v64h-64v384h64v64h256v-64h-192v-384h128v128h-64v64h192v-192h-64v-64h-256zM128 576v128h128v-128h-128z" />
    <glyph glyph-name="gdotaccent" unicode="&#x121;" 
d="M0 -128v64h64v-64h-64zM256 64v256h-128v-256h128zM64 -192v64h192v128h-192v64h-64v256h64v64h320v-512h-64v-64h-256zM128 448v128h128v-128h-128z" />
    <glyph glyph-name="uni0122" unicode="&#x122;" 
d="M128 -192v64h64v64h64v-128h-128zM320 384v64h64v-64h-64zM128 -64v64h-64v64h-64v384h64v64h256v-64h-192v-384h128v128h-64v64h192v-192h-64v-64h-128v-64h-64z" />
    <glyph glyph-name="uni0123" unicode="&#x123;" 
d="M0 -128v64h64v-64h-64zM256 64v256h-128v-256h128zM64 -192v64h192v128h-192v64h-64v256h64v64h320v-512h-64v-64h-256zM128 448v192h64v-64h64v-128h-128zM192 640v64h64v-64h-64z" />
    <glyph glyph-name="Hcircumflex" unicode="&#x124;" 
d="M0 0v512h128v-256h128v256h128v-512h-128v192h-128v-192h-128zM64 576v64h64v-64h-64zM256 576v64h64v-64h-64zM128 640v64h128v-64h-128z" />
    <glyph glyph-name="hcircumflex" unicode="&#x125;" 
d="M0 0v512h128v-128h192v-64h64v-320h-128v320h-128v-320h-128zM0 576v64h64v-64h-64zM128 576v64h64v-64h-64zM64 640v64h64v-64h-64z" />
    <glyph glyph-name="Hbar" unicode="&#x126;" horiz-adv-x="576" 
d="M320 256v128h-128v-128h128zM64 0v384h-64v64h64v64h128v-64h128v64h128v-64h64v-64h-64v-384h-128v192h-128v-192h-128z" />
    <glyph glyph-name="hbar" unicode="&#x127;" horiz-adv-x="512" 
d="M64 0v448h-64v64h64v64h128v-64h64v-64h-64v-64h192v-64h64v-320h-128v320h-128v-320h-128z" />
    <glyph glyph-name="Itilde" unicode="&#x128;" horiz-adv-x="320" 
d="M0 0v64h64v384h-64v64h256v-64h-64v-384h64v-64h-256zM0 576v64h64v-64h-64zM128 576v64h64v-64h-64zM64 640v64h64v-64h-64zM192 640v64h64v-64h-64z" />
    <glyph glyph-name="itilde" unicode="&#x129;" horiz-adv-x="320" 
d="M64 0v384h128v-384h-128zM0 448v64h64v-64h-64zM128 448v64h64v-64h-64zM64 512v64h64v-64h-64zM192 512v64h64v-64h-64z" />
    <glyph glyph-name="Imacron" unicode="&#x12a;" horiz-adv-x="320" 
d="M0 0v64h64v384h-64v64h256v-64h-64v-384h64v-64h-256zM0 576v64h256v-64h-256z" />
    <glyph glyph-name="imacron" unicode="&#x12b;" horiz-adv-x="320" 
d="M64 0v384h128v-384h-128zM0 448v64h256v-64h-256z" />
    <glyph glyph-name="Ibreve" unicode="&#x12c;" horiz-adv-x="320" 
d="M0 0v64h64v384h-64v64h256v-64h-64v-384h64v-64h-256zM64 576v64h128v-64h-128zM0 640v64h64v-64h-64zM192 640v64h64v-64h-64z" />
    <glyph glyph-name="ibreve" unicode="&#x12d;" horiz-adv-x="320" 
d="M64 0v384h128v-384h-128zM64 448v64h128v-64h-128zM0 512v64h64v-64h-64zM192 512v64h64v-64h-64z" />
    <glyph glyph-name="Iogonek" unicode="&#x12e;" horiz-adv-x="320" 
d="M64 -192v128h64v-64h64v-64h-128zM128 -64v64h-128v64h64v384h-64v64h256v-64h-64v-384h64v-64h-64v-64h-64z" />
    <glyph glyph-name="iogonek" unicode="&#x12f;" horiz-adv-x="192" 
d="M0 -192v128h64v-64h64v-64h-128zM64 -64v64h-64v384h128v-448h-64zM0 448v64h128v-64h-128z" />
    <glyph glyph-name="Idotaccent" unicode="&#x130;" horiz-adv-x="320" 
d="M0 0v64h64v384h-64v64h256v-64h-64v-384h64v-64h-256zM64 576v128h128v-128h-128z" />
    <glyph glyph-name="dotlessi" unicode="&#x131;" horiz-adv-x="192" 
d="M0 0v384h128v-384h-128z" />
    <glyph glyph-name="IJ" unicode="&#x132;" horiz-adv-x="512" 
d="M0 0v64h64v384h-64v64h256v-64h-64v-384h64v-64h-256zM128 -128v64h192v576h128v-576h-64v-64h-256z" />
    <glyph glyph-name="ij" unicode="&#x133;" horiz-adv-x="384" 
d="M0 -128v64h64v-64h-64zM0 0v384h128v-384h-128zM64 -192v64h128v512h128v-512h-64v-64h-192zM0 448v64h128v-64h-128zM192 448v64h128v-64h-128z" />
    <glyph glyph-name="Jcircumflex" unicode="&#x134;" horiz-adv-x="512" 
d="M64 0v64h-64v128h128v-128h128v448h128v-448h-64v-64h-256zM192 576v64h64v-64h-64zM384 576v64h64v-64h-64zM256 640v64h128v-64h-128z" />
    <glyph glyph-name="jcircumflex" unicode="&#x135;" 
d="M0 -128v64h64v-64h-64zM64 -192v64h128v512h128v-512h-64v-64h-192zM128 448v64h64v-64h-64zM320 448v64h64v-64h-64zM192 512v64h128v-64h-128z" />
    <glyph glyph-name="uni0136" unicode="&#x136;" horiz-adv-x="512" 
d="M128 -192v64h128v64h64v-128h-192zM192 -64v64h64v-64h-64zM0 0v512h128v-192h64v64h64v64h64v64h128v-64h-64v-64h-64v-64h-64v-128h64v-64h64v-64h64v-64h-128v64h-64v64h-64v64h-64v-192h-128z" />
    <glyph glyph-name="uni0137" unicode="&#x137;" 
d="M128 -192v64h64v64h64v-128h-128zM128 -64v64h64v-64h-64zM0 0v512h128v-192h64v64h128v-64h-64v-64h-64v-64h64v-64h64v-64h64v-64h-128v64h-64v64h-64v-128h-128z" />
    <glyph glyph-name="kgreenlandic" unicode="&#x138;" 
d="M0 0v384h128v-128h64v64h64v64h128v-64h-64v-64h-64v-128h64v-64h64v-64h-128v64h-64v64h-64v-128h-128z" />
    <glyph glyph-name="Lacute" unicode="&#x139;" horiz-adv-x="384" 
d="M0 0v512h128v-448h192v-64h-320zM0 576v64h64v64h192v-64h-64v-64h-192z" />
    <glyph glyph-name="lacute" unicode="&#x13a;" horiz-adv-x="192" 
d="M0 0v512h128v-512h-128zM0 576v64h64v-64h-64zM64 640v64h64v-64h-64z" />
    <glyph glyph-name="uni013B" unicode="&#x13b;" horiz-adv-x="384" 
d="M64 -192v64h128v64h64v-128h-192zM128 -64v64h-128v512h128v-448h192v-64h-128v-64h-64z" />
    <glyph glyph-name="uni013C" unicode="&#x13c;" horiz-adv-x="192" 
d="M0 -192v64h64v64h64v-128h-128zM0 -64v576h128v-512h-64v-64h-64z" />
    <glyph glyph-name="Lcaron" unicode="&#x13d;" horiz-adv-x="384" 
d="M192 256v64h64v-64h-64zM0 0v512h128v-448h192v-64h-320zM256 320v64h-64v128h128v-192h-64z" />
    <glyph glyph-name="lcaron" unicode="&#x13e;" horiz-adv-x="384" 
d="M192 256v64h64v-64h-64zM0 0v512h128v-512h-128zM256 320v64h-64v128h128v-192h-64z" />
    <glyph glyph-name="Ldot" unicode="&#x13f;" horiz-adv-x="384" 
d="M192 192v128h128v-128h-128zM0 0v512h128v-448h192v-64h-320z" />
    <glyph glyph-name="ldot" unicode="&#x140;" horiz-adv-x="384" 
d="M192 192v128h128v-128h-128zM0 0v512h128v-512h-128z" />
    <glyph glyph-name="Lslash" unicode="&#x141;" 
d="M64 0v192h-64v64h64v256h128v-192h64v-64h-64v-192h192v-64h-320z" />
    <glyph glyph-name="lslash" unicode="&#x142;" horiz-adv-x="320" 
d="M64 0v256h-64v64h64v192h128v-128h64v-64h-64v-320h-128z" />
    <glyph glyph-name="Nacute" unicode="&#x143;" horiz-adv-x="512" 
d="M0 0v512h64v-64h64v-64h64v-64h64v-64h64v-64h64v320h64v-512h-128v64h-64v64h-64v64h-64v64h-64v-256h-64zM128 512v64h64v64h128v-64h-64v-64h-128z" />
    <glyph glyph-name="nacute" unicode="&#x144;" 
d="M0 0v384h320v-64h64v-320h-128v320h-128v-320h-128zM128 448v64h64v64h128v-64h-64v-64h-128z" />
    <glyph glyph-name="uni0145" unicode="&#x145;" horiz-adv-x="512" 
d="M128 -192v64h64v64h64v-128h-128zM128 -64v64h64v-64h-64zM0 0v512h64v-64h64v-64h64v-64h64v-64h64v-64h64v320h64v-512h-128v64h-64v64h-64v64h-64v64h-64v-256h-64z" />
    <glyph glyph-name="uni0146" unicode="&#x146;" 
d="M128 -128v64h64v64h64v-128h-128zM0 0v384h320v-64h64v-320h-128v320h-128v-320h-128z" />
    <glyph glyph-name="Ncaron" unicode="&#x147;" horiz-adv-x="512" 
d="M0 0v512h64v-64h64v-64h64v-64h64v-64h64v-64h64v320h64v-512h-128v64h-64v64h-64v64h-64v64h-64v-256h-64zM192 512v64h64v-64h-64zM128 576v64h64v-64h-64zM256 576v64h64v-64h-64z" />
    <glyph glyph-name="ncaron" unicode="&#x148;" 
d="M0 0v384h320v-64h64v-320h-128v320h-128v-320h-128zM128 448v64h128v-64h-128zM64 512v64h64v-64h-64zM256 512v64h64v-64h-64z" />
    <glyph glyph-name="napostrophe" unicode="&#x149;" horiz-adv-x="576" 
d="M0 320v64h64v-64h-64zM128 0v384h320v-64h64v-320h-128v320h-128v-320h-128zM64 384v64h-64v128h128v-192h-64z" />
    <glyph glyph-name="Eng" unicode="&#x14a;" horiz-adv-x="512" 
d="M192 -128v64h128v128h-64v64h-64v64h-64v64h-64v-256h-64v512h64v-64h64v-64h64v-64h64v-64h64v-64h64v320h64v-576h-64v-64h-192z" />
    <glyph glyph-name="eng" unicode="&#x14b;" 
d="M128 -128v64h128v384h-128v-320h-128v384h320v-64h64v-384h-64v-64h-192z" />
    <glyph glyph-name="Omacron" unicode="&#x14c;" 
d="M256 64v384h-128v-384h128zM64 0v64h-64v384h64v64h256v-64h64v-384h-64v-64h-256zM0 576v64h384v-64h-384z" />
    <glyph glyph-name="omacron" unicode="&#x14d;" 
d="M256 64v256h-128v-256h128zM64 0v64h-64v256h64v64h256v-64h64v-256h-64v-64h-256zM0 448v64h384v-64h-384z" />
    <glyph glyph-name="Obreve" unicode="&#x14e;" 
d="M256 64v384h-128v-384h128zM64 0v64h-64v384h64v64h256v-64h64v-384h-64v-64h-256zM64 576v64h256v-64h-256zM0 640v64h64v-64h-64zM320 640v64h64v-64h-64z" />
    <glyph glyph-name="obreve" unicode="&#x14f;" 
d="M256 64v256h-128v-256h128zM64 0v64h-64v256h64v64h256v-64h64v-256h-64v-64h-256zM64 448v64h256v-64h-256zM0 512v64h64v-64h-64zM320 512v64h64v-64h-64z" />
    <glyph glyph-name="Ohungarumlaut" unicode="&#x150;" 
d="M256 64v384h-128v-384h128zM64 0v64h-64v384h64v64h256v-64h64v-384h-64v-64h-256zM0 576v64h64v64h128v-64h-64v-64h-128zM192 576v64h64v64h128v-64h-64v-64h-128z" />
    <glyph glyph-name="ohungarumlaut" unicode="&#x151;" 
d="M256 64v256h-128v-256h128zM64 0v64h-64v256h64v64h256v-64h64v-256h-64v-64h-256zM0 448v64h64v64h128v-64h-64v-64h-128zM192 448v64h64v64h128v-64h-64v-64h-128z" />
    <glyph glyph-name="OE" unicode="&#x152;" horiz-adv-x="640" 
d="M256 64v384h-128v-384h128zM64 0v64h-64v384h64v64h512v-64h-192v-128h128v-64h-128v-192h192v-64h-512z" />
    <glyph glyph-name="oe" unicode="&#x153;" horiz-adv-x="768" 
d="M640 64v64h64v-64h-64zM256 64v256h-128v-256h128zM576 256v64h-128v-64h128zM64 0v64h-64v256h64v64h256v-64h64v64h256v-64h64v-128h-256v-128h192v-64h-256v64h-64v-64h-256z" />
    <glyph glyph-name="Racute" unicode="&#x154;" 
d="M256 256v192h-128v-192h128zM0 0v512h320v-64h64v-192h-64v-64h64v-192h-128v192h-128v-192h-128zM64 576v64h64v64h192v-64h-64v-64h-192z" />
    <glyph glyph-name="racute" unicode="&#x155;" horiz-adv-x="384" 
d="M0 0v384h128v-64h64v-64h-64v-256h-128zM192 320v64h128v-64h-128zM64 448v64h64v64h128v-64h-64v-64h-128z" />
    <glyph glyph-name="uni0156" unicode="&#x156;" 
d="M128 -192v64h64v64h64v-128h-128zM128 -64v64h64v-64h-64zM256 256v192h-128v-192h128zM0 0v512h320v-64h64v-192h-64v-64h64v-192h-128v192h-128v-192h-128z" />
    <glyph glyph-name="uni0157" unicode="&#x157;" horiz-adv-x="384" 
d="M0 -192v64h64v64h64v-128h-128zM0 -64v448h128v-64h64v-64h-64v-256h-64v-64h-64zM192 320v64h128v-64h-128z" />
    <glyph glyph-name="Rcaron" unicode="&#x158;" 
d="M256 256v192h-128v-192h128zM0 0v512h320v-64h64v-192h-64v-64h64v-192h-128v192h-128v-192h-128zM128 576v64h128v-64h-128zM64 640v64h64v-64h-64zM256 640v64h64v-64h-64z" />
    <glyph glyph-name="rcaron" unicode="&#x159;" horiz-adv-x="384" 
d="M0 0v384h128v-64h64v-64h-64v-256h-128zM192 320v64h128v-64h-128zM128 448v64h64v-64h-64zM64 512v64h64v-64h-64zM192 512v64h64v-64h-64z" />
    <glyph glyph-name="Sacute" unicode="&#x15a;" horiz-adv-x="384" 
d="M0 64v64h64v-64h-64zM256 384v64h64v-64h-64zM64 0v64h128v64h-64v64h-64v64h-64v192h64v64h192v-64h-128v-128h64v-64h64v-64h64v-128h-64v-64h-192zM64 576v64h64v64h128v-64h-64v-64h-128z" />
    <glyph glyph-name="sacute" unicode="&#x15b;" horiz-adv-x="384" 
d="M0 64v64h64v-64h-64zM256 256v64h64v-64h-64zM64 0v64h128v64h-64v64h-64v64h-64v64h64v64h192v-64h-128v-64h64v-64h64v-64h64v-64h-64v-64h-192zM64 448v64h64v64h128v-64h-64v-64h-128z" />
    <glyph glyph-name="Scircumflex" unicode="&#x15c;" horiz-adv-x="384" 
d="M0 64v64h64v-64h-64zM256 384v64h64v-64h-64zM64 0v64h128v64h-64v64h-64v64h-64v192h64v64h192v-64h-128v-128h64v-64h64v-64h64v-128h-64v-64h-192zM64 576v64h64v-64h-64zM192 576v64h64v-64h-64zM128 640v64h64v-64h-64z" />
    <glyph glyph-name="scircumflex" unicode="&#x15d;" horiz-adv-x="384" 
d="M0 64v64h64v-64h-64zM256 256v64h64v-64h-64zM64 0v64h128v64h-64v64h-64v64h-64v64h64v64h192v-64h-128v-64h64v-64h64v-64h64v-64h-64v-64h-192zM64 448v64h64v-64h-64zM192 448v64h64v-64h-64zM128 512v64h64v-64h-64z" />
    <glyph glyph-name="Scedilla" unicode="&#x15e;" horiz-adv-x="384" 
d="M64 -192v64h128v64h64v-128h-192zM0 64v64h64v-64h-64zM256 384v64h64v-64h-64zM128 -64v64h-64v64h128v64h-64v64h-64v64h-64v192h64v64h192v-64h-128v-128h64v-64h64v-64h64v-128h-64v-64h-64v-64h-64z" />
    <glyph glyph-name="scedilla" unicode="&#x15f;" horiz-adv-x="384" 
d="M64 -192v64h128v64h64v-128h-192zM0 64v64h64v-64h-64zM256 256v64h64v-64h-64zM128 -64v64h-64v64h128v64h-64v64h-64v64h-64v64h64v64h192v-64h-128v-64h64v-64h64v-64h64v-64h-64v-64h-64v-64h-64z" />
    <glyph glyph-name="Scaron" unicode="&#x160;" horiz-adv-x="384" 
d="M0 64v64h64v-64h-64zM256 384v64h64v-64h-64zM64 0v64h128v64h-64v64h-64v64h-64v192h64v64h192v-64h-128v-128h64v-64h64v-64h64v-128h-64v-64h-192zM128 576v64h64v-64h-64zM64 640v64h64v-64h-64zM192 640v64h64v-64h-64z" />
    <glyph glyph-name="scaron" unicode="&#x161;" horiz-adv-x="384" 
d="M0 64v64h64v-64h-64zM256 256v64h64v-64h-64zM64 0v64h128v64h-64v64h-64v64h-64v64h64v64h192v-64h-128v-64h64v-64h64v-64h64v-64h-64v-64h-192zM128 448v64h64v-64h-64zM64 512v64h64v-64h-64zM192 512v64h64v-64h-64z" />
    <glyph glyph-name="uni0162" unicode="&#x162;" 
d="M128 -192v64h64v64h64v-128h-128zM128 -64v512h-128v64h384v-64h-128v-448h-64v-64h-64z" />
    <glyph glyph-name="uni0163" unicode="&#x163;" horiz-adv-x="320" 
d="M64 -192v64h128v64h64v-128h-192zM128 -64v128h-64v256h-64v64h64v128h128v-128h64v-64h-64v-256h64v-64h-64v-64h-64z" />
    <glyph glyph-name="Tcaron" unicode="&#x164;" 
d="M128 0v448h-128v64h384v-64h-128v-448h-128zM128 576v64h128v-64h-128zM64 640v64h64v-64h-64zM256 640v64h64v-64h-64z" />
    <glyph glyph-name="tcaron" unicode="&#x165;" 
d="M256 384v64h64v-64h-64zM128 0v64h-64v256h-64v64h64v128h128v-128h64v-64h-64v-256h64v-64h-128zM320 448v64h-64v128h128v-192h-64z" />
    <glyph glyph-name="Tbar" unicode="&#x166;" 
d="M128 0v256h-64v64h64v128h-128v64h384v-64h-128v-128h64v-64h-64v-256h-128z" />
    <glyph glyph-name="tbar" unicode="&#x167;" horiz-adv-x="320" 
d="M128 0v64h-64v128h-64v64h64v64h-64v64h64v128h128v-128h64v-64h-64v-64h64v-64h-64v-128h64v-64h-128z" />
    <glyph glyph-name="Utilde" unicode="&#x168;" 
d="M64 0v64h-64v448h128v-448h128v448h128v-448h-64v-64h-256zM64 576v64h64v-64h-64zM192 576v64h64v-64h-64zM128 640v64h64v-64h-64zM256 640v64h64v-64h-64z" />
    <glyph glyph-name="utilde" unicode="&#x169;" 
d="M64 0v64h-64v320h128v-320h128v320h128v-384h-320zM64 448v64h64v-64h-64zM192 448v64h64v-64h-64zM128 512v64h64v-64h-64zM256 512v64h64v-64h-64z" />
    <glyph glyph-name="Umacron" unicode="&#x16a;" 
d="M64 0v64h-64v448h128v-448h128v448h128v-448h-64v-64h-256zM0 576v64h384v-64h-384z" />
    <glyph glyph-name="umacron" unicode="&#x16b;" 
d="M64 0v64h-64v320h128v-320h128v320h128v-384h-320zM0 448v64h384v-64h-384z" />
    <glyph glyph-name="Ubreve" unicode="&#x16c;" 
d="M64 0v64h-64v448h128v-448h128v448h128v-448h-64v-64h-256zM64 576v64h256v-64h-256zM0 640v64h64v-64h-64zM320 640v64h64v-64h-64z" />
    <glyph glyph-name="ubreve" unicode="&#x16d;" 
d="M64 0v64h-64v320h128v-320h128v320h128v-384h-320zM64 448v64h256v-64h-256zM0 512v64h64v-64h-64zM320 512v64h64v-64h-64z" />
    <glyph glyph-name="Uring" unicode="&#x16e;" 
d="M64 0v64h-64v448h128v-448h128v448h128v-448h-64v-64h-256zM128 576v128h128v-128h-128z" />
    <glyph glyph-name="uring" unicode="&#x16f;" 
d="M64 0v64h-64v320h128v-320h128v320h128v-384h-320zM128 448v128h128v-128h-128z" />
    <glyph glyph-name="Uhungarumlaut" unicode="&#x170;" 
d="M64 0v64h-64v448h128v-448h128v448h128v-448h-64v-64h-256zM0 576v64h64v64h128v-64h-64v-64h-128zM192 576v64h64v64h128v-64h-64v-64h-128z" />
    <glyph glyph-name="uhungarumlaut" unicode="&#x171;" 
d="M64 0v64h-64v320h128v-320h128v320h128v-384h-320zM0 448v64h64v64h128v-64h-64v-64h-128zM192 448v64h64v64h128v-64h-64v-64h-128z" />
    <glyph glyph-name="Uogonek" unicode="&#x172;" 
d="M192 -192v128h64v-64h128v-64h-192zM256 -64v64h-192v64h-64v448h128v-448h128v448h128v-448h-64v-128h-64z" />
    <glyph glyph-name="uogonek" unicode="&#x173;" 
d="M192 -192v128h64v-64h128v-64h-192zM256 -64v64h-192v64h-64v320h128v-320h128v320h128v-384h-64v-64h-64z" />
    <glyph glyph-name="Wcircumflex" unicode="&#x174;" horiz-adv-x="704" 
d="M0 0v512h128v-448h128v448h128v-448h128v-64h-512zM512 64v448h128v-384h-64v-64h-64zM192 576v64h64v-64h-64zM384 576v64h64v-64h-64zM256 640v64h128v-64h-128z" />
    <glyph glyph-name="wcircumflex" unicode="&#x175;" horiz-adv-x="704" 
d="M0 0v384h128v-320h128v320h128v-320h128v-64h-512zM512 64v320h128v-256h-64v-64h-64zM192 448v64h64v-64h-64zM384 448v64h64v-64h-64zM256 512v64h128v-64h-128z" />
    <glyph glyph-name="Ycircumflex" unicode="&#x176;" 
d="M128 0v192h-64v64h-64v256h128v-256h128v256h128v-256h-64v-64h-64v-192h-128zM64 576v64h64v-64h-64zM256 576v64h64v-64h-64zM128 640v64h128v-64h-128z" />
    <glyph glyph-name="ycircumflex" unicode="&#x177;" 
d="M0 -128v64h64v-64h-64zM64 -192v64h192v128h-192v64h-64v320h128v-320h128v320h128v-512h-64v-64h-256zM64 448v64h64v-64h-64zM256 448v64h64v-64h-64zM128 512v64h128v-64h-128z" />
    <glyph glyph-name="Ydieresis" unicode="&#x178;" 
d="M128 0v192h-64v64h-64v256h128v-256h128v256h128v-256h-64v-64h-64v-192h-128zM0 576v128h128v-128h-128zM256 576v128h128v-128h-128z" />
    <glyph glyph-name="Zacute" unicode="&#x179;" 
d="M0 0v192h64v64h64v64h64v64h64v64h-256v64h384v-192h-64v-64h-64v-64h-64v-64h-64v-64h256v-64h-384zM64 576v64h64v64h192v-64h-64v-64h-192z" />
    <glyph glyph-name="zacute" unicode="&#x17a;" horiz-adv-x="384" 
d="M0 0v128h64v64h64v64h64v64h-192v64h320v-128h-64v-64h-64v-64h-64v-64h192v-64h-320zM64 448v64h64v64h128v-64h-64v-64h-128z" />
    <glyph glyph-name="Zdotaccent" unicode="&#x17b;" 
d="M0 0v192h64v64h64v64h64v64h64v64h-256v64h384v-192h-64v-64h-64v-64h-64v-64h-64v-64h256v-64h-384zM128 576v128h128v-128h-128z" />
    <glyph glyph-name="zdotaccent" unicode="&#x17c;" horiz-adv-x="384" 
d="M0 0v128h64v64h64v64h64v64h-192v64h320v-128h-64v-64h-64v-64h-64v-64h192v-64h-320zM64 448v128h128v-128h-128z" />
    <glyph glyph-name="Zcaron" unicode="&#x17d;" 
d="M0 0v192h64v64h64v64h64v64h64v64h-256v64h384v-192h-64v-64h-64v-64h-64v-64h-64v-64h256v-64h-384zM128 576v64h128v-64h-128zM64 640v64h64v-64h-64zM256 640v64h64v-64h-64z" />
    <glyph glyph-name="zcaron" unicode="&#x17e;" horiz-adv-x="384" 
d="M0 0v128h64v64h64v64h64v64h-192v64h320v-128h-64v-64h-64v-64h-64v-64h192v-64h-320zM128 448v64h64v-64h-64zM64 512v64h64v-64h-64zM192 512v64h64v-64h-64z" />
    <glyph glyph-name="longs" unicode="&#x17f;" horiz-adv-x="384" 
d="M64 0v320h-64v64h64v64h64v64h192v-64h-128v-448h-128z" />
    <glyph glyph-name="uni0191" unicode="&#x191;" horiz-adv-x="384" 
d="M-128 -128v64h64v64h64v512h320v-64h-192v-128h128v-64h-128v-320h-64v-64h-192z" />
    <glyph glyph-name="florin" unicode="&#x192;" horiz-adv-x="384" 
d="M0 -64v64h64v320h-64v64h64v64h64v64h192v-64h-128v-64h64v-64h-64v-320h-64v-64h-128z" />
    <glyph glyph-name="uni01C0" unicode="&#x1c0;" horiz-adv-x="128" 
d="M0 0v512h64v-512h-64z" />
    <glyph glyph-name="uni01C1" unicode="&#x1c1;" horiz-adv-x="256" 
d="M0 0v512h64v-512h-64zM128 0v512h64v-512h-64z" />
    <glyph glyph-name="uni01C2" unicode="&#x1c2;" 
d="M128 0v128h-128v64h128v128h-128v64h128v128h128v-128h128v-64h-128v-128h128v-64h-128v-128h-128z" />
    <glyph glyph-name="uni01C3" unicode="&#x1c3;" horiz-adv-x="192" 
d="M0 -64v128h128v-128h-128zM0 192v320h128v-320h-128z" />
    <glyph glyph-name="uni01C7" unicode="&#x1c7;" horiz-adv-x="576" 
d="M0 0v512h128v-448h192v-64h-320zM256 -192v64h-64v64h128v-64h64v640h128v-640h-64v-64h-192z" />
    <glyph glyph-name="uni01C8" unicode="&#x1c8;" horiz-adv-x="576" 
d="M192 -128v64h64v-64h-64zM256 -192v64h128v512h128v-512h-64v-64h-192zM0 0v512h128v-448h192v-64h-320zM384 448v64h128v-64h-128z" />
    <glyph glyph-name="uni01C9" unicode="&#x1c9;" horiz-adv-x="384" 
d="M0 -128v64h64v-64h-64zM64 -192v64h128v512h128v-512h-64v-64h-192zM0 0v512h128v-512h-128zM192 448v64h128v-64h-128z" />
    <glyph glyph-name="uni01CA" unicode="&#x1ca;" horiz-adv-x="640" 
d="M0 0v512h64v-64h64v-64h64v-64h64v-64h64v256h64v-512h-64v64h-64v64h-64v64h-64v64h-64v-256h-64zM320 -192v64h-64v64h128v-64h64v640h128v-640h-64v-64h-192z" />
    <glyph glyph-name="uni01CB" unicode="&#x1cb;" horiz-adv-x="640" 
d="M256 -128v64h64v-64h-64zM320 -192v64h128v512h128v-512h-64v-64h-192zM0 0v512h64v-64h64v-64h64v-64h64v-64h64v256h64v-512h-64v64h-64v64h-64v64h-64v64h-64v-256h-64zM448 448v64h128v-64h-128z" />
    <glyph glyph-name="uni01CC" unicode="&#x1cc;" horiz-adv-x="640" 
d="M256 -128v64h64v-64h-64zM0 0v384h320v-64h64v-320h-128v320h-128v-320h-128zM320 -192v64h128v512h128v-512h-64v-64h-192zM448 448v64h128v-64h-128z" />
    <glyph glyph-name="uni0374" unicode="&#x374;" horiz-adv-x="192" 
d="M0 320v128h64v64h64v-128h-64v-64h-64z" />
    <glyph glyph-name="uni0375" unicode="&#x375;" horiz-adv-x="192" 
d="M0 0v128h64v64h64v-128h-64v-64h-64z" />
    <glyph glyph-name="uni037A" unicode="&#x37a;" horiz-adv-x="192" 
d="M0 -128v128h64v-64h64v-64h-128z" />
    <glyph glyph-name="uni037B" unicode="&#x37b;" horiz-adv-x="384" 
d="M64 0v64h-64v64h128v-64h64v256h-64v-64h-128v64h64v64h192v-64h64v-256h-64v-64h-192z" />
    <glyph glyph-name="uni037C" unicode="&#x37c;" horiz-adv-x="384" 
d="M192 192v64h64v-64h-64zM64 0v64h-64v320h64v64h192v-64h64v-64h-128v64h-64v-320h64v64h128v-64h-64v-64h-192z" />
    <glyph glyph-name="uni037D" unicode="&#x37d;" horiz-adv-x="384" 
d="M64 192v64h64v-64h-64zM64 0v64h-64v64h128v-64h64v320h-64v-64h-128v64h64v64h192v-64h64v-320h-64v-64h-192z" />
    <glyph glyph-name="uni037E" unicode="&#x37e;" horiz-adv-x="192" 
d="M0 -128v64h64v-64h-64zM64 -64v64h-64v128h128v-192h-64zM0 256v128h128v-128h-128z" />
    <glyph glyph-name="tonos" unicode="&#x384;" horiz-adv-x="192" 
d="M0 320v128h128v-128h-128z" />
    <glyph glyph-name="dieresistonos" unicode="&#x385;" horiz-adv-x="384" 
d="M0 320v64h64v-64h-64zM256 320v64h64v-64h-64zM128 320v128h64v-128h-64z" />
    <glyph glyph-name="Alpha" unicode="&#x391;" 
d="M256 256v192h-128v-192h128zM0 0v448h64v64h256v-64h64v-448h-128v192h-128v-192h-128z" />
    <glyph glyph-name="Beta" unicode="&#x392;" 
d="M256 64v192h-128v-192h128zM256 320v128h-128v-128h128zM0 0v512h320v-64h64v-128h-64v-64h64v-192h-64v-64h-320z" />
    <glyph glyph-name="Gamma" unicode="&#x393;" horiz-adv-x="384" 
d="M0 0v512h320v-64h-192v-448h-128z" />
    <glyph glyph-name="uni0394" unicode="&#x394;" horiz-adv-x="576" 
d="M384 128v128h64v-128h-64zM320 256v128h64v-128h-64zM0 0v128h64v128h64v128h64v128h128v-128h-64v-128h-64v-128h-64v-64h320v64h64v-128h-512z" />
    <glyph glyph-name="Epsilon" unicode="&#x395;" horiz-adv-x="384" 
d="M0 0v512h320v-64h-192v-128h128v-64h-128v-192h192v-64h-320z" />
    <glyph glyph-name="Zeta" unicode="&#x396;" 
d="M0 0v192h64v64h64v64h64v64h64v64h-256v64h384v-192h-64v-64h-64v-64h-64v-64h-64v-64h256v-64h-384z" />
    <glyph glyph-name="Eta" unicode="&#x397;" 
d="M0 0v512h128v-256h128v256h128v-512h-128v192h-128v-192h-128z" />
    <glyph glyph-name="Theta" unicode="&#x398;" 
d="M256 64v192h-128v-192h128zM256 320v128h-128v-128h128zM64 0v64h-64v384h64v64h256v-64h64v-384h-64v-64h-256z" />
    <glyph glyph-name="Iota" unicode="&#x399;" horiz-adv-x="192" 
d="M0 0v512h128v-512h-128z" />
    <glyph glyph-name="Kappa" unicode="&#x39a;" horiz-adv-x="512" 
d="M0 0v512h128v-192h64v64h64v64h64v64h128v-64h-64v-64h-64v-64h-64v-128h64v-64h64v-64h64v-64h-128v64h-64v64h-64v64h-64v-192h-128z" />
    <glyph glyph-name="Lambda" unicode="&#x39b;" horiz-adv-x="640" 
d="M0 0v128h64v128h64v128h64v128h192v-128h64v-128h64v-128h64v-128h-128v128h-64v128h-64v128h-64v-128h-64v-128h-64v-128h-128z" />
    <glyph glyph-name="Mu" unicode="&#x39c;" horiz-adv-x="576" 
d="M0 0v512h64v-64h64v-64h64v-64h128v64h64v64h64v64h64v-512h-128v256h-64v-64h-64v-64h-64v64h-64v64h-64v-256h-64z" />
    <glyph glyph-name="Nu" unicode="&#x39d;" horiz-adv-x="512" 
d="M0 0v512h64v-64h64v-64h64v-64h64v-64h64v-64h64v320h64v-512h-128v64h-64v64h-64v64h-64v64h-64v-256h-64z" />
    <glyph glyph-name="Xi" unicode="&#x39e;" horiz-adv-x="384" 
d="M0 0v64h320v-64h-320zM64 192v64h192v-64h-192zM0 448v64h320v-64h-320z" />
    <glyph glyph-name="Omicron" unicode="&#x39f;" 
d="M256 64v384h-128v-384h128zM64 0v64h-64v384h64v64h256v-64h64v-384h-64v-64h-256z" />
    <glyph glyph-name="Pi" unicode="&#x3a0;" horiz-adv-x="512" 
d="M64 0v448h-64v64h448v-64h-64v-448h-128v448h-64v-448h-128z" />
    <glyph glyph-name="Rho" unicode="&#x3a1;" 
d="M256 256v192h-128v-192h128zM0 0v512h320v-64h64v-192h-64v-64h-192v-192h-128z" />
    <glyph glyph-name="Sigma" unicode="&#x3a3;" 
d="M0 0v64h64v64h64v64h64v64h-64v64h-64v64h-64v128h384v-64h-256v-64h64v-64h64v-64h64v-64h-64v-64h-64v-64h192v-64h-384z" />
    <glyph glyph-name="Tau" unicode="&#x3a4;" 
d="M128 0v448h-128v64h384v-64h-128v-448h-128z" />
    <glyph glyph-name="Upsilon" unicode="&#x3a5;" 
d="M128 0v384h128v-384h-128zM64 384v64h64v-64h-64zM256 384v64h64v-64h-64zM0 448v64h64v-64h-64zM320 448v64h64v-64h-64z" />
    <glyph glyph-name="Phi" unicode="&#x3a6;" 
d="M0 128v256h64v-256h-64zM320 128v256h64v-256h-64zM128 0v64h-64v64h64v256h-64v64h64v64h128v-64h64v-64h-64v-256h64v-64h-64v-64h-128z" />
    <glyph glyph-name="Chi" unicode="&#x3a7;" 
d="M0 0v192h64v64h-64v256h128v-256h128v256h128v-256h-64v-64h64v-192h-128v192h-128v-192h-128z" />
    <glyph glyph-name="Psi" unicode="&#x3a8;" 
d="M0 256v256h64v-256h-64zM128 0v192h-64v64h64v256h128v-256h64v-64h-64v-192h-128zM320 256v256h64v-256h-64z" />
    <glyph glyph-name="uni03A9" unicode="&#x3a9;" horiz-adv-x="512" 
d="M0 0v64h128v-64h-128zM320 0v64h128v-64h-128zM128 64v64h-64v64h-64v192h64v64h64v64h192v-64h64v-64h64v-192h-64v-64h-64v-64h-64v128h64v192h-64v64h-64v-64h-64v-192h64v-128h-64z" />
    <glyph glyph-name="alpha" unicode="&#x3b1;" 
d="M64 0v64h-64v256h64v64h192v-64h-128v-256h128v-64h-192zM320 0v64h-64v256h64v64h64v-128h-64v-128h64v-128h-64z" />
    <glyph glyph-name="beta" unicode="&#x3b2;" 
d="M256 64v128h-128v-128h128zM256 256v192h-128v-192h128zM0 -128v576h64v64h256v-64h64v-192h-64v-64h64v-128h-64v-64h-192v-128h-128z" />
    <glyph glyph-name="gamma" unicode="&#x3b3;" 
d="M128 -128v256h-64v64h-64v192h128v-192h128v192h128v-192h-64v-64h-64v-256h-128z" />
    <glyph glyph-name="delta" unicode="&#x3b4;" 
d="M256 64v256h-128v-256h128zM64 0v64h-64v256h64v64h-64v64h64v64h256v-64h-192v-64h192v-64h64v-256h-64v-64h-256z" />
    <glyph glyph-name="epsilon" unicode="&#x3b5;" horiz-adv-x="320" 
d="M64 0v64h-64v256h64v64h192v-64h-128v-64h128v-64h-128v-128h128v-64h-192z" />
    <glyph glyph-name="zeta" unicode="&#x3b6;" 
d="M128 -128v64h128v64h-192v64h-64v192h64v64h64v64h-128v64h256v64h128v-64h-64v-64h-64v-64h-64v-64h-64v-192h192v-64h64v-64h-64v-64h-192z" />
    <glyph glyph-name="eta" unicode="&#x3b7;" 
d="M256 -128v384h-128v-256h-128v448h128v-64h192v-64h64v-448h-128z" />
    <glyph glyph-name="theta" unicode="&#x3b8;" 
d="M256 64v64h-128v-64h128zM256 192v64h-128v-64h128zM64 0v64h-64v192h64v64h256v-64h64v-192h-64v-64h-256z" />
    <glyph glyph-name="iota" unicode="&#x3b9;" horiz-adv-x="384" 
d="M64 0v64h-64v320h128v-320h64v64h128v-64h-64v-64h-192z" />
    <glyph glyph-name="kappa" unicode="&#x3ba;" horiz-adv-x="384" 
d="M0 0v384h128v-128h64v64h64v64h64v-128h-64v-128h64v-128h-64v64h-64v64h-64v-128h-128z" />
    <glyph glyph-name="lambda" unicode="&#x3bb;" horiz-adv-x="576" 
d="M0 0v128h64v64h64v64h64v64h-64v64h-128v128h128v-64h64v-64h64v-64h64v-64h64v-64h64v-64h64v-128h-128v128h-64v64h-128v-64h-64v-128h-128z" />
    <glyph glyph-name="uni03BC" unicode="&#x3bc;" 
d="M0 -128v512h128v-320h128v320h128v-320h-64v-64h-192v-128h-128z" />
    <glyph glyph-name="nu" unicode="&#x3bd;" horiz-adv-x="384" 
d="M128 0v64h64v-64h-64zM64 64v64h-64v256h128v-320h-64zM192 64v320h128v-256h-64v-64h-64z" />
    <glyph glyph-name="xi" unicode="&#x3be;" horiz-adv-x="384" 
d="M128 -128v64h64v64h-128v64h-64v64h64v128h-64v64h64v128h-64v64h128v-64h64v64h128v-64h-64v-64h-64v-64h-64v-64h128v-64h-128v-128h128v-64h64v-64h-64v-64h-128z" />
    <glyph glyph-name="omicron" unicode="&#x3bf;" 
d="M256 64v256h-128v-256h128zM64 0v64h-64v256h64v64h256v-64h64v-256h-64v-64h-256z" />
    <glyph glyph-name="pi" unicode="&#x3c0;" horiz-adv-x="512" 
d="M64 0v320h-64v64h448v-64h-64v-320h-128v320h-64v-320h-128z" />
    <glyph glyph-name="rho" unicode="&#x3c1;" 
d="M256 64v256h-128v-256h128zM0 -128v448h64v64h256v-64h64v-256h-64v-64h-192v-128h-128z" />
    <glyph glyph-name="sigma1" unicode="&#x3c2;" 
d="M128 -128v64h128v64h-192v64h-64v192h64v64h64v64h256v-64h-192v-64h-64v-192h192v-64h64v-64h-64v-64h-192z" />
    <glyph glyph-name="sigma" unicode="&#x3c3;" horiz-adv-x="512" 
d="M256 64v256h-128v-256h128zM64 0v64h-64v256h64v64h384v-64h-64v-256h-64v-64h-256z" />
    <glyph glyph-name="tau" unicode="&#x3c4;" 
d="M128 0v320h-128v64h384v-64h-128v-320h-128z" />
    <glyph glyph-name="upsilon" unicode="&#x3c5;" 
d="M64 0v64h-64v320h128v-320h128v256h-64v64h128v-64h64v-256h-64v-64h-256z" />
    <glyph glyph-name="phi" unicode="&#x3c6;" horiz-adv-x="512" 
d="M192 64v256h-64v-256h64zM320 64v256h-64v-256h64zM192 -128v128h-128v64h-64v256h64v64h128v128h64v-128h128v-64h64v-256h-64v-64h-128v-128h-64z" />
    <glyph glyph-name="chi" unicode="&#x3c7;" horiz-adv-x="384" 
d="M0 0v128h64v128h-64v128h64v-64h64v-64h64v64h64v64h64v-128h-64v-128h64v-128h-64v64h-64v64h-64v-64h-64v-64h-64z" />
    <glyph glyph-name="psi" unicode="&#x3c8;" horiz-adv-x="512" 
d="M192 -128v128h-128v64h-64v320h128v-320h64v384h64v-384h64v320h128v-320h-64v-64h-128v-128h-64z" />
    <glyph glyph-name="omega" unicode="&#x3c9;" horiz-adv-x="512" 
d="M64 0v64h-64v256h64v64h64v-320h64v-64h-128zM192 64v320h64v-320h-64zM256 0v64h64v320h64v-64h64v-256h-64v-64h-128z" />
    <glyph glyph-name="uni0402" unicode="&#x402;" horiz-adv-x="576" 
d="M128 0v448h-128v64h384v-64h-128v-192h192v-64h64v-128h-64v-64h-128v64h64v128h-128v-192h-128z" />
    <glyph glyph-name="uni0403" unicode="&#x403;" horiz-adv-x="384" 
d="M0 0v512h320v-64h-192v-448h-128zM64 576v64h64v64h128v-64h-64v-64h-128z" />
    <glyph glyph-name="uni0404" unicode="&#x404;" 
d="M320 64v64h64v-64h-64zM320 384v64h64v-64h-64zM64 0v64h-64v384h64v64h256v-64h-192v-192h256v-64h-256v-128h192v-64h-256z" />
    <glyph glyph-name="uni0406" unicode="&#x406;" horiz-adv-x="320" 
d="M0 0v64h64v384h-64v64h256v-64h-64v-384h64v-64h-256z" />
    <glyph glyph-name="uni0407" unicode="&#x407;" horiz-adv-x="320" 
d="M0 0v64h64v384h-64v64h256v-64h-64v-384h64v-64h-256zM0 576v64h64v-64h-64zM192 576v64h64v-64h-64z" />
    <glyph glyph-name="uni0408" unicode="&#x408;" 
d="M64 0v64h-64v128h128v-128h128v448h128v-448h-64v-64h-256z" />
    <glyph glyph-name="uni0409" unicode="&#x409;" horiz-adv-x="768" 
d="M576 64v192h-128v-192h128zM0 0v128h64v384h384v-192h192v-64h64v-192h-64v-64h-320v448h-128v-320h-64v-128h-128z" />
    <glyph glyph-name="uni040A" unicode="&#x40a;" horiz-adv-x="704" 
d="M512 64v192h-128v-192h128zM0 0v512h128v-192h128v192h128v-192h192v-64h64v-192h-64v-64h-320v256h-128v-256h-128z" />
    <glyph glyph-name="uni040B" unicode="&#x40b;" horiz-adv-x="512" 
d="M64 0v448h-64v64h256v-64h-64v-192h192v-64h64v-192h-128v192h-128v-192h-128z" />
    <glyph glyph-name="uni040F" unicode="&#x40f;" 
d="M128 -128v128h-128v512h128v-448h128v448h128v-512h-128v-128h-128z" />
    <glyph glyph-name="uni0411" unicode="&#x411;" 
d="M256 64v192h-128v-192h128zM0 0v512h384v-64h-256v-128h192v-64h64v-192h-64v-64h-320z" />
    <glyph glyph-name="uni0412" unicode="&#x412;" 
d="M256 64v192h-128v-192h128zM256 320v128h-128v-128h128zM0 0v512h320v-64h64v-128h-64v-64h64v-192h-64v-64h-320z" />
    <glyph glyph-name="uni0413" unicode="&#x413;" 
d="M0 0v512h384v-64h-256v-448h-128z" />
    <glyph glyph-name="uni0414" unicode="&#x414;" horiz-adv-x="512" 
d="M320 128v320h-64v-128h-64v-192h128zM0 0v128h64v192h64v192h320v-512h-128v64h-192v-64h-128z" />
    <glyph glyph-name="uni0415" unicode="&#x415;" horiz-adv-x="320" 
d="M0 0v512h256v-64h-128v-192h128v-64h-128v-128h128v-64h-256z" />
    <glyph glyph-name="uni0416" unicode="&#x416;" horiz-adv-x="576" 
d="M0 0v64h64v64h64v64h64v64h-64v64h-64v64h-64v128h64v-64h64v-64h64v128h128v-128h64v64h64v64h64v-128h-64v-64h-64v-64h-64v-64h64v-64h64v-64h64v-64h-128v64h-64v-64h-128v64h-64v-64h-128z" />
    <glyph glyph-name="uni0417" unicode="&#x417;" 
d="M64 0v64h-64v64h128v-64h128v192h-64v64h64v128h-128v-64h-128v64h64v64h256v-64h64v-128h-64v-64h64v-192h-64v-64h-256z" />
    <glyph glyph-name="uni0418" unicode="&#x418;" 
d="M0 0v512h64v-256h64v64h64v64h64v64h64v64h64v-512h-64v256h-64v-64h-64v-64h-64v-64h-64v-64h-64z" />
    <glyph glyph-name="uni0419" unicode="&#x419;" 
d="M0 0v512h64v-256h64v64h64v64h64v64h64v64h64v-512h-64v256h-64v-64h-64v-64h-64v-64h-64v-64h-64zM128 512v64h128v-64h-128zM64 576v64h64v-64h-64zM256 576v64h64v-64h-64z" />
    <glyph glyph-name="uni041A" unicode="&#x41a;" 
d="M0 0v512h128v-192h64v64h64v64h64v64h128v-64h-64v-64h-64v-64h-64v-128h64v-64h64v-64h64v-64h-128v64h-64v64h-64v64h-64v-192h-128z" />
    <glyph glyph-name="uni041B" unicode="&#x41b;" horiz-adv-x="512" 
d="M0 0v128h64v320h384v-448h-128v384h-128v-320h-64v-64h-128z" />
    <glyph glyph-name="uni041C" unicode="&#x41c;" horiz-adv-x="576" 
d="M0 0v512h64v-64h64v-64h64v-64h64v64h64v64h64v64h128v-512h-128v256h-64v-64h-64v-64h-64v64h-64v64h-64v-256h-64z" />
    <glyph glyph-name="uni041D" unicode="&#x41d;" 
d="M0 0v512h128v-256h128v256h128v-512h-128v192h-128v-192h-128z" />
    <glyph glyph-name="uni041E" unicode="&#x41e;" 
d="M256 64v384h-128v-384h128zM64 0v64h-64v384h64v64h256v-64h64v-384h-64v-64h-256z" />
    <glyph glyph-name="uni041F" unicode="&#x41f;" 
d="M0 0v512h384v-512h-128v448h-128v-448h-128z" />
    <glyph glyph-name="uni0420" unicode="&#x420;" 
d="M256 320v128h-128v-128h128zM0 0v512h320v-64h64v-128h-64v-64h-192v-256h-128z" />
    <glyph glyph-name="uni0421" unicode="&#x421;" 
d="M64 0v64h-64v384h64v64h256v-64h64v-64h-128v64h-128v-384h128v64h128v-64h-64v-64h-256z" />
    <glyph glyph-name="uni0422" unicode="&#x422;" 
d="M128 0v448h-128v64h384v-64h-128v-448h-128z" />
    <glyph glyph-name="emdash" unicode="&#x2014;" horiz-adv-x="384" 
d="M0 192v64h320v-64h-320z" />
    <glyph glyph-name="quoteleft" unicode="&#x2018;" horiz-adv-x="192" 
d="M64 256v64h64v-64h-64zM0 320v192h128v-128h-64v-64h-64z" />
    <glyph glyph-name="quoteright" unicode="&#x2019;" horiz-adv-x="192" 
d="M0 256v64h64v-64h-64zM64 320v64h-64v128h128v-192h-64z" />
    <glyph glyph-name="quotesinglbase" unicode="&#x201a;" horiz-adv-x="192" 
d="M0 -128v64h64v-64h-64zM64 -64v64h-64v128h128v-192h-64z" />
    <glyph glyph-name="quotereversed" unicode="&#x201b;" horiz-adv-x="192" 
d="M64 256v64h64v-64h-64zM0 320v192h128v-128h-64v-64h-64z" />
    <glyph glyph-name="quotedblleft" unicode="&#x201c;" horiz-adv-x="384" 
d="M64 256v64h64v-64h-64zM256 256v64h64v-64h-64zM0 320v192h128v-128h-64v-64h-64zM192 320v192h128v-128h-64v-64h-64z" />
    <glyph glyph-name="quotedblright" unicode="&#x201d;" horiz-adv-x="384" 
d="M0 256v64h64v-64h-64zM192 256v64h64v-64h-64zM64 320v64h-64v128h128v-192h-64zM256 320v64h-64v128h128v-192h-64z" />
    <glyph glyph-name="quotedblbase" unicode="&#x201e;" horiz-adv-x="384" 
d="M0 -128v64h64v-64h-64zM192 -128v64h64v-64h-64zM64 -64v64h-64v128h128v-192h-64zM256 -64v64h-64v128h128v-192h-64z" />
    <glyph glyph-name="dagger" unicode="&#x2020;" horiz-adv-x="320" 
d="M64 0v320h-64v64h64v128h128v-128h64v-64h-64v-320h-128z" />
    <glyph glyph-name="bullet" unicode="&#x2022;" horiz-adv-x="320" 
d="M64 128v64h-64v128h64v64h128v-64h64v-128h-64v-64h-128z" />
    <glyph glyph-name="ellipsis" unicode="&#x2026;" horiz-adv-x="576" 
d="M0 0v128h128v-128h-128zM192 0v128h128v-128h-128zM384 0v128h128v-128h-128z" />
    <glyph glyph-name="guilsinglleft" unicode="&#x2039;" horiz-adv-x="256" 
d="M128 64v64h64v-64h-64zM64 128v64h64v-64h-64zM0 192v64h64v-64h-64zM64 256v64h64v-64h-64zM128 320v64h64v-64h-64z" />
    <glyph glyph-name="guilsinglright" unicode="&#x203a;" horiz-adv-x="256" 
d="M0 64v64h64v-64h-64zM64 128v64h64v-64h-64zM128 192v64h64v-64h-64zM64 256v64h64v-64h-64zM0 320v64h64v-64h-64z" />
    <glyph glyph-name="Euro" unicode="&#x20ac;" horiz-adv-x="512" 
d="M384 64v64h64v-64h-64zM384 384v64h64v-64h-64zM128 0v64h-64v128h-64v64h64v64h-64v64h64v64h64v64h256v-64h-192v-64h128v-64h-128v-64h128v-64h-128v-128h192v-64h-256z" />
    <glyph glyph-name="trademark" unicode="&#x2122;" horiz-adv-x="640" 
d="M512 320v128h64v-128h-64zM64 320v128h-64v64h192v-64h-64v-128h-64zM256 320v192h256v-64h-64v-128h-64v128h-64v-128h-64z" />
    <glyph glyph-name="uniFB01" unicode="&#xfb01;" 
d="M256 384v64h128v-64h-128zM64 0v192h-64v64h64v192h64v64h128v-64h-64v-192h64v64h128v-320h-128v192h-64v-192h-128z" />
    <glyph glyph-name="uniFB02" unicode="&#xfb02;" horiz-adv-x="512" 
d="M64 0v192h-64v64h64v192h64v64h320v-512h-128v448h-128v-192h64v-64h-64v-192h-128z" />
  </font>
</defs>
</svg>
