<?xml version="1.0" encoding="utf-8"?>
<!-- Generator: Adobe Illustrator 19.0.0, SVG Export Plug-In . SVG Version: 6.00 Build 0)  -->
<svg version="1.2" baseProfile="tiny" id="Layer_1" xmlns="http://www.w3.org/2000/svg" xmlns:xlink="http://www.w3.org/1999/xlink"
	 x="0px" y="0px" viewBox="0 0 800 800" xml:space="preserve">
<g id="XMLID_2_">
	<path id="XMLID_331_" fill="#060608" d="M156.5,424.3c0-15.7,0-31.4,0-47c0.9-0.8,2.1-0.7,3.2-0.8c3.3,0,6.5,0,9.8,0
		c1.8,0,2.6-0.7,2.6-2.6c0-3.2-0.1-6.4,0-9.6c0.1-3.1,0.6-3.6,3.6-3.7c3.2-0.1,6.4-0.1,9.6,0c1.8,0,2.6-0.7,2.6-2.5
		c0-2.9-0.1-5.7,0-8.6c0.1-3.1,0.6-3.7,3.7-3.7c9.4,0,18.8-0.1,28.3,0c5.3-0.1,10.6-0.1,15.9,0c9.5-0.1,19-0.1,28.5,0
		c2.8,0,3.3,0.6,3.4,3.4c0,2.8,0,5.6,0,8.4c0,0.9-0.2,1.9,0.7,2.6c3.1,0.9,6.2,0.3,9.3,0.4c5.9,0.1,5.9,0,5.9,6c0,2.4,0,4.8,0,7.2
		c0,2.8,0.3,3.1,3.2,3.1c13.1,0,26.2,0,39.3,0c0.2,0,0.3,0,0.5,0c1.8,0.1,2.7-0.7,2.5-2.5c-0.1-0.8-0.1-1.6,0-2.4
		c0.3-3.5-1.5-7.9,0.9-10.4c2.4-2.5,6.9-0.6,10.4-1c0.8-0.1,1.6-0.1,2.4,0c2,0.1,2.7-0.8,2.7-2.7c-0.1-2.8,0-5.6,0-8.4
		c0-1.1-0.1-2.3,0.7-3.2c0.9-0.6,2-0.5,3-0.5c18.5-0.1,36.9-0.1,55.4-0.1c1.2,0,2.4-0.1,3.5,0.5c0.9,0.9,0.8,2,0.8,3.1
		c0,2.7,0,5.4,0,8.1c0,3,0.1,3.1,3.1,3.1c2.9,0,5.9,0,8.8,0c1.1,0,2.2-0.1,3.2,0.6c0.8,0.9,0.7,2.1,0.7,3.2c0,3.3,0.1,6.5,0,9.8
		c0,1.9,0.6,2.8,2.6,2.7c3.1-0.1,6.2-0.1,9.3,0c1.7,0,2.4-0.7,2.4-2.4c0-3.4,0-6.7,0-10.1c0-1.3,0-2.6,1.2-3.4c1-0.5,2-0.4,3.1-0.4
		c8.1,0,16.1,0,24.2,0c1.2,0,2.4-0.1,3.5,0.7c0.8,0.9,0.6,1.9,0.6,3c0,3.4,0.1,6.7,0,10.1c0,2,0.8,2.7,2.7,2.7c3.2-0.1,6.4,0,9.6,0
		c3,0,3.5,0.5,3.5,3.5c0,0.8,0,1.6,0,2.4c0,27.8,0,55.5,0,83.3c0,1,0,1.9,0,2.9c-0.1,2.3-0.6,2.8-2.9,2.9c-0.8,0-1.6,0-2.4,0
		c-3.4,0.4-7.7-1.6-9.9,0.9c-2.1,2.3-0.4,6.4-0.7,9.8c-0.1,1.5,0.2,3-0.3,4.5c-0.7,1.2-1.8,1.1-3,1.2c-2,0.1-4,0-6,0
		c-26.6,0-53.3,0-79.9,0c-6.4,0-6.4,0-6.4-6.5c0-2.3,0-4.6,0-7c0-2.5-0.3-2.8-2.8-2.8c-3.1-0.1-6.2,0-9.4,0
		c-3.1-0.1-3.6-0.6-3.7-3.7c-0.1-3,0-5.9,0-8.9c0-3-0.3-3.2-3.3-3.2c-2.5,0-5,0-7.4,0c-3.5-0.1-4.1-0.6-4.1-4c0-7.6,0-15.2,0-22.8
		c0-3.8-0.1-3.9-3.9-3.9c-2.8,0-5.6,0-8.4,0c-3.2-0.1-4-0.8-4-4c-0.1-7.8,0-15.5,0-23.3c0-3.8-0.1-3.9-3.9-3.9
		c-3.8,0-7.7,0.1-11.5-0.1c-3.6,0.1-7.1,0-10.7,0c-1,0-2.1-0.1-3,0.5c-0.9,0.8-0.6,1.9-0.6,2.9c0,7.9,0,15.8,0,23.7
		c0,3.2-0.4,3.5-3.6,3.6c-3.2,0-6.4,0.1-9.6,0c-2-0.1-2.7,0.7-2.7,2.7c0,8.1,0.2,16.1,0.1,24.2c0,1.3,0.2,2.6-0.6,3.7
		c-0.9,0.8-2.1,0.7-3.2,0.7c-3.2,0-6.4,0.1-9.6,0c-1.8,0-2.6,0.7-2.5,2.5c0.1,3.1,0,6.2,0,9.3c0,1.1,0.1,2.2-0.6,3.3
		c-0.8,0.8-1.9,0.6-2.9,0.6c-3.2,0-6.3,0-9.5,0c-0.9,0-1.9-0.2-2.6,0.8c-0.6,2.9-0.2,5.7-0.3,8.6c0,1.1,0,2.2,0,3.4
		c-0.1,2.8-0.9,3.5-3.6,3.6c-3.4,0.1-6.9,0-10.3,0c-6,0-12,0.1-18-0.1c-4.4,0.1-8.8,0.1-13.2,0c-2.8,0-3.4-0.6-3.4-3.4
		c-0.1-3.4,0-6.7-0.1-10.1c-0.1-2.4-0.4-2.7-2.8-2.8c-2.7-0.1-5.4,0-8.1,0c-3.9,0-4.3-0.4-4.4-4.5c0-3-0.1-5.9,0-8.9
		c0-1.9-0.7-2.6-2.6-2.5c-3,0.1-6.1,0-9.1,0c-3.7,0-4.2-0.5-4.2-4.1c0-7.7,0-15.5,0-23.3c0-3.7-0.1-3.8-3.7-3.8c-3,0-5.9,0-8.9,0
		C158.4,425.1,157.3,425.1,156.5,424.3z"/>
	<path id="XMLID_324_" fill="#10070A" d="M329.8,48.5c0,5,0,9.9,0,14.9c-0.7,0.3-1.4,0.2-2.1,0.2c-8.8,0-17.6,0-26.4,0
		c-0.2,0-0.5,0-0.7,0c-1.7,0-1.7,0-1.8-1.7c0-2.8,0-5.6,0-8.4c0-1.7-0.3-3.3,0.2-5C309.3,48.5,319.5,48.5,329.8,48.5z"/>
	<path id="XMLID_323_" fill="#11080B" d="M172.8,236.6c0,4.5,0,8.9,0,13.4c0,1.3-0.4,1.6-1.6,1.6c-4.9-0.1-9.9,0-14.8,0
		c0-5,0-9.9,0-14.9C161.9,236.4,167.4,236.5,172.8,236.6z"/>
	<path id="XMLID_322_" fill="#10070A" d="M392.7,63.6c-4.6,0-9.2,0-13.9-0.1c-2,0-2,0-2-1.9c0-4.4,0-8.8,0-13.2c5.3,0,10.6,0,15.8,0
		c0.5,1,0.2,2,0.2,3C392.8,55.6,393.2,59.6,392.7,63.6z"/>
	<path id="XMLID_321_" fill="#C39685" d="M392.6,722.9c-21,0-41.9,0-62.9,0c0-0.2-0.1-0.3-0.1-0.5c0.2-0.2,0.5-0.4,0.8-0.5
		c1.1-0.3,2.2-0.2,3.3-0.2c18.3,0,36.5,0,54.8,0c1.3,0,2.6-0.2,3.8,0.4C392.7,722.3,392.8,722.5,392.6,722.9z"/>
	<path id="XMLID_320_" fill="#5C5B5D" d="M627.3,346.6c0.2,0,0.3,0,0.5,0c0,15.7,0,31.4,0,47c-0.2,0-0.3-0.1-0.5-0.1
		c-0.7-0.8-0.7-1.8-0.7-2.7c0-13.8,0-27.7,0-41.5c0-0.6,0-1.3,0.2-1.9C627,347.1,627.1,346.8,627.3,346.6z"/>
	<path id="XMLID_319_" fill="#9D7F78" d="M392.6,722.9c0-0.1,0-0.3,0-0.4c0.2-0.2,0.4-0.4,0.7-0.5c3.4-0.5,6.9-0.2,10.3-0.2
		c3.1-0.1,3.1-0.1,3.2-3.3c0.1-3.7-0.3-7.5,0.2-11.2c0.1-0.3,0.3-0.5,0.5-0.7c0.1,0.1,0.3,0.1,0.4,0.2c0,5.4,0,10.8,0,16.2
		C402.9,722.9,397.8,722.9,392.6,722.9z"/>
	<path id="XMLID_318_" fill="#9C7E77" d="M329.8,722.4c0,0.1,0,0.3,0,0.4c-5.3,0-10.6,0-15.8,0c0-0.2,0-0.3,0-0.5
		c0.1-0.1,0.2-0.3,0.4-0.3c5-0.7,10.1-0.8,15.1,0C329.6,722.1,329.7,722.3,329.8,722.4z"/>
	<path id="XMLID_317_" fill="#C77A66" d="M236.2,597.5c-0.9-0.7-0.4-1.6-0.4-2.4c0-8.9,0-17.8,0-26.7c0-1,0-1.9,0-2.9
		c-0.8-0.9-0.7-2.1-0.7-3.2c0-2.9,0-5.8,0-8.6c0-1.7-0.7-2.4-2.4-2.4c-3,0.1-6.1,0-9.1,0c-1.6,0-2.3,0.7-2.3,2.3c0,2.9,0,5.8,0,8.6
		c0,1.1,0.1,2.3-0.7,3.2c-0.9-0.5-0.5-1.4-0.5-2.1c0-5.3,0-10.5,0-15.8c0-19,0-38,0-57.1c0-0.9,0-1.8,0.1-2.6c2,0,4-0.1,6-0.1
		c7.3,0,14.7,0,22,0c3.3,0,3,0.4,3-3.1c0-4.2,0.1-8.4,0.1-12.7c4.9-0.4,9.9-0.1,14.8-0.2c1,0,1.4,0.5,1.6,1.4
		c0.2,1.1,0.2,2.2,0.2,3.3c0,17.2,0,34.3,0,51.5c0,0.7,0,1.4,0,2.2c0,3.9,0,3.9,4.1,3.9c2.6,0,5.3,0,7.9,0c1,0,2.1,0,3,0.6
		c0.9,0.9,0.8,2,0.8,3.1c0,3.2,0.1,6.4,0,9.6c0,1.8,0.6,2.6,2.5,2.6c3.3-0.1,6.5-0.1,9.8,0c1.9,0,2.6-0.8,2.5-2.6
		c-0.1-3.1,0-6.2,0-9.3c0-1.1-0.1-2.3,0.6-3.2c0.9-0.8,2.1-0.7,3.2-0.7c2.6,0,5.1,0,7.7,0c3.1,0,3.3-0.2,3.4-3.5
		c0-4.1-0.1-8.2,0-12.2c-0.1-9.3,0-18.7,0-28c0-0.9,0-1.8,0.5-2.5c0.9-0.9,2.1-0.8,3.2-0.8c3.2,0,6.4-0.1,9.6,0
		c1.8,0,2.6-0.7,2.6-2.5c0-8.6,0-17.1,0-25.7c0-1.9-0.8-2.5-2.6-2.5c-3,0-5.9,0-8.9,0c-1.1,0-2.2,0.1-3.3-0.4
		c-0.3-0.1-0.5-0.4-0.7-0.6c-0.5-1.1-0.4-2.3-0.4-3.5c0-18.6,0-37.2,0-55.7c0-0.8-0.1-1.6,0.3-2.3c4.8,0,9.6-0.1,14.4-0.1
		c1.9,0,2,0,2,2c0,8.4,0,16.8,0,25.2c0,3.9,0,3.9,4,3.9c3.4,0,6.7,0,10.1,0c2,0,2,0,2,2c0,8.6,0,17.1,0,25.7c0,0.6,0.1,1.1,0,1.7
		c-0.1,1.3,0.5,1.6,1.7,1.6c3.6-0.1,7.2,0,10.8,0c2.6,0,2.5-0.2,2.5,2.4c0,3.8,0,7.7,0,11.5c0,2,0,2,2,2c4.1,0,8.2,0,12.2,0
		c1.7,0,1.7,0.1,1.7,1.8c0,4.2,0,8.3,0,12.5c0,1.8,0,1.9,1.9,1.9c7.4,0,14.7,0,22.1,0c22.5,0,44.9,0,67.4,0c0.9,0,1.9,0.4,2.7-0.4
		c0.5-4.4,0.2-8.8,0.2-13.1c0-2,0.6-2.6,2.6-2.5c4.4,0.2,8.8-0.2,13.2,0.2c0.8,1,0.7,2.1,0.7,3.2c0,24.1,0,48.1,0,72.2
		c0,3.6-0.5,4.1-4.2,4.1c-2.9,0-5.8,0-8.6,0c-2.6,0-2.9,0.3-3,2.9c-0.1,3.5,0,7,0,10.6c0,14.1,0,28.1,0,42.2c0,0.9,0,1.8,0,2.6
		c-0.1,2.9-0.7,3.5-3.6,3.6c-3,0.1-6.1,0-9.1,0c-2.9,0-3.1,0.3-3.1,3.2c0,2.6,0,5.3,0,7.9c0,4.3-0.4,4.7-4.6,4.7c-2.6,0-5.1,0-7.7,0
		c-2.7,0.1-3,0.4-3,3.1c0,7.8,0,15.7,0,23.5c0,4.1-0.4,4.6-4.5,4.6c-2.9,0-5.8,0-8.6,0c-1.9,0-2.8,0.7-2.7,2.7c0.1,3,0,6.1,0,9.1
		c0,1.1,0.1,2.3-0.5,3.3c-0.9,0.9-2.1,0.7-3.2,0.8c-2.9,0-5.9,0-8.9,0c-3.1,0-3.3,0.1-3.3,3.2c0,3.1,0,6.2,0,9.3
		c0,1.2,0,2.4-1.1,3.3c-3,1-6.2,0.4-9.2,0.5c-4.8,0.1-4.4-0.2-4.6,4.6c-0.1,3.1,0.6,6.2-0.5,9.2c-0.9,1.1-2.1,1.1-3.3,1.1
		c-19.2,0-38.4,0-57.6,0c-0.7,0-1.4,0-2.1-0.3c-0.3-0.1-0.5-0.3-0.7-0.5c-1-2.9-0.4-5.9-0.5-8.8c-0.1-5.9,0.5-5.2-5.3-5.3
		c-3.2-0.1-6.4,0.4-9.6-0.3c-0.3-0.1-0.5-0.3-0.6-0.6c-0.8-2.7-0.3-5.6-0.4-8.3c-0.1-1,0-2.1,0-3.1c0-3.9,0-3.9-4-3.9
		c-2.4,0-4.8,0-7.2,0c-1,0-2.1,0.1-3-0.6c-0.7-1-0.6-2.1-0.6-3.2c0-3.1-0.1-6.2,0-9.3c0-1.9-0.6-2.8-2.6-2.7c-3,0.1-6.1,0.1-9.1,0
		c-1.9-0.1-2.7,0.7-2.7,2.6c0.1,4.1,0.1,8.3,0,12.4c0.1,4.1,0,8.3,0,12.4c0,2.5,0.3,2.7,2.7,2.7c2.9,0,5.7,0,8.6,0
		c1,0,2.1-0.1,3,0.4c0.3,0.2,0.4,0.4,0.2,0.7c-4.6,0-9.1,0-13.7,0c-2.1,0-2.1,0-2.1-2.1c0-8.8,0-17.6,0-26.4c0-1.2,0-2.4,0-3.6
		c-0.7-0.9-0.8-1.9-0.8-3c0-8.2,0-16.5,0-24.7c0-3.3,0.5-3.7,3.8-3.8c3.4,0,6.7,0,10.1,0c2.9,0,3.4,0.5,3.4,3.3c0.1,3.1,0,6.2,0,9.4
		c0,0.9-0.1,1.9,0.7,2.6c1.1,0.6,2.4,0.4,3.5,0.4c14,0.1,28-0.1,42,0.1c4-0.1,8,0,11.9-0.1c2.5,0,2.7-0.2,2.7-2.8c0-3,0-6.1,0-9.1
		c0-3.5,0.5-3.9,3.8-3.9c4.1,0,8.3,0.1,12.4-0.1c3.9-0.9,7.9-0.3,11.9-0.5c1.2-0.1,2.4,0.2,3.5-0.5c0.9-0.8,0.6-1.9,0.6-2.9
		c0-7.9,0-15.8,0-23.7c0-3.1,0.5-3.6,3.6-3.6c2.9-0.1,5.7-0.1,8.6,0c1.8,0,2.6-0.7,2.6-2.5c-0.1-3.1,0-6.2,0-9.3
		c0-1.1-0.1-2.2,0.6-3.3c0.9-0.8,2.1-0.7,3.2-0.7c3.2,0,6.4-0.1,9.6,0c1.8,0,2.6-0.7,2.5-2.5c-0.1-3.3-0.1-6.5,0-9.8
		c0-1.9-0.8-2.5-2.6-2.5c-4.2,0-8.5,0.1-12.7,0c-1,0.1-1.9,0.1-2.9,0.1c-44.2,0-88.4,0-132.6,0c-4.7,0-4.7,0-4.7,4.8
		c0,7.6,0,15.2,0,22.8c0,1.3,0.2,2.6-0.6,3.7c-0.9,0.9-2,0.8-3.1,0.8c-2.7,0-5.4,0-8.1,0c-4,0-4,0-4,3.9c0,2.4,0,4.8,0,7.2
		c0,1,0.1,2.1-0.7,2.9c-0.7-0.6-0.3-1.5-0.4-2.2c-0.1-4.2-0.1-8.4-0.1-12.5c-0.5-0.9-0.3-1.9-0.3-2.8c0-8.3,0-16.6,0-25
		c0-3.4-0.2-3.6-3.5-3.6c-2.3,0-4.6,0-7,0c-2.6,0-2.9,0.3-2.9,2.9c0,8.2,0,16.3,0,24.5C236.9,594.9,237.2,596.3,236.2,597.5z"/>
	<path id="XMLID_316_" fill="#C77A66" d="M267.4,361.4c-0.9-0.4-0.5-1.2-0.5-1.9c0-3.6,0-7.2,0-10.8c0-2.2,0-2.2-2.3-2.2
		c-8.6,0-17.3,0-25.9,0c-1,0-1.9-0.1-2.9-0.1c-0.8-0.6-0.9-1.5-0.9-2.4c0-9.7-0.2-19.4,0.1-29.1c0-0.3,0.1-0.6,0.2-0.9
		c0.6-3.7,0.2-7.5,0.2-11.2c0.1-3.7,0.4-4,4.2-4.1c2.6,0,5.3,0,7.9,0c2.5,0,2.7-0.3,2.7-2.8c0-8.2,0-16.4,0-24.6
		c0-1.2-0.1-2.4,0.3-3.6c0.1-0.3,0.3-0.5,0.6-0.7c3.1-0.9,6.3-0.4,9.5-0.4c6.2-0.1,5.4,0.6,5.5-5.5c0.1-3.1-0.4-6.2,0.3-9.3
		c0.1-0.3,0.3-0.5,0.6-0.7c3.5-0.9,7-0.3,10.5-0.4c4.5-0.1,4.4,0,4.5-4.4c0.1-3.2-0.4-6.4,0.4-9.5c0.2-0.3,0.4-0.5,0.7-0.6
		c1-0.4,2-0.4,3.1-0.4c34.9,0,69.9,0,104.8,0c0.6,0,1.1,0,1.7,0.1c14.8-0.1,29.7,0,44.5,0c0.9,0,1.8,0,2.5,0.5
		c0.9,0.9,0.8,2.1,0.8,3.2c0,2.6,0,5.3,0,7.9c0,3.1,0.1,3.3,3.2,3.3c3,0,5.9-0.1,8.9,0c2.7,0.1,3.2,0.6,3.3,3.3c0.1,3,0,5.9,0,8.9
		c0,3.6,0.1,3.6,3.6,3.7c2.9,0,5.7,0,8.6,0c1.2,0,2.4,0.1,3.2,1.2c0.6,1.1,0.5,2.3,0.5,3.5c0,13.2,0,26.3,0,39.5
		c0,1.2,0.1,2.4-0.5,3.5c-0.9,0.9-2,0.8-3.1,0.8c-3.3,0-6.5,0-9.8,0c-1.7,0-2.4,0.7-2.4,2.4c0.1,3.3,0.1,6.7,0,10
		c0,1.8,0.7,2.4,2.4,2.4c3.2,0,6.4,0,9.6,0c1.1,0,2.2-0.1,3.2,0.7c0.6,0.7,0.6,1.6,0.7,2.5c0,8.7,0,17.4,0,26c0,0.6-0.1,1.1-0.2,1.6
		c-0.1,0.3-0.3,0.6-0.6,0.7c-8.2,0-16.5-0.1-24.7-0.1c-2,0-4,0-6,0c-0.8-0.8-0.6-1.8-0.6-2.7c0-2.9,0-5.9,0-8.8
		c0-0.9,0.1-1.8-0.7-2.4c-3-0.7-6-0.2-9-0.3c-2-0.1-4,0-6-0.1c-4.4,0.1-8.9,0-13.3,0c-0.9,0-1.7-0.1-2.5-0.6c-1,0-2.1-0.1-3.1-0.1
		c-19.6,0-39.2,0-58.8,0c0.1-1.1,1-1.1,1.8-1.2c1-0.2,2.1,0,3.1-0.1c2.9-0.2,6.6,1.3,8.5-0.7c1.9-2,0.4-5.7,0.7-8.6
		c0-0.6,0-1.3,0-1.9c0.1-3.6,0.5-4.1,4.2-4.1c2.4,0,4.8,0,7.2,0c4.4,0,4.4,0,4.4-4.5c0-2.2,0-4.5,0-6.7c0-4.8,0.3-5.1,5-5.1
		c7.6,0,15.2,0,22.8,0c3.3,0,3.4-0.1,3.4-3.3c0-2.6,0-5.1,0-7.7c0-1.6-0.7-2.3-2.3-2.3c-2.8,0-5.6,0-8.4,0c-3.6-0.1-4.1-0.5-4.1-4.2
		c0-2.9,0-5.8,0-8.6c0-2.6-0.3-2.9-2.9-2.9c-3.3-0.1-6.6,0-9.8,0c-2.9-0.1-3.5-0.6-3.5-3.6c-0.1-8.2,0-16.5,0-24.7
		c0-3.7-0.1-3.8-3.7-3.8c-18,0-36,0-54,0c-3.5,0-3.6,0.1-3.6,3.6c0,3,0.1,5.9,0,8.9c-0.1,2.6-0.7,3.2-3.3,3.3c-2.6,0.1-5.1,0-7.7,0
		c-3.7,0-3.8,0.1-3.8,4c0,9.4,0,18.9,0,28.3c0,8.7,0,17.4,0,26.2c0,4.3-0.6,4.9-4.8,4.9c-1.4,0-2.9,0-4.3,0c-7.2,0-7.2,0-7.2,7.1
		c0,1.7,0,3.4,0,5c-0.1,3.1-0.6,3.7-3.6,3.7c-2.8,0.1-5.6,0-8.4,0c-3.1,0-3.3,0.2-3.3,3.2c0,2.6,0,5.3,0,7.9
		C268.1,359.5,268.1,360.6,267.4,361.4z"/>
	<path id="XMLID_315_" fill="#D98D80" d="M267.4,361.4c0-4.3,0-8.6,0-13c0-1.8,0.1-1.9,1.9-1.9c3.8,0,7.5,0,11.3,0
		c2.1,0,2.2,0,2.2-2.1c0-3.7,0-7.4,0-11c0-2.7,0-2.7,2.8-2.7c3.6,0,7.2,0,10.8,0c2.6,0,2.7-0.1,2.7-2.7c0-19.1,0-38.2,0-57.3
		c0-3.6-0.3-3.3,3.4-3.3c3.2,0,6.4,0,9.6,0c1.8,0,1.9-0.1,1.9-1.9c0-3.9,0-7.8,0-11.8c0-2.1,0-2.2,2.1-2.2c19.5,0,39,0,58.5,0
		c2.2,0,2.2,0,2.2,2.3c0,8.9,0,17.8,0,26.6c0,0.5,0,1,0,1.4c0.1,1.7,0.1,1.7,1.8,1.8c3.8,0,7.7,0,11.5,0c3.2,0,3-0.2,3,3
		c0,3.6,0,7.2,0,10.8c0,2,0,2,2,2c3.6,0,7.2,0,10.8,0c2,0,2.1,0,2.1,2c0,3.6,0,7.2,0,10.8c0,2.1,0,2.1-2.2,2.1c-8.5,0-17,0-25.4,0
		c-0.4,0-0.8,0-1.2,0c-2.4,0-2.4,0-2.4,2.4c0,4,0,8,0,12c0,1.9-0.1,1.9-1.9,1.9c-3.9,0-7.8,0-11.8,0c-2.1,0-2.2,0-2.2,2.1
		c0,3.7,0,7.4,0,11c0,2.2,0,2.2-2.3,2.2c-3.4,0-6.9,0-10.3,0c-0.8,0-1.6-0.3-2.2,0.5c-0.4,3.4-0.1,6.9-0.2,10.3
		c-0.1,1.5,0.7,3.4-0.4,4.4c-0.9,0.9-2.8,0.3-4.2,0.3c-3.3,0-6.6,0.1-9.8,0c-1.3,0-1.6,0.4-1.6,1.7c0.1,4.2,0,8.3,0,12.5
		c0,2,0,2-2,2c-14.3,0-28.6,0-43,0c-2.1,0-2.1,0-2.1-2.1c0-4.1,0-8.2,0-12.2c0-1.7,0-1.7-1.7-1.7
		C276.5,361.5,271.9,361.5,267.4,361.4z"/>
	<path id="XMLID_314_" fill="#6A3E33" d="M282.7,534.7c-4.3,0-8.6,0-12.9,0c-3.1,0-2.9,0.2-2.9-2.8c0-7.6,0-15.2,0-22.8
		c0-11.1,0-22.2,0-33.3c0-0.3,0-0.6,0-1c0-3.2,0.3-3-2.9-3c-4.3,0-8.6,0-12.9,0c0.6-0.8,1.5-0.4,2.2-0.4c4.5,0,9,0,13.6,0
		c0.6-0.5,1.3-0.7,2-0.7c4-0.1,8-0.1,12,0c0.9,0,1.8,0.2,2.3,1.1c0.5,1.1,0.4,2.3,0.4,3.5c-0.1,18.8-0.1,37.5-0.1,56.3
		c0,1,0.1,1.9-0.3,2.8C282.9,534.5,282.8,534.6,282.7,534.7z"/>
	<path id="XMLID_313_" fill="#D98D80" d="M313.5,393.7c0.5,0.8,0.5,1.7,0.5,2.5c0,19.8,0,39.6,0,59.3c-0.3,0.4-0.8,0.6-1.3,0.6
		c-4.4,0.1-8.9,0.5-13.3-0.2c-0.3-0.1-0.5-0.4-0.7-0.7c-0.3-0.6-0.3-1.2-0.3-1.9c0-8.9-0.2-17.8-0.1-26.7c0-0.6,0-1.3,0.3-1.9
		c0.4-0.9,0.3-1.9,0.3-2.8c0-8.6,0-17.1,0-25.7c0-0.8-0.3-1.7,0.3-2.6C303.9,393.5,308.7,393.5,313.5,393.7z"/>
	<path id="XMLID_312_" fill="#512927" d="M235.7,314.4c0,9.6,0,19.1,0,28.7c0,1.1,0,2.2,0,3.3c-5.4,0.2-10.7,0.1-16.1,0
		c0.1-1,0.1-1.9,0.1-2.9c0-19.1,0-38.2,0-57.3c0-0.9,0-1.8,0-2.6c0.3-0.2,0.6-0.1,0.8,0.2c0.6,1.1,0.5,2.3,0.5,3.5
		c0,7.7,0,15.4,0,23c0,3,0.2,3.1,3.1,3.2c2.9,0,5.8,0,8.6,0C233.8,313.7,234.9,313.6,235.7,314.4z"/>
	<path id="XMLID_311_" fill="#A56248" d="M282.8,471.9c-0.7-0.8-1.6-0.5-2.5-0.5c-4.5,0-9,0-13.5,0c0-4.5,0.1-9.1,0.1-13.6
		c0-2.2,0-2.2,2.2-2.2c4.5,0,9.1,0,13.6,0c0.3-0.1-0.1-0.1,0.2-0.1c5.2-1,10.4-1.1,15.7,0.1c0.5,0.6,0.6,1.3,0.6,2
		c0,4.1,0.1,8.1,0,12.2c0,1.4-0.7,2.3-2.1,2.4C292.3,472.1,287.5,472.4,282.8,471.9z"/>
	<path id="XMLID_310_" fill="#A56248" d="M486.7,471.9c-4.2,0-8.4,0-12.7,0c-2.7,0-2.7,0-2.7,2.8c0,3.4,0,6.8,0,10.3
		c0,0.8,0.3,1.6-0.4,2.3c0-4.7,0-9.4-0.1-14.1c0-1.3,0.5-1.7,1.7-1.6c3.8,0,7.7,0,11.5,0c3,0,2.8,0.3,2.8-2.7c0-6.4,0-12.8,0-19.2
		c0-22.8,0-45.6,0-68.3c0-0.5,0-1,0-1.4c0-2.1,0-2.1-2.1-2.1c-3.8,0-7.7,0-11.5,0c-2.3,0-2.3,0-2.3-2.2c0-4.6,0-9.3,0-13.9
		c0,0,0.1-0.2,0.1-0.2c0.3-0.1,0.6-0.1,0.8,0.2c1,3,0.4,6,0.5,9c0.2,6.9-0.8,5.8,6,5.9c1.8,0,3.7,0,5.5,0c1.8,0.1,2.4-0.7,2.4-2.4
		c0-3.3,0-6.5,0-9.8c0-0.9,0-1.8,0.3-2.6c0.1-0.3,0.3-0.5,0.6-0.7c4.9-0.6,9.8-0.7,14.7,0.1c0.7,0.5,1,1.2,1.1,2
		c0.1,4.5,0.3,9.1-0.1,13.6c0,0.3-0.2,0.6-0.4,0.9c-0.2,0.2-0.5,0.4-0.8,0.5c-3.3,0.6-6.7,0.2-10,0.3c-3.4,0.1-3.5,0.2-3.5,3.5
		c0,23.5,0,47,0,70.5c0,1,0,1.9-0.1,2.9c0.1,4.6,0.1,9.1,0,13.7C487.9,470.1,488.3,471.5,486.7,471.9z"/>
	<path id="XMLID_309_" fill="#6A3E33" d="M298.6,455.6c-5.3,0-10.6,0-15.9-0.1c0-9.1,0-18.2,0-27.3c0-0.6,0-1.1,0-1.7
		c0-2.2,0-2.2,2.3-2.2c3.3,0,6.7,0,10,0c0.5,0,1,0,1.4,0c2,0,2.1,0,2.1-2.2c0-8.7,0-17.4,0-26.1c0-0.8-0.4-1.8,0.5-2.4
		c0,9.4,0,18.8,0,28.2c0,1-0.1,1.9-0.1,2.9c-0.9,0.9-2,0.8-3.1,0.8c-3,0-6.1,0.1-9.1,0c-1.9,0-2.8,0.6-2.7,2.6c0.1,3,0.1,6.1,0,9.1
		c-0.1,2,0.8,2.7,2.7,2.6c3-0.1,6.1-0.1,9.1,0c2.8,0.1,3,0.3,3,3c0,4.1,0,8.2,0,12.2C298.7,455.3,298.7,455.4,298.6,455.6z"/>
	<path id="XMLID_308_" fill="#4D4D4D" d="M439.7,346.7c0.8,0.6,0.4,1.5,0.4,2.2c0,4.2,0,8.4,0,12.6c-0.5,0.9-0.4,1.9-0.4,2.8
		c0,3.8,0,7.6,0,11.5c0,1.8-0.1,1.9-1.9,1.9c-4.1,0-8.1,0-12.2,0c-1.8,0-1.8-0.1-1.8-1.9c0-4.8,0-9.6,0-14.3
		c0.1-0.1,0.2-0.2,0.3-0.3c3.4-0.9,6.8-0.3,10.2-0.4c4.8-0.1,4.5,0.2,4.5-4.6c0-2.2,0-4.5,0-6.7C439,348.4,438.9,347.5,439.7,346.7z
		"/>
	<path id="XMLID_307_" fill="#4D4D4D" d="M407.9,346.7c5.3-0.2,10.6-0.2,15.9,0c0.4,0.4,0.6,0.9,0.6,1.5c0.2,3.9,0.1,7.7,0,11.6
		c0,0.6-0.3,1.2-0.7,1.7c0,0,0,0,0,0c-4.6,0-9.3,0-13.9,0c-1.9,0-2,0-2-2.1C407.9,355.2,408,350.9,407.9,346.7z"/>
	<path id="XMLID_306_" fill="#0B090C" d="M235.7,314.4c-4.4,0-8.8,0-13.1,0c-2.2,0-2.3,0-2.3-2.2c0-9.5,0-19,0-28.4
		c-2.2-0.7-4.4-0.2-6.6-0.3c-3.2-0.2-6.5,0.3-9.7-0.2c-0.3-3.9-0.1-7.8-0.2-11.7c0-0.6,0-1.3,0-1.9c0-2,0-2-1.9-2c-3.5,0-7,0-10.5,0
		c-0.5,0-1,0-1.4,0c-0.8,0-1.2-0.3-1.2-1.1c0-4.6,0-9.3,0-13.9c0-1.1,0.7-1.1,1.4-1c3.8,0,7.5,0,11.3,0c2.6,0,2.4,0.2,2.4-2.5
		c0-3.4,0-6.7,0-10.1c0-2.5,0.3-2.4-2.3-2.4c-4.3,0-8.6-0.1-12.9-0.1c-0.3-5.3-0.8-10.5,0.3-15.8c1.1-0.8,2.4-0.6,3.7-0.6
		c7.7,0,15.3,0,23,0c3.2,0,3.4-0.2,3.4-3.4c0-3,0-5.9,0-8.9c0-1.8-0.7-2.6-2.6-2.6c-3,0-5.9,0-8.9,0c-1,0-2.1,0.1-3.1-0.3
		c-0.3-0.1-0.5-0.3-0.7-0.6c0-4.9,0-9.8-0.1-14.7c0.9-1,2-0.8,3.1-0.8c3.3-0.1,6.6,0,9.8,0c1.4,0,2.4-0.5,2.2-2.1
		c-0.6-8.1,1.6-16.1,1-24.3c-0.1-1.5,0.2-3-0.2-4.5c-0.6-0.8-1.5-0.4-2.2-0.4c-4.1,0-8.1-0.1-12.2,0c-1.2,0-1.7-0.3-1.6-1.6
		c0.2-4.3-0.1-8.6,0.2-12.9c0.8-0.4,1.7-0.2,2.6-0.2c9.1,0,18.2,0,27.2,0c1.6,0,2.2-0.4,2.2-2.1c0-4.7-0.3-9.4,0.2-14
		c0.9-0.3,1.7-0.1,2.6-0.1c8.5,0,17.1,0,25.6,0c2.8,0,2.4,0.1,2.4-2.5c0.1-4.4-0.2-8.8,0.2-13.2c4.5-0.6,8.9-0.1,13.4-0.2
		c2.6-0.1,2.6,0,2.6-2.6c0-3.4,0.1-6.9,0-10.3c-0.1-1.7,0.6-2,2.1-2c3.9,0.1,7.8,0,11.8,0c2.7,0,2.9,0.3,3,3c0.1,2.8,0,5.6,0,8.4
		c0,5.5,0,11,0,16.6c0,3.1-0.6,3.6-3.7,3.7c-3.3,0.1-6.6,0-9.8,0c-2.4,0.1-2.7,0.3-2.8,2.8c-0.1,3,0,5.9,0,8.9c0,3.5-0.5,4.1-4,4.1
		c-3,0-6.1,0.1-9.1,0c-1.9,0-2.8,0.7-2.7,2.7c0.1,2.7,0.1,5.4,0,8.2c0,1.8,0.8,2.6,2.6,2.5c2.2,0,4.3,0,6.5,0c16.2,0,32.5,0,48.7,0
		c4.9,0,5.1,0.2,5.1,5.2c0,2.9,0,5.8,0,8.6c0,1.7,0.7,2.5,2.4,2.5c0.9,0,1.8,0,2.6,0c33.1,0,66.2,0,99.3,0c5.4,0,5.5,0.1,5.5,5.5
		c0,2.6,0,5.3,0,7.9c0,1.7,0.8,2.4,2.5,2.4c8.2,0,16.5,0,24.7,0c1.7,0,2.5-0.7,2.5-2.4c0-3.2,0-6.4,0-9.6c0.1-3.2,0.6-3.7,3.9-3.8
		c3.4-0.1,6.7-0.1,10.1,0c2.8,0.1,3.4,0.7,3.4,3.5c0.1,7.5,0,15,0,22.6c0,4.7,0,4.7,4.8,4.7c11.8,0,23.7,0,35.5,0c0.7,0,1.4,0,2.2,0
		c4.2,0,4.6,0.4,4.6,4.5c0,3,0,5.9,0,8.9c0,2.6,0.4,2.9,2.9,2.9c2.6,0.1,5.3,0,7.9,0c4.6,0,4.9,0.3,5,4.9c0,13.2,0,26.4,0,39.6
		c0,5.1,0,10.2,0,15.4c0,2.7,0.3,3,3.1,3c2.3,0,4.6,0,7,0c5.1,0,5.3,0.2,5.3,5.4c0,7.1,0,14.2,0,21.4c0,3.9,0,3.9,3.8,3.9
		c12.2,0,24.5,0,36.7,0c0.9,0,1.8,0,2.6,0c2.6,0.1,2.8,0.4,2.8,3c0,9.3,0.1,18.6,0,27.8c0,1.9,0.5,2.4,2.4,2.4
		c4.4,0,8.8-0.3,13.1,0.2c0,0.2,0.1,0.5,0.1,0.7c0,15.2,0,30.5,0,45.7c-5.1,0-10.2,0.1-15.3,0.1c-1.2-0.4-0.7-1.5-0.7-2.2
		c-0.1-3.3,0-6.6,0-9.8c0-2.8-0.2-3-3-3c-12,0-24,0-36,0c-6.3,0-12.6,0-19,0c-3.4,0-3.9-0.5-3.9-3.9c0-3.1,0-6.2,0-9.4
		c0-2.7-0.3-3-3.1-3c-8.9,0-17.8,0-26.6,0c-0.6,0-1.1,0-1.7-0.1c-4.4,0.1-8.8,0.1-13.2,0c-2.8,0-3.3-0.6-3.4-3.4c0-8,0-15.9,0-23.9
		c0-1,0.3-2.1-0.7-2.9c-3.4-1-6.8-0.2-10.2-0.5c-1.5-0.1-3.1,0.2-4.2-1.2c-0.8-5.1-0.7-10.2,0-15.3c0.8-1.3,2.2-1.2,3.4-1.3
		c2.7-0.1,5.4,0,8.1,0c0.9,0,1.9,0.1,2.8-0.4c0.8-0.7,0.7-1.6,0.7-2.4c0-13.1,0-26.2-0.1-39.3c0-3.1-0.2-3.3-3.5-3.4
		c-3.6-0.1-7.2,0.4-10.8-0.3c-0.3-0.1-0.5-0.3-0.7-0.6c-0.6-1.2-0.4-2.5-0.4-3.8c0-7.6,0-15.2,0-22.8c0-3.1-0.2-3.2-3.3-3.3
		c-3.8-0.1-7.7,0.4-11.5-0.3c-0.3-0.1-0.5-0.3-0.7-0.6c-0.9-3.5-0.3-7.1-0.4-10.7c-0.1-4.2,0-4.2-4.3-4.2c-7.3,0-14.7,0-22,0
		c-1.3,0-2.6,0.1-3.8-0.5c-1.2-0.9-1.2-2.2-1.2-3.5c-0.1-3.3-0.1-6.5,0-9.8c0-1.8-0.7-2.6-2.5-2.6c-13.4,0-26.8,0-40.2,0
		c-2.4,0-2.7,0.4-2.8,2.8c-0.1,3,0,6.1,0,9.1c0,1.1,0.1,2.2-0.4,3.3c-0.1,0.3-0.4,0.5-0.6,0.7c-1.5,0.6-3,0.4-4.5,0.4
		c-33.3,0-66.6,0-99.9,0c-4.5,0-4.5,0-4.5,4.5c0,2.6,0,5.1,0,7.7c0,1,0,2.1-0.7,3l0,0c-0.9,0.8-2.1,0.7-3.2,0.7c-3.2,0-6.4,0-9.5,0
		c-1.7,0-2.4,0.7-2.4,2.4c0.1,2.9,0,5.7,0,8.6c0,1.1,0.1,2.2-0.7,3.2l0,0c-0.9,0.8-2.1,0.7-3.2,0.7c-3.2,0-6.4,0-9.5,0
		c-1.7,0-2.4,0.7-2.4,2.4c0,3.2,0,6.4,0,9.5c0,1.1,0.1,2.2-0.7,3.2l0,0c-0.9,0.8-2.1,0.7-3.2,0.7c-2.8,0-5.6,0-8.4,0
		c-2.7,0-3,0.3-3,3.1c0,8,0.3,16-0.1,23.9C235.9,301.6,236.2,308,235.7,314.4L235.7,314.4z"/>
	<path id="XMLID_305_" fill="#A56248" d="M486.7,471.9c0.8-0.7,0.5-1.6,0.5-2.4c0-4.7,0-9.3,0-14c1.1-0.9,2.4-0.7,3.7-0.7
		c7.4,0,14.8,0,22.2,0c4,0,4,0,4-3.9c0-7.6,0-15.2,0-22.7c0-1.3-0.2-2.6,0.6-3.7c1.2-0.7,2.5-0.3,3.7-0.3c3.2,0,6.3,0,9.5,0
		c1,0,2.1,0,2.9,0.7c0.7,1.1,0.6,2.3,0.6,3.5c0,18.6,0,37.3,0,55.9c0,1,0,2.1-0.4,3.1c-0.7,1.3-2,1.2-3.2,1.2c-2.8,0.1-5.6,0-8.4,0
		c-3.9,0-3.9,0-3.9,3.8c0,15.8,0,31.7,0,47.5c0,2.6,0,5.1,0,7.7c0,1.1,0,2.3-0.8,3.2c0,15.1,0,30.1,0,45.2c0,0.6,0.4,1.3-0.4,1.7
		c-1.1-1.1-0.8-2.6-0.8-3.9c0-12.9,0-25.7,0-38.6c0-3.6-0.1-3.6-3.6-3.7c-2.5,0-5,0-7.4,0c-2.5,0-2.8,0.3-2.8,2.8c0,7.5,0,15,0,22.5
		c0,5.8,0,11.7,0,17.5c0,1.2,0.1,2.4-0.8,3.4c0,2.8-0.1,5.6-0.1,8.3c0,6.7,0,13.4,0,20c0,0.8,0.3,1.6-0.3,2.3
		c-1-1.1-0.7-2.4-0.7-3.7c0-7.6,0-15.2,0-22.8c0-3.3-0.1-3.5-3.5-3.5c-2.6,0-5.1,0-7.7,0c-1.5,0-2.2,0.7-2.2,2.2
		c0,8.3,0,16.6,0,24.9c0,1.5,0.8,2.1,2.2,2.1c2.9,0,5.8,0,8.6,0c1.1,0,2.3-0.1,3.2,0.8c-0.8,0.5-1.7,0.2-2.6,0.3
		c-4.1,0.1-8.1-0.2-12.2,0.2c-0.9,0.8-2.1,0.8-3.2,0.8c-3,0-5.9,0-8.9,0c-2.9,0-3.1,0.2-3.1,3.2c0,7.7,0,15.5,0,23.2
		c0,1.3,0.1,2.6-0.7,3.7c0.1,0.1,0,0.2-0.1,0.3c-2.2,0.6-4.4,0.2-6.6,0.3c-1.7,0.1-3.5,0-5.3,0c-3,0-3.1,0.2-3.1,3.1
		c0,2.9,0,5.9,0,8.8c0,1.7,0.7,2.5,2.4,2.4c3,0,6.1,0,9.1,0c1.1,0,2.3-0.2,3.1,0.8c-0.9,0.4-1.9,0.2-2.8,0.2c-3.3,0-6.7,0-10,0
		c-2.7,0-2.5-0.2-2.5,2.4c0,3.8,0,7.7,0,11.5c0,2.1,0,2.1-2.1,2.1c-9.6,0-19.3,0-28.9,0.1c0-0.1-0.1-0.3-0.1-0.4
		c0.2-0.2,0.4-0.4,0.7-0.5c1.2-0.4,2.4-0.3,3.6-0.3c7.5,0,15,0,22.5,0c3.1,0,3.2-0.1,3.2-3.3c0-2.7,0-5.4,0-8.2
		c0-2.6-0.2-2.9-2.9-2.9c-7.6,0-15.2,0-22.8,0c-1.2,0-2.4,0.1-3.6-0.2c-0.3-0.1-0.5-0.3-0.7-0.5c0-4.6,0-9.1,0-13.7
		c0-2.1,0-2.1,2.1-2.1c3.8,0,7.5,0,11.3,0c2.4,0,2.4,0,2.4-2.4c0-8.2,0-16.5,0-24.7c0-0.6,0-1.1,0-1.7c0-2.2,0.2-2.4,2.5-2.4
		c3.7,0,7.4,0,11,0c1.7,0,1.8-0.1,1.8-1.8c0-4,0-8,0-12c0-2,0-2,2-2.1c3.7,0,7.4,0,11,0c3,0,2.8,0.1,2.8-2.9c0-18.6,0-37.1,0-55.7
		c0-3.7-0.4-3.3,3.4-3.3c3.6,0,7.2,0,10.8,0c1.2,0,1.8-0.4,1.7-1.7c0-0.2,0-0.5,0-0.7c0-25.1,0-50.2,0-75.4
		C486.7,472.5,486.7,472.2,486.7,471.9z"/>
	<path id="XMLID_304_" fill="#10070A" d="M533.8,487.2c0-20.1,0-40.1,0-60.2c0-0.7,0-1.4,0-2.2c-1-1.2-0.8-2.6-0.8-3.9
		c0-12.6,0-25.2,0-37.8c0-4.5,0-4.5-4.6-4.6c-3.3-0.1-6.7,0.4-10-0.3c-0.3-0.1-0.5-0.3-0.7-0.6c-0.9-3.8-0.3-7.6-0.4-11.4
		c-0.1-1.6-0.4-3.2,0.6-4.7c10,0,20,0,30,0c2.1,0,2.3,0.3,2.3,2.4c0,3.8,0,7.7,0,11.5c0,2.4,0,2.4,2.4,2.4c7.4,0,14.9,0,22.3,0
		c11.3,0,22.5,0,33.8,0c0.6,0,1.1,0,1.7,0c1.7,0.1,1.8,0.1,1.8,1.8c0,4.7,0,9.4,0,14.1c0,0.2-0.1,0.4-0.1,0.6
		c-0.3,4.1-0.1,8.3-0.1,12.4c0,1.8-0.7,2.5-2.3,2.5c-3.4,0.1-6.9,0.1-10.3,0c-1.9,0-2.7-1.1-2.8-2.9c-0.1-3,0-6.1-0.1-9.1
		c-0.1-2.4-0.4-2.8-2.8-2.8c-3.1-0.1-6.2,0-9.4,0c-2,0-2.6,0.8-2.6,2.7c0.1,7.7,0,15.3,0,23c0,0.9,0,1.8,0,2.6c0,1.9-1,2.7-2.8,2.8
		c-3.4,0.1-6.7,0-10.1,0.1c-2.6,0-2.8,0.3-2.9,2.9c-0.1,3.9,0.3,7.8-0.3,11.7c-0.1,0.3-0.3,0.5-0.6,0.7c-3.4,1-6.8,0.3-10.2,0.5
		c-1.3,0.1-2.6-0.3-3.7,0.5c-0.9,0.9-0.6,2-0.6,3c0,13.1,0,26.2,0,39.3c0,3.9-0.4,4.2-4.2,4.3c-3.1,0-6.2,0.1-9.3,0
		C535.6,488.4,534.4,488.5,533.8,487.2z"/>
	<path id="XMLID_303_" fill="#A56248" d="M550.1,440.7c4.9,0,9.9-0.1,14.8-0.1c0.9,1.1,0.8,2.4,0.8,3.7c0,7.6,0,15.2,0,22.8
		c0,3.5,0.1,3.6,3.7,3.6c2.8,0,5.6,0,8.4,0c1.6,0,2.3-0.7,2.3-2.3c0-8.1,0-16.3,0-24.4c0-1.9-0.8-2.5-2.6-2.5c-3.1,0-6.2,0-9.3,0
		c-1.1,0-2.3,0-3.2-0.8c0-4.5,0-8.9,0-13.4c0-2.5,0-2.5,2.4-2.5c3.8,0,7.7,0,11.5,0c1.9,0,2,0,2-2c0-8.7,0-17.4,0-26.1
		c0-0.6,0-1.1,0-1.7c0-0.9,0.4-1.3,1.3-1.3c4.5,0,8.9,0,13.4,0c1.2,0,1.4,0.7,1.4,1.7c0,3.4,0,6.7,0,10.1c0,0.6,0,1.3,0,1.9
		c0,0.9,0.4,1.3,1.3,1.3c4,0,8,0,12,0c1.3,0,1.4-0.7,1.4-1.7c0-3.4,0-6.9,0-10.3c0-0.8-0.2-1.6,0.2-2.3c0.3,4.4,0.1,8.8,0.1,13.2
		c0,4.4-0.1,8.8-0.1,13.2c0,10.6,0,21.3,0,31.9c0,0.5,0,1,0,1.4c0.1,1.2-0.3,1.7-1.6,1.7c-3.6-0.1-7.2,0-10.8,0
		c-2.7,0-2.7-0.5-2.7,2.7c0,8.7,0,17.4,0,26.1c0,0.6,0,1.1,0,1.7c0.1,1.1-0.4,1.6-1.5,1.5c-3.8,0-7.7,0-11.5,0c-0.6,0-1.1,0-1.7,0
		c-0.9,0-1.3,0.3-1.3,1.3c0,1.5,0,3,0,4.6c0,7.7,0,15.3,0,23c0,2.1,0,2.1-2.1,2.1c-4.6,0-9.1,0-13.7,0c-0.1-0.1-0.2-0.2-0.3-0.3
		c-0.8-1.7-0.4-3.4-0.5-5.2c-0.1-2.2,0-4.5,0-6.7c0-2.8-0.2-3-2.9-3c-2.7,0-5.4,0-8.1,0c-1.1,0-2.2,0.1-3.3-0.6c-1-0.9-1-2.1-1-3.3
		c0-2.8-0.3-5.6,0-8.4c2.1-16.2,0.4-32.5,1-48.7C549.9,441.8,549.7,441.2,550.1,440.7z"/>
	<path id="XMLID_302_" fill="#6A3E33" d="M550.1,440.7c0,12.7-0.1,25.4,0,38.1c0.1,7-0.8,14-0.5,21c0,1-0.1,1.9,0.5,2.8
		c0.8,0.9,0.7,2.1,0.7,3.2c0,3.1,0.1,6.2,0,9.3c-0.1,1.9,0.6,2.7,2.6,2.7c2.7-0.1,5.4,0,8.1,0c1,0,2.1-0.1,3,0.7
		c-0.1,1.4-1.3,1.2-2.1,1.2c-4.4,0-8.8,0.3-13.1-0.2c-4.1-0.4-8.3-0.1-12.4-0.2c-1.6,0-2.3,0.8-2.3,2.4c0,3.3,0,6.7,0,10
		c0,1.1,0.1,2.2-0.7,3.2c0,4.5,0,9.1,0,13.6c0,2.1,0,2.1-2,2.1c-4.6,0-9.3,0.1-13.9,0.1c0-20,0-40.1,0-60.1c0-0.2,0-0.5,0-0.7
		c0-2.1,0-2.1,2.2-2.1c3.8,0,7.7,0,11.5,0c0.8,0,1.6,0.2,2.2-0.5c0.7,0.5,1.5,0.5,2.3,0.5c3.8,0,7.5,0,11.3,0c2.2,0,2.2,0,2.2-2.3
		c0-10.5,0-21,0-31.4c0-3.7,0-7.4,0-11C549.6,442.2,549.3,441.3,550.1,440.7z"/>
	<path id="XMLID_301_" fill="#6A3E33" d="M502.1,597.6c0-14.8,0-29.6,0-44.4c0-0.3,0-0.6,0-1c-0.1-1.2,0.4-1.7,1.7-1.7
		c3.4,0,6.7,0,10.1,0c0.8,0,1.6,0,2.4,0c0.9,0,1.3,0.5,1.3,1.3c0,0.6,0,1.3,0,1.9c0,14.6,0,29.1,0,43.7
		C512.3,597.5,507.2,597.6,502.1,597.6z"/>
	<path id="XMLID_300_" fill="#A56248" d="M533.8,534.8c0-4.8-0.1-9.6,0-14.4c0-1.7,0.3-2,1.9-2c4.2,0,8.5-0.4,12.7,0.1
		c4.8,0.5,9.5,0.2,14.3,0.3c0.6,0,1.3,0.1,1.8-0.4l0.1-0.2l0.2,0c0.1,0.1,0.1,0.1,0.2,0.2c-0.4,4.1-0.1,8.1-0.2,12.2
		c-0.1,3.9,0,3.9-4,3.9c-8.1,0-16.2,0-24.2,0C535.7,534.6,534.8,534.5,533.8,534.8z"/>
	<path id="XMLID_299_" fill="#6A3E33" d="M470.9,659.6c0-9.4,0-18.7,0-28.1c0-0.2,0-0.3,0-0.5c0-2.3,0-2.3,2.2-2.3
		c3.3,0,6.6,0,9.8,0c1.3,0,2.6,0,3.8,0c0,9.6,0,19.1,0,28.7c0,2.2,0.1,2.1-2.1,2.1C480.1,659.6,475.5,659.6,470.9,659.6z"/>
	<path id="XMLID_298_" fill="#6A3E33" d="M470.4,675.4c-4.1-0.3-8.1,0-12.2-0.1c-0.6,0-1.3,0-1.9,0c-0.9,0-1.3-0.4-1.3-1.3
		c0-4.4,0-8.8,0-13.1c0-0.7,0.2-1.3,1.1-1.3c4.7,0,9.4-0.2,14.1,0.1c0.2,0,0.4,0.2,0.7,0.3c0,4.8,0,9.5,0.1,14.3
		C470.9,674.7,471,675.2,470.4,675.4z"/>
	<path id="XMLID_297_" fill="#6A3E33" d="M423.9,691.7c0,4.4,0,8.8,0,13.2c0,1.7,0,1.7-1.7,1.7c-4.7,0-9.4,0.1-14.1,0.1
		c0,0,0.1-0.1,0.1-0.1l-0.1-0.1c-0.1-0.1-0.3-0.2-0.3-0.3c-0.7-4.8-1-9.6,0.2-14.4c0.5-0.4,1.1-0.6,1.8-0.6c4.1-0.1,8.2-0.1,12.4,0
		C422.7,691,423.3,691.2,423.9,691.7L423.9,691.7z"/>
	<path id="XMLID_296_" fill="#10070A" d="M627.3,347c-4.4,0-8.8,0-13.2,0c-2.5,0-2.5,0-2.5-2.5c0-8.8,0-17.6,0-26.4c0-0.3,0-0.6,0-1
		c0-2.8,0-2.8-2.9-2.8c-13.4,0-26.9,0-40.3,0c-3.6,0-3.3,0.3-3.3-3.4c0-8,0-16,0-24c0-0.6,0-1.1,0-1.7c0.1-1.3-0.5-1.7-1.7-1.7
		c-3.3,0-6.6,0-9.8,0c-3.9,0-3.8,0.2-3.8-3.8c0-18.7,0-37.4,0-56.2c0-3.2,0.1-3-3-3c-3.5,0-7,0-10.6,0c-2,0-2.2-0.3-2.2-2.2
		c0-3.8,0-7.7,0-11.5c0-2.6,0-2.6-2.7-2.6c-13.6,0-27.2,0-40.8,0c-0.5,0-1,0-1.4,0c-2.1,0-2.1,0-2.1-2.2c0-8.4,0-16.8,0-25.2
		c0-0.6,0-1.1,0-1.7c0.1-1.2-0.4-1.7-1.7-1.7c-3.1,0.1-6.2,0-9.4,0c-1,0-2.1,0-3.1,0c-1.2-0.1-1.7,0.4-1.7,1.7c0.1,2.8,0,5.6,0,8.4
		c0,1.4,0,2.7,0,4.1c0,1.2-0.4,1.8-1.7,1.7c-1.1-0.1-2.2,0-3.4,0c-7.8,0-15.7,0-23.5,0c-2.5,0-2.7-0.1-2.7-2.7c0-3.8,0-7.5,0-11.3
		c0-1.7-0.1-1.7-1.8-1.8c-0.6,0-1.3,0-1.9,0c-34.4,0-68.8,0-103.2,0c-3.2,0-3,0.3-3-2.9c0-3.6,0-7.2,0-10.8c0-2.6,0-2.6-2.7-2.6
		c-11.4,0-22.9,0-34.3,0c-7.8,0-15.7,0-23.5,0c-2.3,0-2.4,0-2.4-2.4c0-3.6,0-7.2,0-10.8c0-1.2,0.5-1.7,1.7-1.7c4,0,8,0,12,0
		c2.1,0,2.1,0,2.2-2.1c0-3.8,0-7.7,0-11.5c0-2.1,0-2.2,2.1-2.2c4,0,8,0,12,0c2.2,0,2.2,0,2.2-2.1c0-8.8,0-17.6,0-26.4
		c0-2.2,0-2.2-2.1-2.2c-3.9,0-7.8,0-11.8,0c-1.9,0-2,0-2,2.1c0,3.6,0,7.2,0,10.8c0,2-0.1,2-2,2c-4.7,0-9.4,0-14.2,0
		c0.4-0.8,1.1-0.4,1.7-0.4c4.1,0,8.3,0,12.4,0c1.6,0,1.7,0,1.7-1.7c0-3.9,0-7.8,0-11.7c0-0.5,0.1-1-0.2-1.4l-0.1,0.1
		c0.8-0.4,1.7-0.2,2.6-0.2c9.6,0,19.1,0,28.7-0.1c1.4-0.9,2.9-0.7,4.4-0.7c23.1,0,46.2,0,69.3,0c4.3,0,4.3,0,4.3-4.3
		c0-2.6,0-5.1,0-7.7c0-1.1,0.1-2.3,1.1-3c0.3-0.4,0.8-0.6,1.3-0.6c4.5-0.1,9.1-0.4,13.6,0.1c0.5,0.4,1.1,0.3,1.6,0.3
		c4.1,0,8.2,0,12.2,0c2.1,0,2.1,0,2.1-2c0-4.1,0-8.2,0-12.2c0-1.7,0-1.7,1.7-1.7c4.2,0,8.3,0,12.5,0c1.8,0,1.8,0,1.8,1.9
		c0,8.9,0,17.8,0,26.6c0,0.6,0,1.1,0,1.7c0,1.8,0,1.8,1.9,1.8c8.6,0,17.3,0,25.9,0c0.5,0,1,0,1.4,0c1.9,0,1.8-0.1,1.8,1.8
		c0,3.8,0,7.5,0,11.3c0,2,0.1,1.8,1.8,1.8c8.6,0,17.3,0,25.9,0c3.2,0,3.2,0,3.2,3.3c0,8.6,0,17.1,0,25.7c0,0.6,0,1.1,0,1.7
		c-0.1,1,0.4,1.4,1.4,1.4c3.8,0,7.7,0,11.5,0c0.6,0,1.1,0.1,1.7,0c1.2-0.1,1.5,0.4,1.5,1.5c-0.1,3.6,0,7.2,0,10.8
		c0,3.1-0.5,2.6,2.6,2.7c3.9,0,7.8,0.1,11.8,0c1.3,0,1.6,0.4,1.6,1.6c-0.1,4.2,0,8.3,0,12.5c0,1.9,0,1.9,2,1.9c4.1,0,8.2,0,12.2,0
		c1.7,0,1.7,0,1.8,1.7c0,4.2,0,8.3,0,12.5c0,1.8,0,1.8,1.8,1.8c3.8,0,7.7,0,11.5,0c1.6,0,1.7,0,1.7,1.7c0,9,0,18.1,0,27.1
		c0,2.2-0.2,2,2.1,2c3.9,0,7.8,0,11.8,0c2.1,0,2.1,0,2.1,2.1c0,8.7,0,17.4,0,26.1c0,3.3-0.5,2.8,3,2.9c3.7,0,7.4,0,11,0
		c2.2,0,2-0.1,2,2.1c0,9,0,17.9,0,26.9c0,0.5,0,1,0,1.4c-0.2,1.3,0.5,1.6,1.7,1.6c3.7-0.1,7.4,0,11,0c2.7,0,2.3,0,2.3,2.3
		c0,19.3,0,38.5,0,57.8c0,3.4-0.4,2.8,3,2.9c4.2,0.1,8.3,0.1,12.5,0.1C627.3,346.8,627.3,346.9,627.3,347z"/>
	<path id="XMLID_295_" fill="#0C0A0D" d="M407.9,79.2c-0.8,0.6-1.7,0.5-2.5,0.5c-4.1,0-8.1,0-12.2,0c0,0-0.2-0.1-0.2-0.1
		c-0.1-0.1-0.1-0.3-0.1-0.4c0-4.4,0-8.9-0.1-13.3c0-0.8,0.1-1.6-0.2-2.3c4.6,0,9.2,0,13.8-0.1c1.3,0,1.6,0.5,1.6,1.7
		C407.9,69.8,407.9,74.5,407.9,79.2z"/>
	<path id="XMLID_294_" fill="#A56248" d="M299.1,644.6c-0.9-0.6-0.5-1.4-0.5-2.2c0-3.8,0-7.7,0-11.5c0-2,0-2-2-2.1
		c-3.9,0-7.8,0-11.8,0c-2,0-2.1,0-2.1,2.2c0,9.5,0,19,0,28.6c-4.5,0-9.1,0-13.6,0c-2.2,0-2.2,0-2.2-2.2c0-13.9,0-27.8,0-41.7
		c0-1,0-2.1,0-3.1c0.1-0.1,0.2-0.2,0.3-0.3c3.2-1,6.4-0.4,9.7-0.4c2,0,4.1-0.5,6,0.6c0.7,1,0.6,2.1,0.6,3.2c0,3.2,0,6.4,0,9.6
		c0,1.7,0.7,2.4,2.4,2.4c3.4,0,6.9-0.1,10.3,0c2.9,0.1,3.5,0.6,3.6,3.5c0.1,3.7,0,7.3,0,11C299.8,643,299.8,643.9,299.1,644.6z"/>
	<path id="XMLID_293_" fill="#A56248" d="M236.2,597.5c0-9.7,0-19.5,0-29.2c0-0.6,0-1.1,0-1.7c0-0.8,0.4-1.1,1.2-1.1c4,0,8,0,12,0
		c1.1,0,1.6,0.5,1.7,1.6c0,0.6,0,1.1,0,1.7c0,8.6,0,17.2,0,25.8c0,1,0.1,2.1-0.5,3C245.8,597.5,241,597.5,236.2,597.5z"/>
	<path id="XMLID_292_" fill="#6A3E33" d="M329.8,722.4c-5.3,0-10.6,0-15.8-0.1c0-5.3-0.1-10.5-0.1-15.8c0.1-0.1,0.2-0.2,0.3-0.3
		c3.5-1,7.1-0.3,10.7-0.4c1.6-0.1,3.4-0.4,4.9,0.7l0,0c0.2,0.2,0.4,0.5,0.5,0.8c0.4,4.7,0.4,9.5,0,14.2
		C330.2,721.9,330,722.1,329.8,722.4L329.8,722.4z"/>
	<path id="XMLID_291_" fill="#A56248" d="M298.5,691.6c0-0.1,0-0.2,0-0.3c-0.4-5.2-0.2-10.4-0.2-15.6c0.1-0.3,0.3-0.4,0.7-0.3
		c4.3,0,8.6,0,12.9,0c2,0,2,0,2,2c0,4.8,0,9.5,0,14.3c-0.9,0.9-2.1,0.7-3.2,0.7c-2.9,0-5.7,0.1-8.6,0c-1.8,0-2.4,0.7-2.4,2.4
		c0,2.8,0,5.6,0,8.4c0,1.1,0.2,2.3-0.7,3.2c-0.6-0.6-0.3-1.4-0.3-2c0-3.4,0-6.9,0-10.3C298.7,693.2,298.8,692.4,298.5,691.6z"/>
	<path id="XMLID_290_" fill="#A56248" d="M251.1,612.4c0-3.8,0-7.7,0-11.5c0-3.6-0.4-3.3,3.2-3.3c4.2,0,8.5,0,12.7,0
		c0.1,0.1,0.2,0.2,0.3,0.4c0.5,4.9,1.1,9.7-0.3,14.5c0,0-0.1,0.1-0.1,0.1c-4.5,0-8.9,0-13.4,0C252.6,612.5,251.8,612.6,251.1,612.4z
		"/>
	<path id="XMLID_289_" fill="#A56248" d="M220.3,565.4c0-4.3,0-8.6,0-12.9c0-1.9,0.1-1.9,1.9-1.9c3.9,0,7.8,0,11.7,0
		c1.7,0,1.7,0.1,1.8,1.8c0,4.4,0,8.8,0,13.2C230.5,565.5,225.4,565.4,220.3,565.4z"/>
	<path id="XMLID_288_" fill="#6A3E33" d="M299,706.4c0-4.1,0-8.1,0.1-12.2c0-2.5,0-2.5,2.4-2.5c4.1,0,8.3,0,12.4,0c0,0,0,0,0,0
		c0.5,0.6,0.7,1.2,0.7,2c0.1,3.6,0.1,7.3,0,10.9c0,0.7-0.2,1.4-0.7,2c0,0-0.1,0.1-0.1,0.1c-4.1,0-8.1,0-12.2-0.1
		C300.8,706.5,299.9,706.7,299,706.4z"/>
	<path id="XMLID_287_" fill="#0B090C" d="M393.1,79.7c-0.6,0.9-0.5,1.8-0.5,2.8c0,3.6,0,7.2,0,10.8c0,2.2,0,2.2-2.3,2.2
		c-14.1,0-28.2,0-42.2,0c-11.4,0-22.9,0-34.3-0.1c0-4.7,0-9.4,0-14.1c0-1.8-0.1-1.8,1.8-1.8c4.6,0,9.3,0.1,13.9,0.1
		c1.1-0.7,2.3-0.7,3.5-0.7c3.2,0,6.4,0,9.6,0c1.9,0,2.8-0.7,2.7-2.7c0-3.3-0.1-6.5,0-9.8c0.1-2.6,0.4-2.8,3-2.8c3.5,0,7,0.1,10.5,0
		c1.5,0,1.9,0.4,1.9,1.9c-0.1,4-0.1,8,0,12c0,0.7-0.5,1.6,0.4,2.2c2.2,0,4.5-0.1,6.7-0.1c7.4,0,14.8,0,22.2,0c0.8,0,1.6,0.1,2.4,0.1
		C392.7,79.5,392.9,79.5,393.1,79.7L393.1,79.7z"/>
	<path id="XMLID_286_" fill="#10070A" d="M219.9,157.9c0.6,0.6,0.4,1.3,0.4,2c0,3.8,0.3,7.7-0.1,11.5c-0.5,5.5-0.3,11-0.4,16.5
		c0,1.6-0.1,1.7-1.9,1.7c-4.7,0-9.4,0.1-14.1,0.1c-9.3,0-18.7-0.1-28-0.1c-0.6,0-1.3,0-1.9,0c-0.8,0.1-1.1-0.3-1.1-1.1
		c0-4.6,0-9.3,0-13.9c0-0.9,0.4-1.1,1.2-1.1c0.6,0,1.1,0,1.7,0c13.7,0,27.5,0,41.2,0c0.5,0,1,0,1.4,0c1.3,0.2,1.6-0.5,1.6-1.7
		C219.8,167.2,219.9,162.6,219.9,157.9z"/>
	<path id="XMLID_285_" fill="#0B090C" d="M236.2,126.7c0,4.7,0,9.4,0,14.1c0,2.2,0,2.2-2.3,2.2c-10,0-19.9,0-29.9,0
		c0.5-1.1,1.4-0.5,2.1-0.5c9,0,18.1,0,27.1,0c2.8,0,2.6,0.4,2.6-2.5c0-3.7,0-7.4,0-11c0-2.6,0.3-2.3-2.2-2.3c-3.8,0-7.7,0-11.5,0
		c-2.3,0-2.2,0.1-2.2-2.3c0-4,0-8,0-12c0-1.9,0-1.9,1.8-1.9c4.2,0,8.3,0,12.5,0c1.7,0,1.7,0,1.7,1.7c0,4.1,0,8.2,0,12.2
		C235.8,125.2,235.6,126,236.2,126.7z"/>
	<path id="XMLID_284_" fill="#11080A" d="M361.2,79.6c-1-0.4-0.7-1.4-0.7-2.1c0-3.8,0-7.7,0-11.5c0-2.1,0-2.2-2.1-2.2
		c-3.5,0-7,0-10.5,0c-1.7,0-1.7,0.1-1.8,1.8c0,3.8,0,7.5,0,11.3c0,2.6-0.1,2.8-2.6,2.8c-4.6,0-9.3,0-13.9-0.1
		c0.1-0.4,0.2-0.8,0.2-1.1c0-5.1,0-10.1-0.1-15.2c0.9,0.3,1.7,0.2,2.6,0.2c8.6,0,17.1,0,25.7,0c3.3,0,2.8-0.4,2.9,2.8
		c0,3.7,0,7.4,0,11C360.9,78.1,360.8,78.9,361.2,79.6z"/>
	<path id="XMLID_283_" fill="#10080B" d="M189.1,220.8c0,4.4,0,8.8,0,13.1c0,0.9,0.1,1.8-0.5,2.5c-4.3,0-8.5,0.1-12.8,0.1
		c-1,0-2.1,0.1-3.1,0.1c0-4.8,0-9.6,0-14.4c0-1.8,0-1.8,1.8-1.9c4.2,0,8.3,0,12.5,0c1.6,0,1.7,0,1.7-1.7c0-4.2,0-8.3,0-12.5
		c0-1.7,0-1.7,1.7-1.7c4.5-0.1,8.9,0.2,13.4-0.1c0,0,0.1,0.1,0.1,0.1c-0.4,1.4-1.6,1.1-2.6,1.2c-3,0.1-5.9,0-8.9,0.1
		c-2.5,0-2.7,0.2-2.7,2.8c0,3,0,6.1,0,9.1C189.9,218.7,189.9,219.9,189.1,220.8z"/>
	<path id="XMLID_282_" fill="#10070A" d="M266.9,95.5c-5.3,0-10.5,0-15.7,0c-0.5-0.5-0.3-1.1-0.3-1.6c0-4.3,0-8.6,0-12.9
		c0-0.9,0.2-1.5,1.3-1.5c4.9,0.1,9.9-0.2,14.8,0.2c0.2,0.3,0.4,0.5,0.5,0.8c0.5,4.7,0.4,9.5,0,14.2C267.3,95,267.1,95.2,266.9,95.5z
		"/>
	<path id="XMLID_281_" fill="#0C0B0D" d="M266.9,95.5c0-5.3,0-10.5,0-15.8c5-0.3,9.9-0.1,14.9-0.1c0.6,0,1.1,0.1,1.1,0.9
		c-0.1,5,0.2,10.1-0.2,15.1c0,0.1-0.1,0.1-0.1,0.2c0,0,0.1-0.1,0.1-0.1c-4.3,0-8.6-0.1-12.8-0.1C268.8,95.5,267.8,95.5,266.9,95.5z"
		/>
	<path id="XMLID_280_" fill="#0C0A0D" d="M204,283.2c4.7,0,9.4,0,14.1,0c0.8,0,1.6-0.3,2.2,0.5c-0.2,0-0.3,0-0.5,0
		c-4.9-0.4-9.9-0.1-14.8-0.2c-0.8,0-1.1,0.3-1.1,1.1c0,2.6,0,5.1,0,7.7c0,1.9,0,3.8,0,5.7c0,0.9-0.1,1.5-1.3,1.5
		c-4.2-0.1-8.5,0-12.7,0c-1,0-1.2-0.4-1.2-1.3c0-4.5,0-8.9,0-13.4c0-1.3,0.7-1.4,1.7-1.4c3.8,0,7.5,0,11.3,0
		C202.5,283.5,203.3,283.6,204,283.2z"/>
	<path id="XMLID_279_" fill="#10070A" d="M393.1,79.7c-0.2,0-0.4,0-0.6,0c0.1-0.1,0.2-0.3,0.4-0.4C392.9,79.4,393,79.5,393.1,79.7z"
		/>
	<path id="XMLID_278_" fill="#A56248" d="M329.8,722.4c0-5.3,0-10.6,0-15.8c20.3,0,40.5,0,60.8,0c0.9,0,1.8,0,2.5-0.5
		c0.2,0.2,0.4,0.5,0.5,0.8c0.5,4.6,0.2,9.2,0.2,13.8c0,0.6-0.2,1.3-0.7,1.7c-0.2,0-0.3,0-0.5,0.1c-20.2,0-40.3,0-60.5,0
		C331.4,722.4,330.6,722.4,329.8,722.4z"/>
	<path id="XMLID_277_" fill="#6A3E33" d="M393.1,722.4c0-5.3,0-10.5,0-15.8c0.6-0.5,1.2-0.7,2-0.7c3.5-0.1,7-0.1,10.5,0
		c0.7,0,1.4,0.1,2,0.7c0,4.6,0,9.2,0,13.8c0,2,0,2-2,2C401.4,722.4,397.3,722.4,393.1,722.4z"/>
	<path id="XMLID_276_" fill="#A56248" d="M407.6,706.6c-4.8,0-9.6,0-14.4,0c0-0.2,0-0.3,0-0.5c0-4.2,0-8.3,0-12.5
		c0-1.8,0.1-1.9,1.9-1.9c4.2,0,8.3,0,12.5,0c0.2-0.2,0.3-0.2,0.5,0c0,4.9,0,9.8,0,14.7C407.9,706.4,407.7,706.5,407.6,706.6z"/>
	<path id="XMLID_275_" fill="#832229" d="M266.9,597.6c0-10.1,0-20.1,0-30.2c0-1.8,0.1-1.8,1.9-1.9c0.4,0,0.8,0,1.2,0
		c45.1,0,90.2,0,135.3,0c0.9,0,1.8,0,2.6,0.1c0.9,0.8,0.8,1.8,0.8,2.9c0,3.4,0,6.8,0,10.2c0,1.3-0.1,2.5-1.3,3.4
		c-1.3,0.8-2.8,0.6-4.2,0.5c-28.6-1.1-57.3-0.4-86-0.5c-10.1-0.1-20.3,0-30.4,0c-1,0-2.1-0.2-2.9,0.6c-0.7,1.1-0.4,2.3-0.5,3.4
		c-0.2,3.8,0.4,7.6-0.4,11.3c-0.1,0.3-0.4,0.5-0.6,0.6c-4.8,0.8-9.5,0.3-14.3,0.2C267.7,598.2,267.3,597.9,266.9,597.6L266.9,597.6z
		"/>
	<path id="XMLID_274_" fill="#832229" d="M299.1,644.6c0-4.3,0-8.6-0.1-12.9c0-3.6,0.3-3.3-3.4-3.3c-3.6,0-7.2,0-10.8,0
		c-2.1,0-2.1,0-2.1-2.2c0-4.6,0-9.1,0-13.7c-0.5-0.6-0.7-1.2-0.7-2c-0.1-3.6-0.1-7.3,0-10.9c0-0.7,0.2-1.4,0.7-2l0,0
		c0.3-0.1-0.1-0.1,0.2-0.1c5.4-0.9,10.8-1,16.2,0.1c0.7,1,0.6,2.1,0.7,3.2c0,2.6,0,5.3,0,7.9c0,2.9,0.2,3.1,3.2,3.1
		c0.7,0,1.4,0,2.2,0c22.5,0,45,0,67.5,0c1.4,0,2.9-0.2,4.2,0.6c0.4,0.5,0.6,1.1,0.6,1.8c0.1,4.2,0.1,8.4,0,12.6
		c0,0.6-0.2,1.1-0.5,1.5c-3.5,0.6-7,0.2-10.5,0.3c-5.8,0.1-11.6,0.9-17.5,0.6c-2-0.1-2.7,0.8-2.7,2.7c0.1,3.2,0,6.4,0,9.6
		c0,1.1,0.1,2.3-0.8,3.2C330.1,644.6,314.6,644.6,299.1,644.6z"/>
	<path id="XMLID_273_" fill="#F8AAA6" d="M299.1,455.6c4.9,0,9.9,0,14.8-0.1c0,0,0,0,0,0c0.8,0.9,0.8,2.1,0.8,3.2
		c0,8.6,0,17.2,0,25.8c0,1.1,0.1,2.3-0.8,3.2c0,10.2,0,20.5,0,30.7c-0.9,0.9-2,0.8-3.1,0.8c-8.2,0-16.4,0-24.6,0c-1,0-2.1,0.1-3-0.6
		c-0.4-0.7-0.2-1.4-0.2-2.1c0-8.9,0-17.7,0-26.6c0-2.5,0.3-2.8,2.9-2.9c3.2-0.1,6.4,0,9.6-0.1c2.5-0.1,2.9-0.4,2.8-2.7
		c-0.2-8.7,0.9-17.3,0.6-26C298.8,457.3,298.5,456.4,299.1,455.6z"/>
	<path id="XMLID_272_" fill="#D98D80" d="M313.9,487.7c0-10.7,0-21.4,0-32.2c4.5,0,9.1,0,13.6,0c2.2,0,2.2,0,2.2,2.1
		c0,9.3,0,18.7,0,28c0,2.1,0,2.1-2.2,2.1C323,487.7,318.5,487.7,313.9,487.7z"/>
	<path id="XMLID_271_" fill="#D98D80" d="M283.2,518.4c10.2,0,20.5,0,30.7,0c0,4.6,0,9.3,0,13.9c0,2.3-0.2,2.4-2.5,2.5
		c-4.1,0-8.3,0-12.4,0c-0.2,0-0.3,0.1-0.5,0.1c-4.4,0.1-8.7,0-13.1,0.1c-1.8,0-2.6-0.6-2.5-2.5C283.2,527.7,282.7,523,283.2,518.4z"
		/>
	<path id="XMLID_270_" fill="#A56248" d="M282.8,581.8c0.1-0.4,0.5-0.6,0.9-0.6c0.7,0,1.4,0,2.2,0c34.6,0,69.3-0.1,103.9,0.1
		c5.9,0,11.8,0.3,17.7,0.4c0.2-0.2,0.4-0.2,0.5,0c0,4.6,0,9.3,0,13.9c0,1.9-0.1,1.9-1.9,1.9c-3.4,0-6.7,0-10.1,0
		c-3.1,0-2.9-0.2-2.9,2.8c0,8.5,0,16.9,0,25.4c0,0.8,0.3,1.8-0.4,2.5c-0.7-0.8-0.7-1.7-0.7-2.7c0-4.4-0.1-8.7,0-13.1
		c-0.1-5-0.1-10,0-14.9c-0.1-4.1,0-8.1-0.1-12.2c0-2.5-0.3-2.7-2.8-2.8c-2-0.1-4,0-6,0c-32,0-63.9,0-95.9,0
		C285.7,582.5,284.1,582.9,282.8,581.8z"/>
	<path id="XMLID_269_" fill="#A56248" d="M408,691.7c-0.2,0-0.3,0-0.5,0c0.6-0.8,0.5-1.8,0.5-2.8c0-3.6,0-7.2,0-10.7
		c0-2.8,0-2.8,2.7-2.8c4.4,0,8.8,0,13.1,0c0.2,0,0.4,0,0.5,0c0.5,4.8,0.2,9.7,0.1,14.5c0,0.5-0.3,0.9-0.6,1.3c0,0.2,0,0.3-0.1,0.5
		C418.5,691.7,413.3,691.7,408,691.7z"/>
	<path id="XMLID_268_" fill="#A56248" d="M408,581.8c-0.2,0-0.4,0-0.5,0c0.4-0.6,0.5-1.3,0.5-2c0-4.7-0.1-9.5-0.1-14.2
		c4.8,0,9.6,0,14.4-0.1c1.1,0,1.6,0.4,1.6,1.5c0,4.4,0,8.8,0,13.2c0,1.3-0.5,1.6-1.7,1.6C417.4,581.7,412.7,581.8,408,581.8z"/>
	<path id="XMLID_267_" fill="#6A3E33" d="M299,534.8c0,4.6,0,9.3,0,13.9c0,1.8-0.1,1.9-1.9,1.9c-4.2,0-8.3,0-12.5,0
		c-1.8,0-1.8-0.1-1.8-1.9c0-4.6,0-9.3,0-13.9c0,0,0,0,0,0C288.1,534.3,293.6,534.4,299,534.8L299,534.8z"/>
	<path id="XMLID_266_" fill="#6A3E33" d="M329.8,534.7c0-4.6,0-9.3,0-13.9c0-2.2,0.1-2.4,2.3-2.4c3.8,0,7.7,0,11.5,0
		c2,0,2.1,0,2.1,1.9c0,4.2,0,8.3,0,12.5c0,1.7-0.1,1.8-1.8,1.8C339.2,534.7,334.5,534.7,329.8,534.7L329.8,534.7z"/>
	<path id="XMLID_265_" fill="#A56248" d="M392.6,612.5c0,5.3,0,10.6,0,15.9c-4.4,0-8.7,0-13.1,0c-1,0-1.9,0-2.8,0.4
		c-0.2-0.1-0.2-0.2-0.2-0.3c0.1-0.1,0.1-0.2,0.2-0.2c0-5.3,0-10.6,0-15.9c-0.1-0.2-0.4-0.3-0.4-0.6c-0.5-4.7-0.8-9.4,0.2-14.1
		c0.2-0.3,0.5-0.3,0.8-0.1c0.7,1,0.6,2.1,0.6,3.2c0,2.8,0.1,5.6,0,8.4c0,1.9,0.7,2.6,2.6,2.5c3-0.1,5.9,0,8.9,0
		C390.5,611.8,391.7,611.6,392.6,612.5z"/>
	<path id="XMLID_264_" fill="#A56248" d="M376.8,628.3c0,0.2,0,0.3,0,0.5c-4.5,0-8.9,0-13.4,0c-2.4,0-2.4,0-2.5,2.5
		c0,3.7,0,7.5,0,11.2c0,2,0,2-2,2c-4.5,0-8.9,0-13.4,0c0-4.5,0.1-8.9,0.1-13.4c0-2.9,0-2.9,3-2.9C358,628.3,367.4,628.3,376.8,628.3
		z"/>
	<path id="XMLID_263_" fill="#A56248" d="M376.8,510.6c0,2.1,0,4.2,0,6.2c0,1.1-0.4,1.6-1.5,1.6c-4.2,0-8.5,0-12.7,0
		c-1.1,0-1.6-0.3-1.6-1.5c0-4.3,0-8.6,0-12.9c0-1,0.4-1.4,1.4-1.4c4.3,0,8.6,0,12.9,0c1.2,0,1.5,0.5,1.5,1.6
		C376.8,506.3,376.8,508.5,376.8,510.6z"/>
	<path id="XMLID_262_" fill="#A56248" d="M299,675.4c-0.2,0-0.4,0-0.5,0c-0.3,0.3-0.6,0.5-1,0.6c-4.4,0.3-8.8,0.3-13.2,0
		c-0.4,0-0.7-0.3-1-0.5c0-4.7-0.1-9.4,0-14.1c0-1.7,0.1-1.8,1.8-1.8c4.1,0,8.1,0,12.2,0c1.8,0,1.8,0.1,1.8,2
		C299,666.1,299,670.7,299,675.4z"/>
	<path id="XMLID_261_" fill="#6A3E33" d="M329.7,534.7c0,4.7,0.1,9.4,0,14.1c0,1.7-0.1,1.7-1.8,1.7c-4.1,0-8.3,0-12.4,0
		c-1.2,0-1.7-0.4-1.7-1.7c0-4.1,0-8.3,0-12.4c0-1.7,0.1-1.8,1.7-1.8C320.4,534.7,325.1,534.7,329.7,534.7
		C329.8,534.7,329.7,534.7,329.7,534.7z"/>
	<path id="XMLID_260_" fill="#6A3E33" d="M283.3,675.4c5.1,0,10.2,0,15.3,0c0.3,0.5,0.5,1.1,0.5,1.8c0,4.3,0,8.6,0,12.8
		c0,0.5-0.1,0.9-0.5,1.3c-4.5,0-8.9,0-13.4-0.1c-2,0-2,0-2-2C283.2,684.6,283.2,680,283.3,675.4z"/>
	<path id="XMLID_259_" fill="#A56248" d="M313.9,706.6c0-5,0-9.9,0-14.9c4.6,0,9.2,0,13.8,0c2,0,2,0,2,2c0,4.3,0,8.6,0,12.9
		C324.5,706.5,319.2,706.5,313.9,706.6z"/>
	<path id="XMLID_258_" fill="#512927" d="M282.8,236.7c0-4.6,0-9.3,0-13.9c0-2,0-2,2-2c0.6,0,1.1,0,1.7,0c34.4,0,68.7,0,103.1,0
		c1,0,2.1,0,3.1,0.1c1.2,5.3,1.3,10.5-0.1,15.8c-35.5,0-71,0-106.5,0C285,236.6,283.9,236.7,282.8,236.7z"/>
	<path id="XMLID_257_" fill="#A56248" d="M392.6,236.6c0-5.3,0-10.5,0.1-15.8c0,0,0,0,0,0c0.9-0.8,2.1-0.8,3.2-0.8
		c13.6,0,27.2,0,40.8,0c1,0,2.1-0.1,3,0.6c0.5,0.6,0.8,1.2,0.8,2c0,4.4,0.3,8.9-0.2,13.3c-0.1,0.3-0.3,0.6-0.5,0.8
		c-14.7,0-29.5,0-44.2,0C394.5,236.6,393.6,236.6,392.6,236.6z"/>
	<path id="XMLID_256_" fill="#A56248" d="M470.9,314.4c0-15.5,0-31,0-46.5c0.3-0.1-0.1-0.1,0.2-0.2c5.2-0.8,10.5-1,15.7,0.1
		c0.8,0.9,0.6,1.9,0.6,3c0,13.4,0.2,26.8,0.1,40.2c0,1.1,0.1,2.3-0.6,3.2c-0.6,0.7-1.5,0.9-2.4,0.9c-4.5,0-8.9,0.1-13.4,0
		C470.8,314.9,470.7,314.7,470.9,314.4z"/>
	<path id="XMLID_255_" fill="#A56248" d="M486.6,267.8c-5.2,0-10.5,0-15.7,0c-0.9-0.6-1.8-0.5-2.8-0.5c-3.8,0-7.5,0-11.3,0
		c-1.7,0-1.8-0.1-1.8-1.8c0-3.8,0-7.7,0-11.5c0-2.6,0-2.6-2.7-2.6c-3.6,0-7.2,0-10.8,0c-1.8,0-1.9-0.1-1.9-1.9c0-4.3,0-8.6,0-12.9
		c0-0.2,0-0.4,0-0.6c0.6-0.3,1.2-0.3,1.9-0.3c8.6,0.1,17.3,0,25.9,0c1.2,0,2.4-0.1,3.4,0.7l0,0c0.9,1.1,0.7,2.4,0.7,3.7
		c0,7.7,0,15.3,0,23c0,3.1,0.2,3.2,3.2,3.3c2.9,0,5.8,0,8.6,0c1.1,0,2.3-0.1,3.2,0.8l0,0c0.1,0.1,0.1,0.2,0.2,0.3
		C486.8,267.7,486.7,267.8,486.6,267.8z"/>
	<path id="XMLID_254_" fill="#512927" d="M235.7,314.4c0-4.3-0.1-8.6-0.1-12.9c0-10.3,0-20.6,0.1-30.9c0-0.2,0-0.5,0-0.7
		c0-2.3,0.2-2.5,2.4-2.5c4.3,0,8.6,0,12.9,0c0,2.4-0.1,4.8-0.1,7.2c0,7.5,0,15,0,22.5c0,2.4,0,2.4-2.3,2.4c-3.5,0-7,0-10.6,0
		c-2,0-2,0-2,2c0,3.5,0,7,0,10.6C236,312.9,236.3,313.7,235.7,314.4z"/>
	<path id="XMLID_253_" fill="#A56248" d="M471.4,361.4c-0.2,0-0.3,0-0.5,0c0-10.2,0-20.4,0-30.7c0.1-0.1,0.2-0.2,0.3-0.3
		c3.8-0.9,7.7-0.3,11.5-0.4c1.4-0.1,2.9-0.2,4.1,0.7c0.6,0.7,0.6,1.6,0.6,2.5c0,8.6,0,17.1,0,25.7c0,0.9,0,1.8-0.7,2.5l-0.1,0.1
		c-0.4,0.4-0.9,0.6-1.5,0.6c-4,0.2-8.1,0.1-12.1,0C472.4,362.1,471.9,361.9,471.4,361.4z"/>
	<path id="XMLID_252_" fill="#A56248" d="M470.9,314.4c0,0.2,0,0.3,0,0.5c0.1,0.3,0.1-0.1,0.2,0.2c0.9,5.2,1.1,10.4-0.1,15.6
		c0,0-0.1,0.1-0.1,0.1c-4.6,0-9.1,0-13.7,0c-2.1,0-2.1,0-2.1-2.1c0-4.1,0-8.2,0-12.2c0-1.8,0.1-1.9,1.9-1.9
		C461.6,314.4,466.2,314.4,470.9,314.4z"/>
	<path id="XMLID_251_" fill="#512927" d="M251.1,267.4c0-4.7-0.1-9.4,0-14.1c0-1.7,0.1-1.7,1.8-1.7c4.7,0,9.4,0,14.1,0
		c0,4.6,0,9.2,0,13.8c0,2,0,2-2,2C260.3,267.4,255.7,267.4,251.1,267.4z"/>
	<path id="XMLID_250_" fill="#512927" d="M266.9,251.6c0-4.4,0-8.8,0-13.1c0-1.7,0.1-1.8,1.8-1.8c4.7,0,9.4,0,14.1,0
		c0,4.4,0,8.7,0,13.1c0,1.7-0.1,1.7-1.8,1.7C276.3,251.6,271.6,251.6,266.9,251.6z"/>
	<path id="XMLID_249_" fill="#060608" d="M423.8,361.5c0-4.9,0-9.9,0-14.8c5.3-0.1,10.5-0.2,15.8,0c0,4.1,0,8.1,0,12.2
		c0,2.5,0,2.5-2.4,2.5C432.8,361.5,428.3,361.5,423.8,361.5z"/>
	<path id="XMLID_248_" fill="#D98D80" d="M299,534.7c-5.4-0.1-10.9-0.2-16.3,0c0-6.2,0-12.3,0-18.5c0-14.8,0-29.6,0.1-44.4
		c0.8-0.6,1.7-0.5,2.5-0.5c3.3,0,6.7,0,10,0c3.5,0,3.3,0.3,3.3-3.2c0-4.2,0-8.4,0-12.7c0,0,0,0,0,0c0.1-0.3,0.2-0.3,0.4-0.1
		c0,0,0.1,0.1,0.1,0.1c0,9.3-0.1,18.5-0.1,27.8c0,0.4,0,0.8,0,1.2c0,3.1,0,3.1-3,3.1c-3.4,0-6.9,0-10.3,0c-2.5,0-2.5,0-2.5,2.5
		c0,9.4,0,18.8,0,28.2c0,4.3,0,8.6,0,12.9c0,3-0.2,2.9,2.8,2.9c3.6,0,7.2,0,10.8,0C297.6,534.3,298.4,534,299,534.7z"/>
	<path id="XMLID_247_" fill="#A56248" d="M299,455.5c-0.1,0-0.3,0.1-0.4,0.1c0-4.3,0-8.6-0.1-12.9c0-2,0-2-2-2c-3.8,0-7.7,0-11.5,0
		c-1.8,0-1.9-0.1-1.9-1.9c0-4,0-8,0-12c0-1.9,0-1.9,2.1-1.9c4.2,0,8.5,0,12.7,0c0.3,0,0.6-0.1,1-0.1c0,5.4,0.1,10.8,0.1,16.2
		C299.1,445.8,299,450.7,299,455.5z"/>
	<path id="XMLID_246_" fill="#C77A66" d="M517.9,424.3c0,9.4,0,18.7,0,28.1c0,0.6,0,1.3,0,1.9c0,0.8-0.4,1.2-1.2,1.2
		c-0.2,0-0.5,0-0.7,0c-9.6,0-19.2,0-28.8,0c0-25.1,0-50.2,0-75.4c0-2.3,0-2.4,2.4-2.4c4,0,8,0,12,0c0.8,0.9,0.7,2.1,0.7,3.2
		c0,3,0,6.1,0,9.1c0,2.5,0.3,2.8,2.8,2.8c3.3,0.1,6.5,0,9.8,0c1.1,0,2.3-0.1,3.2,0.7c0.7,1,0.6,2.1,0.6,3.2c0,8,0,16.1,0,24.1
		C518.7,422.1,518.9,423.4,517.9,424.3z"/>
	<path id="XMLID_245_" fill="#6A3E33" d="M486.8,361.4c0-10.2,0-20.4-0.1-30.6c-0.1-0.1-0.2-0.3-0.1-0.4c0-0.1,0.1-0.2,0.1-0.2
		c0.8,0.6,1.8,0.5,2.7,0.5c4,0.1,8.1-0.2,12.1,0.1c0.4,0.6,0.2,1.2,0.2,1.9c0,9,0,18,0,27c0,0.6,0.2,1.3-0.3,1.9
		C496.6,361.5,491.7,361.4,486.8,361.4z"/>
	<path id="XMLID_244_" fill="#6A3E33" d="M501.6,361.5c0-10.2,0-20.5,0-30.7c0.7,0.7,0.4,1.7,0.4,2.5c0,8.4,0,16.7,0,25.1
		c0,0.6,0,1.1,0,1.7c0,1,0.5,1.4,1.4,1.4c2.7,0,5.4,0,8.1,0c2.1,0,4.1,0,6.2,0c0,4.5,0.1,9.1,0.1,13.6c0,0.9,0,1.7,0.1,2.6
		c-0.6,0.7-1.4,0.8-2.2,0.8c-3.8,0.1-7.6,0.1-11.5,0c-0.8,0-1.6-0.1-2.2-0.8c0-4.5-0.1-9-0.1-13.4
		C502,363.3,502.2,362.4,501.6,361.5z"/>
	<path id="XMLID_243_" fill="#A56248" d="M502.1,377.7c5.3,0,10.5,0,15.8,0c0,0,0,0,0,0c0.5,0.6,0.7,1.3,0.7,2c0.1,4,0.1,8,0,12
		c0,0.7-0.1,1.4-0.8,1.9c-4.5,0-9.1,0-13.6,0c-2.5,0-2.6-0.1-2.6-2.7c0-4.4,0-8.7,0-13.1C501.8,377.7,502,377.7,502.1,377.7z"/>
	<path id="XMLID_242_" fill="#C77A66" d="M471.4,361.4c5.1,0,10.2,0,15.3,0c0,4.6,0.1,9.3,0,13.9c0,1.8-0.1,1.8-1.9,1.8
		c-3.8,0-7.7,0-11.5,0c-1.8,0-1.9-0.1-1.9-1.9C471.3,370.7,471.4,366.1,471.4,361.4z"/>
	<path id="XMLID_241_" fill="#512927" d="M439.7,220.8c-15.7,0-31.4,0-47.1,0c0-4.6,0-9.1,0-13.7c0-2.5,0.1-2.6,2.5-2.6
		c14.1,0,28.1,0,42.2,0c2.3,0,2.3,0,2.3,2.2c0,3.8,0,7.7,0,11.5c0,0.9-0.1,1.8,0.5,2.5C440.1,220.9,439.9,220.9,439.7,220.8z"/>
	<path id="XMLID_240_" fill="#10070A" d="M189.1,220.8c0-4.5,0-8.9,0-13.4c0-2.4,0-2.4,2.3-2.4c3.4,0,6.9,0,10.3,0
		c0.8,0,1.6,0.2,2.3-0.4c4.5,0,9.1,0,13.6,0c2.1,0,2.2,0,2.2,2.1c0,4,0,8,0,12c0,2.2,0,2.3-2.3,2.3
		C208.1,220.8,198.6,220.8,189.1,220.8z"/>
	<path id="XMLID_239_" fill="#512927" d="M439.7,220.8c0.2,0,0.3,0,0.5,0c9.1,0,18.2,0,27.3,0c0.6,0,1.1,0,1.7,0
		c1.3-0.1,1.6,0.5,1.6,1.7c0,2.9,0,5.8,0,8.6c0,1.8,0,3.7,0,5.5c-9.4,0-18.8,0-28.2,0c-1,0-2.1,0.2-3-0.5
		C439.7,231,439.7,225.9,439.7,220.8z"/>
	<path id="XMLID_238_" fill="#512927" d="M486.7,267.4c-4.4,0-8.8,0-13.1,0c-2.6,0-2.7,0-2.7-2.6c0-9.4,0-18.8,0-28.2
		c4.5,0,9.1,0,13.6,0c2.2,0,2.2,0,2.2,2.1C486.7,248.3,486.7,257.8,486.7,267.4z"/>
	<path id="XMLID_237_" fill="#6A3E33" d="M486.7,314.4c0-15,0-30.1,0-45.1c0-0.5-0.1-0.9-0.1-1.4c0,0,0.1,0,0.1,0
		c1.6,0.4,1.2,1.7,1.2,2.7c0.1,3,0,5.9,0,8.9c0,3.3,0.1,3.4,3.6,3.5c2.7,0,5.4-0.1,8.2,0.1c1.3,0.1,2.2,0.5,2.2,2.2
		c-0.1,9.4,0,18.9,0,28.3c0,0.3-0.1,0.6-0.2,0.9c-4,0-8.1,0-12.1,0.1c-0.9,0-1.9-0.1-2.7,0.5c-0.1-0.1-0.2-0.2-0.1-0.4
		C486.6,314.4,486.7,314.4,486.7,314.4z"/>
	<path id="XMLID_236_" fill="#6A3E33" d="M486.7,314.4c0,0.2,0,0.4,0,0.6c0,5.1,0,10.2,0,15.2c0,0.2,0,0.4,0,0.6
		c-5.2,0-10.5-0.1-15.7-0.1c0-5.3-0.1-10.5-0.1-15.8c0.9-0.5,1.8-0.5,2.8-0.5C478,314.4,482.4,314.4,486.7,314.4z"/>
	<path id="XMLID_235_" fill="#512927" d="M501.6,314.4c0-9,0-18.1,0-27.1c0-0.5,0-1,0-1.4c0-2.1,0-2.2-2.1-2.2c-3.1,0-6.2,0-9.4,0
		c-0.5,0-1,0-1.4,0c-1.2,0.1-1.5-0.5-1.5-1.6c0-1.8,0-3.7,0-5.5c0-2.3,0-4.6,0-7c0-0.6,0.1-1.3-0.5-1.8c0-0.1,0-0.3,0-0.4
		c4.2,0,8.5,0,12.7,0c2.5,0,2.6,0.1,2.6,2.5c0,14.2,0,28.3,0,42.5C502.1,313.1,502.3,313.8,501.6,314.4z"/>
	<path id="XMLID_234_" fill="#6A3E33" d="M517.8,393.6c0-5.3,0.1-10.6,0.1-15.9c4.2,0,8.5,0,12.7,0c3.4,0,3.1-0.3,3.1,3
		c0,11.3,0,22.7,0,34c0,3.3,0,6.7,0,10c-4.4,0-8.7,0-13.1,0c-1,0-1.9,0.1-2.8-0.4C517.9,414.1,517.9,403.9,517.8,393.6z"/>
	<path id="XMLID_233_" fill="#6A3E33" d="M423.9,691.2c0-4.4,0-8.9,0-13.3c0-0.9,0-1.7,0.5-2.5c9,0,18.1,0,27.1,0c0.6,0,1.3,0,1.9,0
		c0.8,0,1.2,0.4,1.2,1.2c0,4.5,0,9,0,13.4c0,0.8-0.4,1.2-1.2,1.2c-0.4,0-0.8,0-1.2,0C442.7,691.2,433.3,691.2,423.9,691.2z"/>
	<path id="XMLID_232_" fill="#6A3E33" d="M501.5,628.3c-4.2,0-8.3,0-12.5-0.1c-2.3,0-2.3,0-2.3-2.2c0-8.8,0-17.6,0-26.4
		c0-2.1,0-2.1,2.1-2.1c3.5,0,7,0,10.5,0c2.1,0,2.1,0,2.1,2.1c0,8.6,0,17.2,0,25.9c0,0.9,0,1.8,0.1,2.6
		C501.6,628.2,501.5,628.3,501.5,628.3z"/>
	<path id="XMLID_231_" fill="#6A3E33" d="M564.9,440.6c4.6,0,9.1,0,13.7,0c2.2,0,2.2,0,2.2,2.1c0,8.9,0,17.8,0,26.6c0,2,0,2-2,2
		c-3.9,0-7.8,0-11.8,0c-2,0-2.1,0-2.1-2.2C564.9,459.6,564.9,450.1,564.9,440.6C564.9,440.6,564.9,440.6,564.9,440.6z"/>
	<path id="XMLID_230_" fill="#10070A" d="M564.9,518.3c-0.1,0-0.2,0.1-0.3,0.2c-4.1,0-8.3,0-12.4-0.1c-2,0-2.1,0-2.1-2
		c0-4.6,0-9.2,0.1-13.9c4.3,0,8.6,0,12.9,0c1.8,0,1.9,0,1.9,1.9C564.9,509.1,564.9,513.7,564.9,518.3z"/>
	<path id="XMLID_229_" fill="#C77A66" d="M282.7,597.6c0,5,0,9.9,0,14.9c-5.3,0-10.5,0-15.8,0c0-5,0-9.9,0-14.9
		C272.2,597.6,277.5,597.6,282.7,597.6z"/>
	<path id="XMLID_228_" fill="#E6E6E6" d="M377.3,597.6c-0.2,0-0.3,0-0.5,0c-0.9,0.8-2.1,0.8-3.2,0.8c-23.8,0-47.6,0-71.5,0
		c-1.1,0-2.3,0-3.2-0.7c-5.4-0.3-10.8-0.1-16.2-0.1c0-5.2,0-10.5,0-15.7c1-0.1,1.9-0.2,2.9-0.2c34.7,0,69.4,0,104.1,0
		c3.3,0,3-0.3,3,2.9c-0.1,4.3,0.2,8.6-0.2,12.9c-0.3,0.1,0.1,0.1-0.2,0.1C387.4,598.7,382.3,598.9,377.3,597.6z"/>
	<path id="XMLID_227_" fill="#CCCCCC" d="M298.9,597.7c1,0,2.1-0.1,3.1-0.1c24.9,0,49.8,0,74.7,0c0,4.9,0,9.9,0,14.8
		c-0.9,0-1.8,0.1-2.6,0.1c-24.1,0-48.1,0-72.2,0c-0.3,0-0.6,0-1,0c-2.1,0-2.1,0-2.1-2.1C298.9,606.1,298.9,601.9,298.9,597.7z"/>
	<path id="XMLID_226_" fill="#832229" d="M377.3,597.6c5.1,0,10.2,0,15.4,0c0,5,0,9.9,0,14.9c-4.4,0-8.9,0-13.3,0c-2,0-2,0-2-2
		C377.2,606.2,377.3,601.9,377.3,597.6z"/>
</g>
</svg>
