<?xml version="1.0" encoding="utf-8"?>
<!-- Generator: Adobe Illustrator 19.0.0, SVG Export Plug-In . SVG Version: 6.00 Build 0)  -->
<svg version="1.2" baseProfile="tiny" id="Layer_2" xmlns="http://www.w3.org/2000/svg" xmlns:xlink="http://www.w3.org/1999/xlink"
	 x="0px" y="0px" viewBox="0 0 800 800" xml:space="preserve">
<g id="XMLID_2_">
	<path id="XMLID_426_" fill="#B6BD75" d="M580.9,753.8c-83.7,0-167.4,0-251,0c-0.8-0.8-0.8-1.9-0.8-2.9c0-8.4,0-16.8,0-25.2
		c0-3.2,0.6-3.8,3.8-3.8c3-0.1,6.1,0,9.1,0c2.6,0,2.9-0.3,2.9-2.9c0-7.4,0-14.7,0-22.1c0-10.9,0-21.7,0-32.6c0-5.1,0.2-5.3,5.2-5.3
		c2.9,0,5.8,0,8.6,0c1.7,0,2.5-0.7,2.5-2.4c0-2.9,0-5.8,0-8.6c0-4.4,0.3-4.7,4.6-4.7c24.6,0,49.2,0,73.9,0c19.4,0,38.8,0,58.2,0
		c0.9,0,1.8,0,2.6,0c1.9,0,2.8,0.9,2.8,2.8c0.1,2.3,0,4.6,0,6.9c0,1.1,0,2.2,0.1,3.4c0.1,1.8,1,2.7,2.9,2.7c3-0.1,5.9,0,8.9,0
		c1.1,0,2.2-0.1,3.3,0.3c0.3,0.1,0.5,0.3,0.7,0.6c0.9,3.4,0.4,6.8,0.4,10.2c0.1,4.7,0,4.7,4.8,4.7c2.4,0,4.8,0,7.2,0
		c2,0,2.9,1,2.9,3c0,3,0,6.1,0,9.1c0,2.5,0.3,2.7,2.8,2.8c3.2,0.1,6.4,0,9.6,0c2.8,0.1,3.3,0.7,3.4,3.5c0.1,3.1,0,6.2,0,9.3
		c0,3.2,0.3,3.4,3.4,3.5c3.1,0,6.2,0,9.3,0c2.9,0.1,3.5,0.6,3.6,3.6c0.1,3.2,0.1,6.4,0,9.6c0,1.9,0.8,2.7,2.7,2.7c3,0,5.9-0.1,8.9,0
		c2.6,0.1,3.3,0.7,3.3,3.3c0.1,8.7,0.1,17.4,0,26.1C581.6,752.2,581.5,753.1,580.9,753.8z"/>
	<path id="XMLID_425_" fill="#ADAB6E" d="M439.8,643.8c-24.9,0-49.7,0-74.6,0c-3.4,0-3.1-0.2-3.1,3.1c0,3.4,0,6.9,0,10.3
		c0,2.2-0.2,2.4-2.5,2.4c-3.8,0-7.5,0-11.3,0c-2.5,0-2.5,0-2.5,2.7c0,13.9,0,27.8,0,41.7c0,5.3,0,10.6,0,15.8c0,2.6,0,2.6-2.7,2.6
		c-3.7,0-7.4,0-11,0c-2.1,0-2.1,0-2.1,2.2c0,9.7,0,19.4,0,29c-31.4,0-62.7,0-94.1,0c-0.6-0.7-0.7-1.6-0.7-2.5c0-8.9-0.1-17.8,0-26.7
		c0-0.6,0.1-1.1,0.3-1.6c0.1-0.3,0.3-0.5,0.6-0.7c3.4-0.9,6.8-0.4,10.2-0.4c4.7-0.1,4.7,0,4.7-4.7c0-7.7,0-15.3,0-23
		c0-1.4-0.2-2.9,1.2-4c1.6-0.8,3.3-0.5,5-0.5c3.6,0,7.2-0.1,10.8,0c3.8-0.1,7.6,0,11.4,0c2.6,0,2.8-0.3,2.9-2.9
		c0.1-3.6-0.4-7.3,0.3-10.9c0.1-0.3,0.3-0.5,0.6-0.6c2.1-0.7,4.3-0.3,6.4-0.4c1.8-0.1,3.7,0,5.5,0c2.6,0,2.9-0.3,2.9-2.9
		c0-2,0-4,0-6c0-6.3,0-12.6,0-18.9c0-1.4-0.2-2.9,1.2-4c1.5-0.7,3.1-0.5,4.7-0.5c3.7,0,7.5-0.1,11.2,0c1.4-0.1,2.9-0.1,4.3-0.1
		c38.5,0,77,0,115.5,0c1.5,0,3-0.2,4.5,0.4C439.6,643.2,439.8,643.5,439.8,643.8z"/>
	<path id="XMLID_424_" fill="#97915E" d="M267.9,690.4c-5.3,0-10.6,0-15.8,0c-1.2,0.8-2.6,0.7-3.9,0.7c-2.9,0-5.7,0-8.6,0
		c-2.7,0-3,0.3-3,3.1c0,8.2,0,16.4,0,24.7c0,1.3,0.2,2.6-0.7,3.7h0c-0.9,0.8-2.1,0.7-3.2,0.7c-2.6,0-5.3,0-7.9,0c-2.8,0-3,0.2-3,3
		c0,2.9,0.1,5.7,0,8.6c-0.1,2.7-0.6,3.2-3.3,3.3c-3.1,0.1-6.2,0-9.3,0c-3.1,0-3.2,0.1-3.2,3.3c0,3,0,6.1,0,9.1
		c0,1.1,0.1,2.3-0.7,3.2c-31.5,0-63,0-94.6,0c0-5.5,0-10.9,0-16.3c9.7,0,19.3,0,29,0c0.2,0,0.3,0,0.5,0c1.7-0.1,1.7-0.1,1.8-1.7
		c0-3,0-6.1,0-9.1c0-0.9,0.1-1.8,0-2.6c-0.1-1.2,0.5-1.5,1.6-1.5c3.7,0,7.4,0,11,0c0.6,0,1.3,0,1.9,0c1.3,0.1,1.7-0.5,1.6-1.7
		c0-3.3,0-6.6,0-9.8c0-1.3-0.6-3,0.3-4c1-1.1,2.7-0.4,4.1-0.4c8.1,0,16.1,0,24.2,0c2.2,0,2.3,0,2.3-2.2c0-3.8,0-7.5,0-11.3
		c0-2.8-0.2-2.6,2.5-2.6c8.8,0,17.6,0,26.4,0c3.6,0,3.1,0.4,3.1-3.2c0-3.4,0-6.7,0-10.1c0-1.2,0.4-1.7,1.7-1.6c3.6,0.1,7.2,0,10.8,0
		c2.5,0,2.5,0,2.5-2.4c0-3.7,0-7.4,0-11c0-2.5,0-2.5,2.5-2.5c8.9,0,17.7,0,26.6,0c3.5,0,2.9,0,3-3c0.1-4.2-0.2-8.5,0.1-12.7
		c4.6-0.5,9.2-0.1,13.8-0.2c1,0,1.4,0.6,1.6,1.4c0.1,0.6,0.1,1.3,0.1,1.9c0,8.5,0,16.9,0,25.4c0,1.1,0.1,2.3-0.8,3.2l0,0
		c-0.9,0.8-2.1,0.7-3.2,0.7c-2.9,0-5.9,0-8.8,0c-1.5,0-2.2,0.6-2.1,2.1c0,2.9,0,5.9,0,8.8C268.6,688.3,268.7,689.5,267.9,690.4z"/>
	<path id="XMLID_423_" fill="#B2B379" d="M580.9,753.8c0-9.3,0-18.6,0-27.8c0-0.6,0-1.1,0-1.7c0.1-1.2-0.4-1.7-1.7-1.7
		c-3,0.1-5.9,0-8.9,0c-4.3,0-4.3,0-4.3-4.3c0-2.9,0-5.8,0-8.6c0-3.1,0.2-2.9-2.8-2.9c-3.7,0-7.4,0-11,0c-2.3,0-2.4-0.2-2.5-2.5
		c0-3.8,0-7.7,0-11.5c0-2.3,0-2.3-2.2-2.3c-3.5,0-7,0-10.6,0c-3.2,0-3.1,0.3-3-2.9c0-3.2,0-6.4,0-9.6c0-2.3,0-2.3-2.4-2.3
		c-3.5,0-7,0-10.6,0c-1.8,0-1.9-0.1-1.9-1.9c0-4.6,0-9.3,0-13.9c0.8-0.8,1.9-0.6,2.9-0.7c8.2,0,16.5,0,24.7,0c3.2,0,3.8,0.5,3.8,3.7
		c0.1,3,0,6.1,0,9.1c0,2.5,0.3,2.8,2.7,2.9c3,0.1,6.1,0,9.1,0c1.9,0,2.5-0.8,2.5-2.6c-0.1-3.1,0-6.2,0-9.3c0-1.1,0-2.3,0.8-3.2
		c0.8,0.6,0.4,1.5,0.4,2.2c0,4.5,0,9.1,0,13.6c0.8,0.9,0.7,2.1,0.7,3.2c0,2.6,0,5.3,0,7.9c0,2.9,0.2,3.1,3.2,3.1
		c7.7,0,15.5,0,23.2,0c1.3,0,2.6-0.1,3.7,0.7c4.7,0,9.4,0,14.1,0c2,0,2,0,2,2c0,3.8,0,7.7,0,11.5c0,2.4,0,2.4,2.5,2.4
		c8.5,0,17.1,0,25.6,0c0.8,0,1.8-0.4,2.5,0.4c-1.1,1-2.4,0.7-3.7,0.7c-7.7,0-15.3,0-23,0c-3,0-3.2,0.2-3.2,3.3c0,2.7,0,5.4,0,8.1
		c0,2.6,0.3,2.9,2.9,2.9c7.8,0,15.6,0,23.4,0c1.3,0,2.6-0.1,3.7,0.7l0,0c0.7,1,0.7,2.1,0.7,3.2c0,3,0,5.9,0,8.9
		c0,1.5,0.7,2.2,2.2,2.1c3.3,0,6.5,0,9.8,0c1.8,0,2.4-0.8,2.4-2.5c0-2.9,0-5.7,0-8.6c0-1-0.1-2.1,0.7-2.9c0.8,0.6,0.4,1.5,0.4,2.2
		c0.1,4.2,0.1,8.4,0.1,12.6c1.1,2.3,1.1,14,0,16.3C633.7,753.8,607.3,753.8,580.9,753.8z"/>
	<path id="XMLID_422_" fill="#A2A16B" d="M455.6,16.5c0,0.2,0.1,0.3,0.1,0.5c0,10,0,20.1,0,30.1c0.2,0.3,0.2,0.6-0.1,0.8
		c-0.8,0.5-1.6,0.6-2.5,0.6c-4.4,0-8.8,0.1-13.3,0c-4.9,0-9.9,0.3-14.8-0.2c-0.3-0.1-0.5-0.3-0.7-0.6c0.8-0.8,0.5-1.8,0.5-2.7
		c0-9.5,0-19,0-28.4C435.1,16.5,445.4,16.5,455.6,16.5z"/>
	<path id="XMLID_421_" fill="#A39764" d="M205,753.8c0-4.4,0-8.8,0-13.2c0-3.4-0.3-3.2,3-3.2c3.6,0,7.2,0,10.8,0c2,0,2,0,2-2
		c0-3.3,0-6.5,0-9.8c0-3.3-0.2-3,3.2-3c3.9,0,7.8,0,11.7,0c0,10.4,0,20.8,0,31.2C225.5,753.8,215.3,753.8,205,753.8z"/>
	<path id="XMLID_420_" fill="#97915E" d="M660.1,753.8c0-5.4,0-10.9,0-16.3c9.2,0,18.4,0,27.6,0c0.9,0,1.8,0.1,2.6,0.1
		c0.4,5.4,0.4,10.8,0,16.2C680.2,753.8,670.2,753.8,660.1,753.8z"/>
	<path id="XMLID_419_" fill="#A8A479" d="M690.3,753.8c0-5.4,0-10.8,0-16.2c0.2,0,0.3-0.1,0.5-0.1c0,5.2,0,10.4,0,15.6
		C690.8,753.3,691.1,753.9,690.3,753.8z"/>
	<path id="XMLID_418_" fill="#ABAB6E" d="M486.3,94.7c0.9,0.7,0.5,1.8,0.5,2.6c0,13.7,0,27.4,0,41.1c0,3.2-0.3,2.9,3,2.9
		c3.5,0,7,0,10.5,0c0.8,0,1.6-0.3,2.3,0.4c-0.1,0.1-0.2,0.2-0.3,0.3c-3.4,0.9-6.8,0.3-10.2,0.4c-4.5,0.1-4.5,0-4.5,4.5
		c0,7.7,0,15.3,0,23c0,1.2,0.1,2.4-0.5,3.5c-0.9,0.8-2.1,0.7-3.2,0.7c-2.8,0-5.6,0-8.4,0c-2.5,0-2.8,0.3-2.8,2.7c0,2.6,0,5.3,0,7.9
		c0,2.5,0.3,2.7,2.7,2.8c3.7,0.1,7.5-0.2,11.2,0.1c0.6,0.2,1.2,0.3,1.2,1.1c-0.3,0.3-0.8,0.5-1.3,0.6c-3.5,0.3-7,0.1-10.5,0.1
		c-3.1,0.1-3.3,0.2-3.3,3.3c0,8,0,16,0,24c0,4-0.4,4.4-4.4,4.4c-3,0-5.9,0-8.9,0c-2.7,0-3,0.3-3,3.1c0,7.4,0,14.9,0,22.3
		c0,0.9,0,1.8,0,2.6c-0.1,2.4-0.7,3-3,3.1c-3.8,0.1-7.5,0.1-11.3,0c-2.3-0.1-2.9-0.7-3-3.1c-0.1-3.4,0-6.9-0.1-10.3
		c0-2.5-0.3-2.8-2.7-2.8c-2.6,0-5.1,0-7.7,0c-2.7,0-2.9,0.2-2.9,3.1c0,7.8,0,15.5,0,23.3c0,5.8,0,5.7-5.7,5.8
		c-3.3,0.1-6.7-0.5-10,0.4c-0.9,0.7-0.7,1.7-0.7,2.7c0,2.9,0,5.8,0,8.6c-0.1,2.5-0.6,3.1-3.2,3.1c-3.2,0.1-6.4,0-9.6,0
		c-2.7,0-3,0.2-3,3.1c0,8.3-0.1,16.6-0.1,24.9c0,1.2,0.2,2.4-0.5,3.5c-1,0.8-2.1,0.7-3.2,0.7c-3.1,0-6.2,0.1-9.3,0
		c-2-0.1-2.7,0.7-2.7,2.7c0,7.4,0,14.9,0,22.3c0,1,0,1.9,0,2.9c-0.1,2.7-0.6,3.2-3.3,3.3c-2.6,0.1-5.1,0-7.7,0c-3.9,0-3.9,0-3.9,3.8
		c0,3.8,0.1,7.5,0,11.3c0.1,4.1,0,8.1,0,12.2c0,1,0,1.9-0.7,2.7c-0.8,0.7-1.8,0.7-2.7,0.7c-3.6,0-7.2,0.1-10.8,0
		c-3-0.1-3.6-0.6-3.6-3.7c-0.1-7.5,0-15,0-22.5c0-0.8,0-1.6,0-2.4c0-1.2-0.6-1.9-1.9-2c-3.5-0.1-7-0.1-10.6,0
		c-1.2,0-1.7,0.6-1.8,1.8c0,0.8,0,1.6,0,2.4c0,12.6,0,25.3,0,37.9c0,1.3,0.1,2.6-0.4,3.8c-0.6,1-1.5,1.1-2.5,1.1
		c-14.8,0-29.5,0.2-44.3-0.1c-0.2,0-0.3-0.1-0.5-0.1c-3.8-0.6-7.7-0.2-11.6-0.3c-1.2,0-2.5,0.2-3.6-0.7c-0.7-1-0.6-2.1-0.6-3.2
		c0-8.1,0-16.2,0-24.3c0-1.1-0.1-2.2,0.6-3.2c0.9-0.8,2.1-0.8,3.2-0.8c2.6,0,5.3,0,7.9,0c2.9,0,3.1-0.2,3.2-3.1c0-7.7,0-15.5,0-23.2
		c0-0.9,0-1.8,0-2.6c0.1-2.5,0.7-3,3.2-3.1c3.3-0.1,6.5,0,9.8,0c2.5,0,2.7-0.3,2.8-2.8c0-7.8,0-15.7,0-23.5c0-1.3-0.2-2.6,0.6-3.7
		c0.9-0.8,2.1-0.7,3.2-0.7c2.9,0,5.7,0,8.6,0c3.9,0,3.9,0,3.9-3.8c0-7.6,0-15.3,0-22.9c0-1.3-0.2-2.6,0.6-3.7
		c0.8-0.8,1.9-0.7,2.9-0.8c2.1,0,4.2,0,6.2,0c5.6,0,5.1,0.5,5.1-5.2c0-2.3,0-4.6,0-6.9c0-1,0-2.1,0.6-3c1-0.8,2.3-0.7,3.4-0.7
		c3.1,0,6.2-0.1,9.3,0c1.8,0,2.5-0.7,2.5-2.5c0-4.4-0.1-8.7,0-13.1c-0.1-4.1,0-8.2,0-12.3c0-0.9,0-1.7,0.5-2.5
		c0.9-0.9,2.1-0.7,3.2-0.8c3.3,0,6.6,0,9.8,0c2.5,0,2.7-0.3,2.8-2.8c0.2-4-0.4-8,0.3-12c0.1-0.3,0.3-0.5,0.6-0.7
		c2.4-0.8,4.9-0.3,7.3-0.4c1.3-0.1,2.7-0.1,4.1,0c2,0.1,2.8-0.7,2.6-2.7c-0.3-3.9,0.5-7.8-0.5-11.6c-0.7-0.8-1.6-0.6-2.5-0.6
		c-2.8,0-5.6,0-8.4,0c-3.1,0-3.5-0.5-3.6-3.7c0-2.7-0.1-5.4,0-8.1c0-1.9-0.8-2.6-2.6-2.5c-3,0.1-5.9,0-8.9,0c-2.7,0-2.9,0.2-2.9,3.1
		c0,7.6,0,15.2,0,22.8c0,1.2,0.1,2.4-0.3,3.6c-0.1,0.3-0.3,0.5-0.6,0.6c-0.1-0.1-0.3-0.1-0.4-0.2c0-1.8,0.1-3.7,0.1-5.5
		c0-7.8,0-15.6,0-23.4c0-2.2,0-2.2,2.2-2.2c4.6,0,9.2,0,13.8,0c1-0.7,2.1-0.7,3.2-0.7c2.8,0,5.6,0,8.4,0c2.5,0,2.7-0.3,2.7-2.8
		c0-2.9,0-5.9,0-8.8c0-1-0.1-2.1,0.3-3.1c0.1-0.3,0.3-0.5,0.6-0.7c3.6-0.9,7.3-0.2,10.9-0.4c1.3-0.1,2.7,0.3,4-0.4
		c0.9-0.7,0.6-1.8,0.6-2.7c0-3.3,0-6.5,0-9.8c0.1-2.3,0.5-2.8,2.9-2.8c3.4-0.1,6.9-0.1,10.3,0c2,0,2.7-0.7,2.7-2.7
		c0-4.1-0.3-8.3,0.2-12.4c0.1-0.3,0.3-0.5,0.5-0.7c1.7-1,3.6-0.5,5.4-0.6c2.4-0.1,4.8-0.1,7.2,0c1.8,0.1,2.6-0.7,2.5-2.5
		c0-3.9-0.1-7.8,0-11.7c-0.1-4.4,0-8.9,0-13.3c0-0.9,0-1.7,0.6-2.5c0.9-0.8,2.1-0.7,3.2-0.7c2.6,0,5.2,0,7.9,0
		c3.1,0,3.2-0.1,3.3-3.2c0-2.9,0-5.9,0-8.8c0-1.1-0.1-2.2,0.6-3.2c0.8-0.6,1.8-0.5,2.8-0.5c3.5,0,7,0,10.5,0c3.4,0,3.8,0.5,3.9,3.9
		c0,3,0.1,6.1,0,9.1c0,1.9,0.7,2.8,2.7,2.7c2.8-0.1,5.6,0,8.4,0c2.5,0,2.7-0.3,2.8-2.8c0-7.6,0-15.2,0-22.8c0-5.8,0-11.5,0-17.3
		c0-1.2-0.1-2.4,0.8-3.4c0.9,0.7,0.4,1.6,0.4,2.4c0,13.9,0,27.9,0,41.8c0,0.9-0.3,1.9,0.6,2.7c0.4,4.8,0.2,9.6,0.1,14.4
		c0,0.6-0.2,1.1-0.5,1.6c-0.9,0.8-2.1,0.7-3.2,0.7c-3.1,0-6.2,0.1-9.3,0c-1.9,0-2.8,0.6-2.7,2.6c0.1,2.8,0.1,5.6,0,8.4
		c0,1.8,0.7,2.4,2.4,2.4c3.2,0,6.4,0,9.6,0c1.1,0,2.3-0.1,3.2,0.6c0.9,1.3,0.6,2.8,0.6,4.2c0,3,0.1,5.9,0,8.9c0,1.8,0.6,2.6,2.5,2.6
		c2.6-0.1,5.1,0,7.7,0c2.5-0.1,2.7-0.3,2.7-3.1c0-9.3,0-18.5,0-27.8c0-4.1,0-8.1,0-12.2C485.6,96.8,485.5,95.6,486.3,94.7z"/>
	<path id="XMLID_417_" fill="#A2A16B" d="M329.8,251.7c0,4.6,0,9.2,0,13.8c0,2,0,2-2,2c-4.3,0-8.6,0-12.9,0
		c-0.1-0.1-0.2-0.2-0.3-0.3c-0.8-1.9-0.4-3.9-0.4-5.9c0-3.2-0.2-6.5,0.1-9.7c0.8-0.8,0.5-1.8,0.5-2.7c0-8.4,0-16.8,0-25.2
		c0-0.5,0-1,0-1.4c0.1-1.7,0.1-1.7,1.7-1.8c3.4,0,6.7,0,10.1,0c0.6,0,1.1,0,1.7,0c1.2,0.1,1.5-0.5,1.5-1.6c0-3.7,0-7.4,0-11
		c0-0.6,0-1.1,0-1.7c-0.1-1.2,0.4-1.7,1.6-1.7c2.7,0.1,5.4,0,8.2,0c2,0,4,0,6,0c0,0,0.1,0.2,0.1,0.2c0.3,0.3,0.5,0.6,0.5,1
		c0.3,4.5,0.3,9,0,13.5c0,0.5-0.3,0.9-0.6,1.3c0,5,0,9.9,0,14.9c-0.9,0.8-2.1,0.7-3.2,0.7c-3.2,0-6.4,0-9.5,0
		c-1.7,0-2.4,0.7-2.4,2.4c0,3.3,0,6.7,0,10C330.6,249.6,330.7,250.8,329.8,251.7z"/>
	<path id="XMLID_416_" fill="#A2A16B" d="M298.6,298.7c0,9.2,0,18.4,0,27.5c0,0.6,0,1.1,0,1.7c0.1,1.2-0.5,1.5-1.6,1.5
		c-3.6,0-7.2,0-10.8,0c-0.6,0-1.1,0-1.7,0c-1.7,0.1-1.8,0.1-1.8,1.8c0,3.8,0,7.7,0,11.5c0,5.5,0,11,0,16.5c0,2.3,0,2.3-2.4,2.3
		c-4.2,0-8.3,0-12.5,0c-0.1-0.1-0.2-0.2-0.3-0.3c-0.9-3.4-0.3-6.8-0.4-10.2c-0.1-4.9,0.3-4.5-4.6-4.6c-3.4-0.1-6.9,0.5-10.2-0.4
		c-0.1-0.1-0.2-0.2-0.3-0.3c0.7-0.7,1.5-0.4,2.3-0.4c3.7,0,7.5,0,11.2,0c2.2,0,2.3,0,2.3-2.2c0-8.3,0-16.6,0-24.9c0-0.6,0-1.1,0-1.7
		c0-2.1,0-2.1,2.1-2.1c4.2,0,8.5,0,12.7,0c0.8-0.6,0.3-1.5,0.4-2.2c0.1-4.5-0.2-9.1,0.2-13.6c0.2-0.2,0.5-0.5,0.8-0.5
		c4.8-0.3,9.5-0.6,14.3,0.2C298.4,298.5,298.5,298.6,298.6,298.7z"/>
	<path id="XMLID_415_" fill="#A2A16B" d="M267.9,361.6c0,10.2,0,20.5,0,30.7c-0.5,0.5-1.1,0.6-1.7,0.6c-4.7,0-9.3,0.2-14-0.1
		c-0.3-0.1-0.6-0.2-0.8-0.4c-0.7-1-0.6-2.1-0.6-3.2c0-3.3,0-6.5,0-9.8c0-1.5-0.6-2.2-2.2-2.2c-3.1,0-6.2,0-9.3,0
		c-1.7,0-2.4,0.7-2.4,2.4c0,3.1,0,6.2,0,9.3c0,1,0.1,2.1-0.4,3.1c-0.1,0.1-0.2,0.2-0.3,0.3c-0.1,0-0.3,0-0.4,0
		c0-6.2,0-12.4-0.1-18.7c0-3.1,0-6.2,0-9.3c0-2.9-0.3-2.8,2.7-2.8c3.7,0,7.3,0,11,0c2.2,0,2.2,0,2.3-2.2c0-3.8,0-7.5,0-11.3
		c0-0.8-0.3-1.6,0.3-2.3c0,0,0.1,0.1,0.1,0.1c0.7,0.9,0.6,1.9,0.6,3c0,2.3,0,4.6,0,6.9c0,5.6-0.5,5,5.2,5.1c2.3,0,4.6,0,6.9,0
		C266,360.9,267.1,360.8,267.9,361.6L267.9,361.6z"/>
	<path id="XMLID_414_" fill="#89684C" d="M235.7,518.6c-4.2,0-8.5,0-12.7,0c-2.2,0-2.2,0-2.2-2.2c0-18.8,0-37.6,0-56.4
		c0-16.3,0-32.6,0-48.9c0-0.8-0.5-1.8,0.5-2.4c0.8,0.9,0.7,1.9,0.7,2.9c0,2.4,0,4.8,0,7.2c0,5.4-0.4,5,5.1,5c1.8,0,3.7,0,5.5,0
		c1,0,1.9,0,2.8,0.4c0.3,0.2,0.5,0.4,0.6,0.7c0.7,3.1,0.4,6.2,0.3,9.3c-0.1,11.4,0,22.8-0.1,34.2c0,1.1,0.2,2.2-0.5,3.3
		c-0.9,0.8-2.1,0.7-3.2,0.7c-2.7,0-5.4,0-8.2,0c-1.7,0-2.5,0.5-2.5,2.3c0,13.4,0,26.9,0,40.3c0,1.8,0.8,2.4,2.5,2.4
		c2.6,0,5.3,0,7.9,0c1,0,2.1-0.1,3,0.5C235.8,518,235.9,518.3,235.7,518.6z"/>
	<path id="XMLID_413_" fill="#A2A16B" d="M283.3,298.7c0,4.6,0,9.1,0,13.7c0,0.7,0.3,1.6-0.6,2.1c0.3-5.2,0.1-10.4,0.1-15.6
		c0-4.7,0-9.4,0-14.1c0-2.4,0-2.4,2.3-2.4c3.8,0,7.5,0,11.3,0c2.4,0,2.4,0,2.4-2.3c0-8.6,0-17.3,0-25.9c0-0.8-0.4-1.8,0.4-2.5
		c0.8,0.9,0.7,2.1,0.7,3.2c0,3.1,0.1,6.2,0,9.4c0,1.9,0.7,2.6,2.6,2.5c3.1-0.1,6.2,0,9.4,0c1.1,0,2.3-0.1,3.2,0.7c0,0,0,0,0,0
		c0,9.2,0,18.5,0,27.7c0,0.5,0,1,0,1.4c0,2,0,2-2,2.1c-2.6,0-5.3,0-7.9,0c-2.1,0-4.3,0-6.4,0c0,0,0,0,0,0c-0.8-0.9-0.7-2.1-0.7-3.2
		c0-3.2,0-6.4,0-9.6c0-1.6-0.6-2.3-2.3-2.3c-3.1,0-6.2,0-9.3,0c-1.6,0-2.3,0.7-2.3,2.3c0,3.2,0,6.4,0,9.6
		C284,296.6,284.1,297.8,283.3,298.7z"/>
	<path id="XMLID_412_" fill="#A39764" d="M282.8,675.5c0-9.2,0-18.4,0-27.6c0-0.5,0-1,0-1.4c0-2.7,0-2.7-2.6-2.7
		c-4.1,0-8.1,0-12.2,0c0.5-0.8,1.3-0.4,2-0.4c3.5,0,7,0,10.6,0c2.2,0,2.2,0,2.2-2.2c0-11.8,0-23.7,0-35.5c0-3,0-5.9,0-8.9
		c0.2,0,0.3-0.1,0.5-0.1c0.2,0.2,0.4,0.4,0.5,0.7c0.4,1.2,0.3,2.5,0.3,3.8c0,8.7,0.1,17.4,0,26.1c0.1,3.2,0,6.4,0,9.5
		c0.1,6.4-0.7,5.6,5.8,5.7c2.9,0,5.7-0.3,8.6,0.2c0.3,0.1,0.5,0.3,0.7,0.5c-0.6,0.9-0.5,2-0.5,3c0,8.6,0,17.2,0,25.8
		c0,0.6,0,1.1,0,1.7c0.1,1.3-0.5,1.6-1.7,1.6c-2.7,0-5.4,0-8.1,0C286.8,675.5,284.8,675.5,282.8,675.5z"/>
	<path id="XMLID_411_" fill="#A2A16B" d="M392.7,110.5c0-1.8,0.1-3.7,0.1-5.5c0-8.1,0-16.2,0-24.4c0-2.2,0-2.2,2.3-2.2
		c3.7,0,7.5,0,11.2,0c0.9,0,1.7-0.1,2.6-0.2c0.1,0.1,0.2,0.2,0.4,0.3c0.2,0.3,0.3,0.5,0.4,0.8c0.3,9.9,0.1,19.7,0.1,29.6
		c0,0.4-0.1,0.8-0.2,1.2c-0.1,0.3-0.3,0.5-0.6,0.7c-3.5,0.9-7.1,0.3-10.7,0.4c-1.7,0.1-3.5,0.3-5.2-0.4
		C392.9,110.7,392.8,110.6,392.7,110.5z"/>
	<path id="XMLID_410_" fill="#A2A16B" d="M409,125.9c0,4.6,0,9.1,0,13.7c0,2.1,0,2.2-2.1,2.2c-3.7,0-7.4,0-11,0
		c-2.7,0-2.7,0-2.7,2.8c0,3.6,0,7.2,0,10.8c0,0.8,0.3,1.6-0.5,2.2c-0.8-0.9-0.7-2.1-0.7-3.2c0-3.1-0.1-6.2,0-9.3
		c0-1.8-0.7-2.6-2.5-2.6c-3,0.1-6.1,0-9.1,0c-1.1,0-2.2,0.1-3.3-0.5c-0.3-0.2-0.4-0.5-0.2-0.8c0-9.5,0-19,0-28.5
		c0-2.3,0-2.3,2.4-2.3c4.5,0,8.9,0,13.4,0c0,0,0.1,0.1,0.1,0.1c0.7,0.7,0.7,1.6,0.7,2.5c0,4.1,0.1,8.1,0,12.2c0.1,4.1,0,8.3,0,12.4
		c0,2.5,0.2,2.7,2.7,2.8c3,0,6.1,0,9.1,0c1.9,0,2.6-0.8,2.5-2.6c0-3.1-0.1-6.2,0-9.3C407.9,127.7,407.5,126.3,409,125.9z"/>
	<path id="XMLID_409_" fill="#89684C" d="M252.1,580.3c-0.6-0.7-0.3-1.5-0.3-2.3c0-8.3,0-16.6,0-24.8c0-0.5,0-1,0-1.4
		c0-2.1,0-2.1-2.1-2.1c-3.7,0-7.5,0-11.2,0c-0.8,0-1.6,0.2-2.3-0.3c0.1-0.1,0.2-0.2,0.3-0.3c3.3-1,6.6-0.2,9.9-0.5
		c1.5-0.1,3,0.3,4.4-0.5c0.9-0.8,0.6-1.9,0.6-2.9c0-7.8,0-15.6,0-23.5c0-1.1-0.2-2.3,0.6-3.2c0.7-0.6,1.6-0.6,2.5-0.6
		c3.7,0,7.3,0,11,0c0.9,0,1.8,0.1,2.5,0.7c0.6,0.7,0.7,1.6,0.7,2.5c0,8.9,0.1,17.8,0,26.8c0,0.5-0.1,1-0.2,1.4
		c-0.1,0.3-0.3,0.6-0.5,0.8c-1,0.7-2.1,0.6-3.2,0.6c-2.9,0-5.7,0-8.6,0c-3.1,0-3.3,0.2-3.3,3.2c0,7.6,0,15.3,0,22.9
		C252.8,577.9,253.1,579.3,252.1,580.3z"/>
	<path id="XMLID_408_" fill="#A2A16B" d="M424.3,47.6c0.2,0,0.4,0.1,0.6,0.1c0.7,0.8,0.7,1.7,0.7,2.7c0,4.4,0.1,8.7,0,13.1
		c0.1,4.1,0,8.2,0,12.2c0,1,0,1.9-0.6,2.8c-0.7,0.6-1.5,0.6-2.3,0.6c-3.8,0-7.6,0-11.4,0c-0.8,0-1.6,0-2.2-0.6c0,0-0.2-0.2-0.2-0.2
		c0-9.2,0-18.3,0-27.5c0-0.6,0-1.3,0-1.9c0-0.9,0.4-1.3,1.3-1.3c1.2,0,2.4,0,3.6,0C417.3,47.6,420.8,47.6,424.3,47.6z"/>
	<path id="XMLID_407_" fill="#75633B" d="M252.1,580.3c0-9.2,0-18.3,0-27.5c0-0.6,0-1.1,0-1.7c-0.1-1,0.4-1.4,1.4-1.4
		c2.7,0,5.4,0,8.1,0c2.1,0,4.1,0,6.2,0c0.7,0.7,0.8,1.6,0.8,2.4c0,8.7,0.1,17.5,0,26.2c0,0.5-0.1,1-0.2,1.4
		c-0.1,0.3-0.3,0.6-0.5,0.8c-4.4,0-8.8-0.1-13.2-0.1C253.8,580.5,252.9,580.6,252.1,580.3z"/>
	<path id="XMLID_406_" fill="#89684C" d="M252.1,518.6c0,9.4,0,18.8,0,28.2c0,0.8,0.4,1.8-0.5,2.4c-0.9-1.1-0.7-2.4-0.7-3.7
		c0-7.6,0-15.2,0-22.8c0-3.4-0.1-3.4-3.5-3.5c-2.6,0-5.1,0.1-7.7,0c-2-0.1-2.7,0.8-2.6,2.7c0,7.8,0,15.7,0,23.5
		c0,1.3,0.2,2.6-0.7,3.7c0,0-0.2,0.2-0.2,0.2c-0.7-0.7-0.4-1.7-0.4-2.5c0-9.4,0-18.8-0.1-28.2c0-0.2,0-0.4,0-0.5
		c-0.3-0.3-0.5-0.6-0.6-1c-0.2-4.9-0.6-9.7,0.2-14.6c0.2-0.3,0.4-0.4,0.8-0.5c4.3,0.1,8.6,0,12.9,0.1c2.7,0,3.1,0.5,3.2,3.2
		c0.1,4.1,0,8.3,0.1,12.4C252.3,518,252.3,518.3,252.1,518.6z"/>
	<path id="XMLID_405_" fill="#89684C" d="M235.7,408.5c0-0.1,0-0.2,0.1-0.3c0.3-0.2,0.5-0.3,0.8-0.3c3.9,0,7.8,0,11.7,0
		c1.1,0,2.2-0.1,3.3,0.5c0.2,0.2,0.4,0.5,0.5,0.8c0.5,4.6,0.2,9.2,0.2,13.8c0,0.6-0.2,1.1-0.6,1.5c-0.7,0.5-1.5,0.6-2.3,0.6
		c-3.8,0.1-7.6,0.1-11.4,0c-0.8,0-1.6-0.1-2.2-0.7l0,0c-0.1-0.3-0.1,0.1-0.1-0.2C234.7,419,234.5,413.7,235.7,408.5z"/>
	<path id="XMLID_404_" fill="#93955F" d="M315,267.5c-4.6,0-9.3,0-13.9,0c-1.9,0-1.9-0.1-1.9-1.9c0-4.6,0-9.3,0-13.9
		c2.9-0.4,5.9-0.1,8.8-0.2c2.1,0,4.3,0,6.4,0c0.9,0.6,0.6,1.6,0.6,2.4C315,258.5,315,263,315,267.5z"/>
	<path id="XMLID_403_" fill="#A2A16B" d="M376.9,141.3c0,0.2,0,0.4,0,0.5c1.2,5.3,1.2,10.5,0,15.8l0,0c-0.5,0.4-1.1,0.7-1.7,0.7
		c-3.8,0.1-7.6,0.1-11.4,0c-0.6,0-1.2-0.3-1.7-0.7c0-4.8,0-9.7-0.1-14.5c0-1.2,0.4-1.7,1.7-1.7c3.5,0.1,7,0,10.5,0
		C375,141.4,375.9,141.3,376.9,141.3z"/>
	<path id="XMLID_402_" fill="#93955F" d="M362,157.6c5,0,9.9,0,14.9,0c0,4.6,0,9.3,0,13.9c0,1.9-0.1,1.9-1.9,1.9
		c-4.4,0-8.8,0-13.2,0c0-4.4,0-8.8,0.1-13.2C361.9,159.3,362,158.5,362,157.6z"/>
	<path id="XMLID_401_" fill="#A27957" d="M268,596.3c-0.4-2.8-0.1-5.5-0.2-8.3c0-2.5,0-4.9,0-7.4c0,0,0-0.2,0-0.2
		c0.5-0.4,1.1-0.6,1.7-0.7c3.9-0.1,7.9-0.1,11.8,0c0.5,0,0.9,0.2,1.3,0.5c0.4,0.3,0.6,0.8,0.6,1.3c0.1,4.8,0.5,9.6-0.2,14.3
		c-0.1,0.3-0.4,0.5-0.7,0.6C277.7,596.4,272.9,596.8,268,596.3z"/>
	<path id="XMLID_400_" fill="#75633B" d="M235.7,408.5c0,5.3,0,10.7,0,16c-4.1,0-8.3,0-12.4,0c-2,0-2,0-2-2c0-4.6,0-9.2,0-13.8
		C226.1,408.6,230.9,408.5,235.7,408.5z"/>
	<path id="XMLID_399_" fill="#93955F" d="M236.2,408.1c-0.1,0-0.3,0-0.4,0c-0.1-5.3-0.2-10.6,0.1-15.8c0.1,0,0.3,0,0.4,0
		c0.2,0.2,0.4,0.5,0.5,0.8c0.5,4.4,0.2,8.9,0.2,13.3C236.9,407.1,236.8,407.7,236.2,408.1z"/>
	<path id="XMLID_398_" fill="#CD9D73" d="M268,596.3c4.9,0,9.8,0,14.8,0c0.1,0.1,0.2,0.2,0.2,0.3c0,0.1,0,0.2-0.1,0.2
		c0,0-0.1,0-0.1,0c-4.2-0.3-8.3,0-12.5-0.1C269.6,596.6,268.7,597,268,596.3z"/>
	<path id="XMLID_397_" fill="#A27957" d="M580.9,424.4c10.1,0,20.1,0,30.2,0c1.7,0,1.7,0,1.8-1.7c0-4.1,0-8.3,0-12.4
		c0-1.7,0.1-1.8,1.7-1.8c9.6,0,19.1,0,28.7,0c0.2,0,0.3,0.1,0.5,0.1l0,0c0,4.8,0,9.6,0.1,14.4c0,1.2-0.4,1.5-1.5,1.5
		c-4.2-0.1-8.3,0-12.5,0c-1.9,0-2,0-2,2c0,3.6,0,7.2,0,10.8c0,2.2,0,2.2-2.3,2.2c-3.6,0-7.2,0-10.8,0c-1.8,0-1.9,0-1.9,1.9
		c0,4.1,0,8.2,0,12.2c0,2,0,2-2,2c-4.1,0-8.2,0-12.2,0c-1.8,0-1.9,0-1.9,1.9c0,4.1,0,8.2,0,12.2c0,1.8,0,1.8-1.8,1.9
		c-4.1,0-8.2,0-12.2,0c-1.8,0-1.8,0-1.8,1.9c0,8.6,0,17.3,0,25.9c0,0.5,0,1,0,1.4c-0.1,1.7-0.1,1.8-1.7,1.8c-3.4,0-6.9,0-10.3,0
		c-3.2,0-2.9-0.3-2.9,3c0,13.7,0,27.5,0,41.2c0,0.8,0.3,1.8-0.4,2.5c-4.9,0.4-9.9,0.1-14.8,0.2c-1,0-1.4-0.5-1.6-1.4
		c-0.2-1.1-0.2-2.2-0.2-3.3c0-17.4,0-34.9,0-52.3c0-0.8,0-1.6,0-2.4c-0.1-2.6-0.3-2.8-2.9-2.9c-3,0-5.9,0-8.9,0
		c-1.1,0-2.3,0.1-3.2-0.6c-0.4-0.4-0.6-0.8-0.6-1.3c-0.2-4.3-0.3-8.6,0.1-12.8c0-0.3,0.2-0.6,0.4-0.9c0.9-0.9,2.1-0.8,3.2-0.8
		c3.2,0,6.4-0.1,9.6,0c1.9,0,2.6-0.7,2.5-2.6c-0.1-3.1,0-6.2,0-9.3c0-1.1-0.1-2.3,0.6-3.2c0.9-0.8,2.1-0.7,3.2-0.7
		c3.1,0,6.2,0,9.3,0c3,0,3.1-0.1,3.2-3.1c0-4.1-0.1-8.3,0.1-12.4c0.1-4.9-0.4-9.7,0.3-14.6c0.1-0.3,0.3-0.5,0.6-0.7
		c4.6-0.8,9.3-0.5,14-0.2C580.4,424.1,580.7,424.3,580.9,424.4z"/>
	<path id="XMLID_396_" fill="#BE916A" d="M533.9,486.4c4.5,0,8.9,0,13.4,0c2.4,0,2.4,0,2.4,2.3c0,6.2,0,12.5,0,18.7
		c0,12.7,0,25.4,0,38.1c0,0.5,0,1,0,1.4c0,2.3,0,2.3,2.2,2.3c4,0,8,0,12,0c0.6,0,1.1,0,1.7,0.1c-0.8,0.6-1.7,0.3-2.5,0.3
		c-4.4,0.1-8.8-0.1-13.2,0.1c-1,0.7-2.1,0.7-3.2,0.7c-3,0-6.1,0-9.1,0c-2.8,0-2.9,0.2-2.9,3c0,2.5,0,5.1,0,7.6c0,3,0.2,3.1,3.1,3.2
		c2.9,0,5.9,0,8.8,0c1.1,0,2.3-0.1,3.2,0.7c-0.6,0.8-1.5,0.4-2.2,0.4c-3.8,0-7.5,0-11.3,0c-2.5,0-2.3-0.1-2.3,2.4
		c0,17.3,0,34.6,0,51.8c0,7.8,0,15.7,0,23.5c-0.3,0.2-0.6,0.1-0.8-0.2c-0.7-1.4-0.5-2.8-0.5-4.2c0-22.4,0-44.8,0-67.2
		c0-0.8,0-1.6,0-2.4c-0.1-2.6-0.3-2.9-2.9-2.9c-2.5,0-5,0-7.4,0c-1.1,0-2.3,0.1-3.2-0.6c-0.7-0.8-0.8-1.7-0.8-2.7
		c0-4.3-0.1-8.7,0-13c0-0.3,0-0.6,0-0.9c-0.1-4.3-0.1-8.6,0-12.9c0-2.9,0.6-3.4,3.6-3.5c2.9-0.1,5.7-0.1,8.6,0
		c1.9,0,2.7-0.7,2.7-2.7c-0.1-3.8-0.1-7.6,0-11.5c-0.1-5.4-0.1-10.8,0-16.2c-0.1-4.4,0-8.7,0-13.1c0-0.9,0-1.7,0.4-2.5
		C533.6,486.6,533.7,486.5,533.9,486.4z"/>
	<path id="XMLID_395_" fill="#A2A16B" d="M549.7,282.9c0,0.6,0.1,1.1,0.1,1.7c0,20.2,0,40.5,0,60.7c-0.4,0.6-1.1,0.7-1.7,0.7
		c-4.5,0-9.1,0.3-13.6-0.2c-0.3-0.1-0.6-0.3-0.8-0.5c-0.5-0.8-0.5-1.7-0.5-2.5c0-14.6-0.1-29.3,0-43.9c-0.1-4.5-0.1-8.9,0-13.4
		c0-2.5,0.3-2.8,2.8-2.7C540.5,282.8,545.1,282.4,549.7,282.9z"/>
	<path id="XMLID_394_" fill="#ABAB6E" d="M580.9,424.4c-0.2,0-0.4,0-0.5,0c-1-1.2-0.8-2.6-0.8-3.9c0-12.7,0-25.4,0-38.1
		c0-4.8,0-4.8-4.6-4.8c-1.4,0-2.7,0-4.1,0c-4.1,0-4.2,0-4.2,4.1c0,11.2,0,22.4,0,33.5c0,2.1,0,4.2,0,6.2c0,1,0,2.1-0.8,2.9
		c-0.5,0.4-1.1,0.7-1.7,0.7c-4.7,0-9.4,0.4-14-0.2c-0.3-0.1-0.6-0.3-0.8-0.5c-0.6-1-0.5-2.2-0.5-3.3c0-13.8,0-27.6,0-41.4
		c0-1,0-1.9,0.3-2.8c0.1-0.3,0.3-0.5,0.6-0.7c3.3-0.9,6.6-0.4,10-0.4c5.2-0.1,5,0.4,5-4.9c0-7.2,0-14.3,0-21.5
		c0-1.2-0.2-2.6,0.8-3.6c0.8,0.7,0.4,1.7,0.4,2.5c0,8.3,0,16.6,0,24.9c0,0.5,0,1,0,1.4c0,1.8,0,1.9,1.8,1.9c3,0,6.1,0,9.1,0
		c0.6,0,1.3,0,1.9,0c2,0,2.1,0,2.1,2.2c0,14.3,0,28.6,0,42.9C580.9,422.5,580.9,423.5,580.9,424.4z"/>
	<path id="XMLID_393_" fill="#A2A16B" d="M471.4,47.7c0,14.5,0,29.1,0,43.6c0,0.6,0,1.3,0,1.9c0.1,1.1-0.4,1.6-1.6,1.5
		c-4.1,0-8.1,0-12.2,0c-1.3,0-1.6-0.6-1.6-1.8c0-3.9,0-7.8,0-11.7c0-2.3,0-2.3-2.4-2.3c-4.6,0-9.3,0-13.9,0c0-0.1-0.1-0.3-0.1-0.4
		c0.2-0.2,0.4-0.4,0.7-0.5c3.8-0.6,7.7-0.1,11.5-0.3c2.8-0.1,3-0.2,3-3c0-3.8,0-7.5,0-11.3c-0.1-4.3,0-8.7,0-13c0-0.9,0-1.9,0.7-2.7
		c0-0.2,0-0.4,0.1-0.7c0.7,0.7,1.6,0.5,2.5,0.5C462.6,47.6,467,47.4,471.4,47.7z"/>
	<path id="XMLID_392_" fill="#A2A16B" d="M471.9,110.6c0-4.5,0-9,0-13.5c0-0.8-0.3-1.8,0.6-2.4c4.6-0.1,9.2-0.1,13.8,0
		c0,14.6,0,29.2,0,43.8c0,0.6,0,1.1,0,1.7c0.1,1.1-0.4,1.6-1.5,1.6c-3.7,0-7.3,0-11,0c-1.8,0-1.8-0.1-1.9-1.9c0-4.8,0-9.6,0-14.4
		c-0.4-0.5-0.7-1.1-0.7-1.7c-0.1-3.8-0.1-7.6,0-11.4C471.2,111.6,471.5,111.1,471.9,110.6z"/>
	<path id="XMLID_391_" fill="#ABAB6E" d="M486.8,188.8c0.3,0,0.6,0,1,0c0.8-0.8,1.9-0.7,2.9-0.7c2.7,0,5.4,0,8.1,0c2.8,0,3-0.2,3-3
		c0-6.8,0-13.6,0-20.4c0-6.5,0-12.9,0-19.4c0-1.2-0.2-2.4,0.7-3.4c0,0,0.1-0.1,0.1-0.1c0.7,0.8,0.4,1.7,0.4,2.5
		c0,13.4,0,26.8,0,40.3c0,0.5,0,1,0,1.4c0,2.4,0,2.4,2.4,2.4c3.6,0,7.2,0,10.8,0c2.9,0,2.8-0.2,2.8,2.7c0,9.2,0,18.4,0,27.6
		c0,4.8,0,9.6,0,14.4c0,2.4,0,2.4,2.5,2.4c3.4,0,6.9,0,10.3,0c2.1,0,2.1,0,2.1,2.1c0,13.9,0,27.8,0,41.7c0,1,0,2.1,0,3.1
		c-0.3,0.2-0.6,0.1-0.8-0.2c-0.7-1.2-0.5-2.5-0.5-3.8c0-12.7,0-25.4,0-38.1c0-3.7-0.1-3.8-3.7-3.8c-2.2,0-4.5,0-6.7,0
		c-1.7,0-2.5,0.7-2.4,2.4c0,3.2,0,6.4,0,9.6c0,1.1,0.1,2.3-0.6,3.2c-0.5,0.4-1.1,0.6-1.8,0.6c-4.3,0.1-8.6,0.1-12.8,0
		c-0.5,0-0.9-0.2-1.4-0.4c-1.5-1.2-1.2-2.9-1.2-4.4c0-12.1,0-24.2,0-36.3c0-0.8,0-1.6,0-2.4c0-3.2-0.2-3.4-3.3-3.4
		c-2.9,0-5.7,0-8.6,0c-1.1,0-2.2,0.1-3.2-0.6c-0.5-0.7-0.6-1.5-0.6-2.3c-0.1-3.8-0.1-7.7,0-11.5
		C486.1,190.2,486.2,189.4,486.8,188.8z"/>
	<path id="XMLID_390_" fill="#A2A16B" d="M565.5,345.7c0,9.1,0,18.2,0,27.2c0,0.6,0,1.1,0,1.7c-0.1,1.8-0.1,1.8-2,1.8
		c-2.5,0-5.1,0-7.6,0c-2.1,0-4.1,0-6.2,0c-1-1.1-0.8-2.4-0.8-3.6c0-7.7,0-15.3,0-23c0-3.1-0.2-3.3-3.2-3.3c-3,0-5.9,0.1-8.9,0
		c-0.9,0-2.2,0.3-2.5-1.2c5.1,0,10.3,0,15.4,0c4.4,0.3,8.8,0.1,13.2,0.2C563.9,345.4,564.7,345.2,565.5,345.7z"/>
	<path id="XMLID_389_" fill="#97915E" d="M643.8,722.5c-9.6,0-19.1,0-28.7,0c-2.1,0-2.1,0-2.1-2.2c0-3.8,0-7.7,0-11.5
		c0-2.1,0-2.1,2.1-2.1c8.5,0,17.1,0,25.6,0c1,0,1.9,0,2.9,0c0.4,3.4,0.1,6.8,0.2,10.3C643.9,718.8,643.8,720.7,643.8,722.5z"/>
	<path id="XMLID_388_" fill="#97915E" d="M533.4,643.4c0.2,0,0.3,0,0.5,0c4.5,0,9.1,0.1,13.6,0.1c2.3,0,2.3,0,2.3,2.4
		c0,4.5,0,8.9,0,13.4c-0.1,0.1-0.3,0.2-0.4,0.2c-10.1,0-20.2,0.2-30.4-0.1c-0.1-0.3-0.1,0.1-0.1-0.2c-0.9-5.3-1.1-10.5,0.1-15.8
		c0.6-0.6,1.4-0.7,2.2-0.7c3.4-0.1,6.7-0.1,10.1,0C532,642.6,532.7,642.8,533.4,643.4z"/>
	<path id="XMLID_387_" fill="#97915E" d="M596.9,690.4c-9.6,0-19.3,0-28.9,0c-1.9,0-2,0-2-2.1c0-4.3,0-8.6,0-12.9c9,0,18,0,27.1,0.1
		c0.5,0,1,0,1.4,0c2.2,0,2.3,0,2.3,2.2C596.8,681.9,596.8,686.1,596.9,690.4z"/>
	<path id="XMLID_386_" fill="#97915E" d="M519,659.2c10.3,0,20.5,0,30.8,0c0.9,0.5,1.8,0.3,2.8,0.3c4.3,0,8.7,0.1,13,0.1
		c0,4.6,0,9.1,0,13.7c0,2.2,0,2.2-2.1,2.2c-4,0-8,0-12,0c-1.7,0-1.8-0.1-1.8-1.8c0-3.7,0-7.3,0-11c0-3.2,0.3-3-2.9-3
		c-9.3,0-18.5,0-27.8,0c0,0,0,0,0,0c-0.1-0.1-0.2-0.2-0.1-0.3C518.9,659.3,518.9,659.2,519,659.2z"/>
	<path id="XMLID_385_" fill="#A27957" d="M643.8,408.7c0-4.8,0-9.6,0-14.4c0-1.8,0-1.9,1.8-1.9c4.2,0,8.3,0,12.5,0
		c1.2,0,1.7,0.4,1.7,1.6c0,4.3,0,8.6,0,12.9c0,1.3-0.5,1.7-1.7,1.6C653.3,408.6,648.5,408.6,643.8,408.7
		C643.7,408.6,643.8,408.7,643.8,408.7z"/>
	<path id="XMLID_384_" fill="#ABAB6E" d="M533.4,282.4c0.2,0,0.4,0,0.5,0c4.5,0,9.1,0,13.6,0.1c0.7,0,1.6-0.4,2.2,0.4
		c-4.6,0-9.2,0-13.8,0c-2,0-2,0-2,2c0,4.6,0,9.2,0,13.8c-0.7,0.6-1.6,0.7-2.4,0.7c-3.3,0-6.7,0.1-10,0c-2.5-0.1-3.1-0.7-3.2-3.2
		c-0.1-3.9-0.1-7.8,0-11.7c0-0.8,0.1-1.6,0.6-2.3c0.6-0.6,1.4-0.7,2.2-0.7c3.4-0.1,6.8-0.1,10.2,0
		C532,281.7,532.7,281.8,533.4,282.4z"/>
	<path id="XMLID_383_" fill="#A27957" d="M549.7,565.1c-4.6,0-9.3,0-13.9,0c-1.9,0-1.9-0.1-1.9-1.9c0-3.9,0-7.8,0-11.7
		c0-1.6,0.1-1.7,1.8-1.7c4.7,0,9.4,0,14.1,0C549.8,554.9,549.7,560,549.7,565.1z"/>
	<path id="XMLID_382_" fill="#97915E" d="M659.6,722.7c0,4.3,0,8.6,0,12.9c0,1.8-0.1,1.9-1.9,1.9c-4,0-8,0-11.9,0
		c-1.9,0-2-0.1-2-2.1c0-4.3,0-8.6,0-12.9c4.4,0,8.8,0,13.2,0C657.8,722.5,658.7,722.4,659.6,722.7z"/>
	<path id="XMLID_381_" fill="#B2B379" d="M519,659.2c0,0.2,0,0.3,0,0.5c-4.6,0-9.3,0-13.9,0c-1.2,0-1.9-0.3-2.1-1.6
		c-0.1-0.9-0.3-1.7-0.3-2.6c0-3.3,0-6.6,0-9.8c0-1.7-0.1-1.8-1.7-1.8c-0.6,0-1.1,0-1.7,0c-19.8,0-39.6,0-59.5,0c0-0.2,0-0.3,0-0.5
		c0.1-0.1,0.2-0.2,0.3-0.3c1.1-0.6,2.3-0.5,3.5-0.5c23.8,0,47.6,0,71.4,0c1.2,0,2.4-0.1,3.5,0.5c0.1,0.1,0.2,0.2,0.3,0.3
		C519,648.7,519,653.9,519,659.2z"/>
	<path id="XMLID_380_" fill="#A27957" d="M439.8,643.4c-37.1,0-74.1,0-111.2,0c-4.6,0-9.1,0-13.7,0c-0.1-0.3-0.1,0.1-0.1-0.2
		c-1-5.2-1.2-10.5,0.1-15.7c1-0.8,2.3-0.7,3.5-0.7c39.3,0,78.6,0,117.9,0c1.2,0,2.4-0.1,3.5,0.6C440.9,629.7,440.9,641,439.8,643.4
		L439.8,643.4z"/>
	<path id="XMLID_379_" fill="#A39764" d="M235.8,722.6c0-9.7,0-19.3,0-29c0-0.2,0-0.5,0-0.7c0-2.3,0.2-2.5,2.4-2.5
		c4.6,0,9.3,0,13.9,0c-0.6,0.9-0.5,2-0.5,3c0,8.6,0,17.2,0,25.8c0,0.5,0,1,0,1.4c-0.1,1.8-0.1,1.8-2,1.8c-2.6,0-5.1,0-7.7,0
		C239.9,722.6,237.8,722.6,235.8,722.6z"/>
	<path id="XMLID_378_" fill="#A39764" d="M315,627.5c0,5.3,0,10.6,0,15.8c-5.3,0-10.6,0-15.8,0c-0.2,0-0.3,0-0.5,0
		c-0.2-0.3-0.4-0.7-0.4-1.1c0.3-4.6,0.3-9.2-0.1-13.8c0-0.3,0.1-0.6,0.3-0.9c0.2-0.2,0.4-0.4,0.7-0.5c5.2-0.3,10.3-0.6,15.4,0.2
		C314.7,627.3,314.8,627.4,315,627.5z"/>
	<path id="XMLID_377_" fill="#A39764" d="M267.9,690.4c0-4.3,0-8.6,0-12.9c0-2,0-2,2-2c4.3,0,8.6,0,12.9,0c0,4.3,0,8.6,0,12.9
		c0,2,0,2-2,2C276.5,690.4,272.2,690.4,267.9,690.4z"/>
	<path id="XMLID_376_" fill="#97915E" d="M612.5,698.9c0,2.1,0,4.2,0,6.2c0,1.1-0.4,1.6-1.5,1.6c-4.2,0-8.3,0-12.5,0
		c-1.5,0-1.8-0.3-1.8-1.9c0-4.1,0-8.1,0-12.2c0-1.2,0.3-1.7,1.6-1.7c4.2,0,8.5,0,12.7,0c1.2,0,1.5,0.5,1.5,1.6
		C612.5,694.6,612.5,696.8,612.5,698.9z"/>
	<path id="XMLID_375_" fill="#93955F" d="M455.6,47.7c0,5.3,0,10.6,0,15.8c-0.4,0.3-0.8,0.6-1.3,0.6c-4.7,0.1-9.5,0.5-14.2-0.2
		c-0.3-0.1-0.5-0.3-0.7-0.6c-0.8-4.9-0.4-9.7-0.2-14.6c0-0.4,0.3-0.7,0.6-1C445,47.7,450.3,47.7,455.6,47.7z"/>
	<path id="XMLID_374_" fill="#999E63" d="M439.8,47.7c0,5.3,0,10.6,0,15.8c-0.2,0.2-0.3,0.4-0.6,0.4c-4.6,0.6-9.1,0.6-13.7,0
		c-0.2,0-0.4-0.2-0.6-0.4c0-5.3,0-10.5,0-15.8C429.9,47.7,434.8,47.7,439.8,47.7z"/>
	<path id="XMLID_373_" fill="#BEB97A" d="M486.8,188.8c0,5.3,0,10.6,0,15.8c0.8,0.9,0.7,1.9,0.7,2.9c0,8.2,0,16.4,0,24.7
		c0,3.3-0.6,3.8-4,3.9c-2.6,0-5.1,0-7.7,0c-3,0-3.2,0.2-3.2,3.3c0,4.1,0.1,8.1-0.1,12.2c0.1,4.4,0,8.8,0,13.2c0,1,0,1.9-0.6,2.8
		c-1,0.7-2.1,0.7-3.2,0.7c-3,0-5.9,0-8.9,0c-3.5,0-3.6,0.1-3.6,3.7c0,2.3,0,4.6,0,7c-0.1,3.7-0.5,4.2-4.1,4.2c-2.8,0-5.6,0-8.4,0
		c-3,0-3.3,0.3-3.3,3.3c0,12.5,0,24.9,0,37.4c0,6.3,0,6.3-6.4,6.3c-1.7,0-3.4,0-5,0c-3.2,0-3.4,0.2-3.4,3.4c0,7.4,0,14.9,0,22.3
		c0,0.9,0,1.8,0,2.6c-0.1,3.2-0.6,3.8-3.8,3.8c-19,0-37.9,0-56.9,0c-1,0-2.1,0-2.9-0.8c0-4.4,0-8.8,0-13.2c0-2.7,0-2.7,2.6-2.7
		c3.4,0,6.9,0,10.3,0c2,0,2,0,2-2c0-8.5,0-17.1,0-25.6c0-0.6,0-1.1,0-1.7c0.1-1.8,0.1-1.8,1.9-1.9c4.6,0,9.3,0,13.9,0
		c0.6-4.4,0.1-8.9,0.2-13.3c0.1-3,0.2-3.2,3.3-3.3c3.1-0.1,6.2-0.1,9.3,0c1.9,0,2.8-0.6,2.7-2.6c-0.4-8.4,0.9-16.8,0.5-25.3
		c0-0.9-0.2-1.8,0.2-2.6c4.6,0,9.1,0,13.7,0c2.1,0,2.1,0,2.2-2.1c0-9,0-18.1,0-27.1c0-3.1-0.2-2.9,2.8-2.9c3.2,0,6.4,0,9.6,0
		c2.4,0,2.4,0,2.4,2.6c0,3.8,0,7.7,0,11.5c0,2.2,0,2.2,2.1,2.2c3.9,0,7.8,0,11.8,0c2,0,2,0,2-2c0-8.6,0-17.3,0-25.9
		c0-3.2,0-3.2,3.2-3.2c3.7,0,7.4,0,11,0c2.1,0,2.1,0,2.1-2.2c0-8.6,0-17.3,0-25.9c0-0.4,0-0.8,0-1.2c0-2.4,0-2.4,2.4-2.4
		C478.5,188.8,482.6,188.8,486.8,188.8z"/>
	<path id="XMLID_372_" fill="#C3BF83" d="M362,361.6c20,0,40,0,60,0c3,0,2.9,0.2,2.9-2.8c0-8.8,0-17.6,0-26.4c0-0.6,0-1.1,0-1.7
		c0-0.9,0.5-1.3,1.3-1.3c1.6,0,3.2,0,4.8,0c2.4,0,4.8,0,7.2,0c1.1,0,1.6-0.4,1.6-1.6c0-0.6,0-1.1,0-1.7c0-13.3,0-26.5,0-39.8
		c0-0.5,0-1,0-1.4c0-2.5,0-2.5,2.5-2.6c3.6,0,7.2,0,10.8,0c2.6,0,2.6,0,2.6-2.7c0-3.4,0-6.9,0-10.3c0-1.8,0.1-1.9,1.9-1.9
		c4.8,0,9.6,0,14.4,0c0.4-0.3,0.8-0.6,1.3-0.6c4.5-0.1,8.9-0.5,13.4,0.2c0.3,0.2,0.5,0.4,0.7,0.7c0.4,0.9,0.4,1.9,0.4,2.8
		c0,8.2,0,16.5,0,24.7c0,3.5-0.5,4-4,4.1c-2.8,0-5.6,0-8.4,0c-1.7,0-2.5,0.7-2.4,2.4c0,0.9,0,1.8,0,2.6c0,22.2,0,44.3,0,66.5
		c0,0.6,0,1.3,0,1.9c-0.1,3.8-0.5,4.3-4.3,4.3c-22.2,0-44.3,0-66.5,0c-11.9,0-23.8,0-35.8,0c-1.3,0-2.6,0.2-3.8-0.4
		c-0.1-0.1-0.2-0.2-0.4-0.3C362,371.5,362,366.6,362,361.6z"/>
	<path id="XMLID_371_" fill="#CD9D73" d="M282.8,392.8c14.8,0,29.5,0,44.3,0c0.9,0,1.9,0.4,2.7-0.5c0.8-0.7,1.7-0.8,2.7-0.8
		c9.8,0,19.6-0.1,29.5,0c17.3-0.1,34.5,0,51.8-0.1c2.7,0,5.4-0.1,8.2,0c2.8,0.1,3.6,0.9,3.7,3.6c0.1,3.7,0.1,7.4,0,11
		c0,0.9-0.1,1.8-0.6,2.5c-1,0.8-2.3,0.7-3.5,0.7c-45.1,0-90.2,0-135.3,0c-1.2,0-2.4,0.1-3.5-0.6C281.7,406.5,281.7,395,282.8,392.8z
		"/>
	<path id="XMLID_370_" fill="#BEB97A" d="M362,392.3c-10.7,0-21.4,0-32.2,0c0-14.6,0-29.2,0-43.8c0-0.5,0-1,0-1.4
		c0-0.9,0.5-1.3,1.3-1.3c4.4,0,8.8,0,13.2,0c0.9,0,1.3,0.4,1.3,1.3c0,0.6,0,1.1,0,1.7c0,8.2,0,16.5,0,24.7c0,0.6,0,1.1,0,1.7
		c0,1,0.5,1.4,1.5,1.4c2.4,0,4.8,0,7.2,0c2.6,0,5.1,0,7.7,0c0,0,0,0,0,0C363.2,381.8,363.2,387,362,392.3z"/>
	<path id="XMLID_369_" fill="#A2A16B" d="M502.6,141.8c0,6.1,0.1,12.1,0.1,18.2c0,8.8,0,17.6,0,26.4c0,2.3,0,2.4-2.4,2.4
		c-4.2,0-8.3,0-12.5,0c-0.2-0.4-0.6-0.5-1-0.5c-0.4-0.5-0.7-1.1-0.7-1.7c-0.1-3.8-0.1-7.6,0-11.4c0-0.6,0.2-1.2,0.7-1.7
		c0-9.4,0-18.9,0-28.3c0-0.5,0-1,0-1.4c0.1-1.9,0.1-1.9,1.9-1.9C493.3,141.8,497.9,141.8,502.6,141.8z"/>
	<path id="XMLID_368_" fill="#93955F" d="M409,110.6c0-10.6,0-21.1,0-31.7c5-0.5,10-0.1,15.1-0.2c0.9,0,1.3,0.6,1.4,1.4
		c0.2,4.6,0.4,9.3-0.1,13.9c0,0.3-0.3,0.6-0.5,0.8c0,5.3,0,10.6,0,15.8C419.6,111.8,414.3,111.8,409,110.6z"/>
	<path id="XMLID_367_" fill="#A2A16B" d="M346.2,204.6c0-9.2,0-18.4,0-27.6c0-0.6,0-1.1,0-1.7c0-1,0.4-1.5,1.4-1.5c4.3,0,8.6,0,13,0
		c1.2,0,1.5,0.6,1.5,1.6c0,3.4,0,6.9,0,10.3c0,2.4,0,2.5,2.6,2.5c3.4,0,6.7,0,10.1,0c0.8,0,1.6-0.3,2.2,0.5
		c-0.9,0.8-2.1,0.7-3.2,0.7c-2.9,0-5.7,0-8.6,0c-1.7,0-2.4,0.7-2.4,2.4c0,3.2,0,6.4,0,9.5c0,1.1,0.1,2.2-0.7,3.2l0,0
		C356.7,205.9,351.4,205.9,346.2,204.6z"/>
	<path id="XMLID_366_" fill="#B5B577" d="M409,267.5c0,9.2,0,18.4,0,27.6c0,0.5,0,1,0,1.4c0,2.1,0,2.2-2.1,2.2c-3.5,0-7,0-10.5,0
		c-0.5,0-1,0-1.4,0c-1.6,0.1-1.7,0.1-1.7,1.8c0,3.9,0,7.8,0,11.7c0,0.8,0.3,1.6-0.5,2.2c0-9.5,0-19,0-28.5c0-0.5,0-1,0-1.4
		c0-2.1,0-2.2,2.1-2.2c3.6,0,7.2,0,10.8,0c0.5,0,1,0,1.4,0c1.2,0.1,1.5-0.5,1.5-1.6c0-3.7,0-7.4,0-11
		C408.6,269,408.3,268.1,409,267.5z"/>
	<path id="XMLID_365_" fill="#93955F" d="M329.8,251.7c0-4.8,0-9.5,0-14.3c0-2,0-2,2-2c4.6,0,9.2,0,13.8,0c0,4.8,0,9.5,0,14.3
		c0,2,0,2-2,2C339.1,251.7,334.4,251.7,329.8,251.7z"/>
	<path id="XMLID_364_" fill="#93955F" d="M346.2,204.6c5.3,0,10.6,0,15.8,0c0,4.6,0,9.2,0,13.8c0,2,0,2-2,2c-4.8,0-9.5,0-14.3,0
		c0-5.3,0-10.5,0-15.8C345.9,204.7,346,204.6,346.2,204.6z"/>
	<path id="XMLID_363_" fill="#999E63" d="M409,125.9c-0.7,0.6-0.5,1.5-0.5,2.2c0,3.7,0,7.4,0,11c0,2,0,2.1-2,2.1c-4,0-8,0-12,0
		c-1.8,0-1.9-0.1-1.9-1.9c0-4.6,0-9.3,0-13.9c0.3-0.3,0.6-0.5,1-0.5c5-0.2,10-0.6,14.9,0.2c0.1,0.1,0.2,0.2,0.3,0.3
		C409,125.6,409,125.8,409,125.9z"/>
	<path id="XMLID_362_" fill="#93955F" d="M376.9,157.6c0-5.3,0-10.5,0-15.8c4.6,0,9.3,0,13.9,0c1.8,0,1.9,0.1,1.9,1.9
		c0,4.6,0,9.3,0,13.9C387.4,157.6,382.2,157.6,376.9,157.6z"/>
	<path id="XMLID_361_" fill="#B0855D" d="M282.8,392.8c0,5.3,0,10.6,0,15.8c-0.1,0.1-0.2,0.2-0.3,0.3c-4.7,0.7-9.5,0.6-14.3,0.1
		c-0.3-0.1-0.5-0.3-0.6-0.6c-0.8-3.4-0.2-6.8-0.4-10.2c0-0.8,0-1.6,0-2.4c0.1-1.6-0.7-2.3-2.3-2.3c-3.3,0-6.7,0.1-10,0
		c-1,0-2.3,0.4-2.8-1.2c5.3,0,10.6,0,15.8,0c4.2,0,8.4,0,12.6,0C281.3,392.3,282.2,392.1,282.8,392.8z"/>
	<path id="XMLID_360_" fill="#999E63" d="M424.9,94.7c0-4.6,0-9.2,0-13.8c0-2,0-2-2-2c-4.6,0-9.2,0-13.8,0c0-0.2,0-0.3,0-0.5
		c5.3,0,10.5,0,15.8,0c0.4-0.3,0.8-0.6,1.3-0.6c4.1-0.2,8.2-0.2,12.4,0c0.5,0,0.9,0.2,1.2,0.6c0,0.2,0,0.3,0,0.5c0,4.6,0,9.2,0,13.8
		c0,2,0,2-2,2C433.5,94.7,429.2,94.7,424.9,94.7z"/>
	<path id="XMLID_359_" fill="#999E63" d="M362,204.6c0-4.6,0-9.2,0-13.8c0-2,0-2,2-2c4.3,0,8.6,0,12.9,0c0,4.6,0,9.2,0,13.8
		c0,2,0,2-2,2C370.6,204.7,366.3,204.6,362,204.6z"/>
	<path id="XMLID_358_" fill="#999E63" d="M409,110.6c5.3,0,10.6,0,15.8,0c0,4.3,0,8.6,0,12.9c0,2,0,2-2,2c-4.6,0-9.2,0-13.8,0
		c0,0,0,0,0,0c-0.4-0.5-0.7-1.1-0.7-1.7c-0.1-3.8-0.1-7.6,0-11.4C408.4,111.6,408.6,111.1,409,110.6L409,110.6z"/>
	<path id="XMLID_357_" fill="#A1A569" d="M471.9,110.6c0,5,0,9.9,0,14.9c-4.5,0-9.1,0-13.6,0c-2.2,0-2.2,0-2.2-2.1
		c0-3.6,0-7.2,0-10.8c0-2,0-2.1,2.2-2.1C462.8,110.5,467.4,110.6,471.9,110.6z"/>
	<path id="XMLID_356_" fill="#A1A569" d="M486.8,173.4c0,5,0,9.9,0,14.9c-4.2,0-8.4,0-12.7,0c-2.2,0-2.2,0-2.2-2.1
		c0-3.6,0-7.2,0-10.7c0-2,0-2.1,2.2-2.1C478.4,173.4,482.6,173.4,486.8,173.4z"/>
	<path id="XMLID_355_" fill="#93955F" d="M267.9,361.6c-4.6,0-9.3,0-13.9,0c-1.9,0-1.9-0.1-1.9-1.9c0-4.6,0-9.2,0.1-13.9
		c4.7,0,9.4,0,14.1-0.1c1.3,0,1.6,0.5,1.6,1.7C267.9,352.2,267.9,356.9,267.9,361.6z"/>
	<path id="XMLID_354_" fill="#93955F" d="M283.3,298.7c0-4.5,0-9.1,0-13.6c0-2.2,0-2.2,2.1-2.2c3.7,0,7.3,0,11,0
		c2.3,0,2.3,0,2.3,2.2c0,4.5,0,9.1,0,13.6C293.5,298.7,288.4,298.7,283.3,298.7z"/>
	<path id="XMLID_353_" fill="#89684C" d="M252.1,392.3c0.6,0.7,1.5,0.4,2.3,0.4c3.7,0,7.5,0,11.2,0c2.3,0,2.3,0,2.3,2.2
		c0,4.5,0,9.1,0,13.6c-0.3,0.4-0.8,0.6-1.2,0.6c-5,0.1-10,0.4-15-0.1c0-0.2,0-0.3,0-0.5c-0.8-0.9-0.7-2.1-0.7-3.2c0-3.2,0-6.4,0-9.6
		c0-1.6-0.6-2.3-2.3-2.3c-3,0-6.1,0-9.1,0c-1.1,0-2.3,0.1-3.2-0.7c0-0.2,0-0.3,0-0.5c0,0,0,0,0,0c0.3-0.1-0.1-0.1,0.2-0.1
		c5.1-1,10.1-1.2,15.2,0.1C251.8,392.3,251.9,392.3,252.1,392.3z"/>
	<path id="XMLID_352_" fill="#93955F" d="M251.6,392.3c-5.1,0-10.2,0-15.3,0c0-4.6,0-9.2,0-13.9c0-1.9,0-2,2-2c3.7,0,7.5,0,11.2,0
		c2,0,2.1,0,2.1,2.2C251.6,383.2,251.6,387.8,251.6,392.3z"/>
	<path id="XMLID_351_" fill="#75633B" d="M235.8,502.2c0,5.3,0,10.6,0,15.9c-4.1,0-8.1,0-12.2,0c-2.2,0-2.2,0-2.2-2.1
		c0-14.1,0-28.2,0-42.3c0-2.1,0-2.1,2.2-2.1c4.1,0,8.1,0,12.2,0c0.9,0.8,0.7,1.9,0.7,2.9c0,8.3,0,16.5,0,24.8
		C236.4,500.3,236.6,501.4,235.8,502.2z"/>
	<path id="XMLID_350_" fill="#B0855D" d="M235.8,502.2c0-10.2,0-20.5-0.1-30.7c0-13.9,0-27.8,0-41.7c0-1.8,0-3.5,0-5.3
		c5.3,0,10.5,0,15.8,0c0.2,0.2,0.4,0.5,0.5,0.8c0.5,4.1,0.2,8.1,0.2,12.2c0,1.9-1.2,2.6-3,2.6c-3,0.1-6.1,0-9.1,0
		c-3,0-3.2,0.2-3.2,3.3c0,13.3,0,26.7,0,40c0,1,0,1.9-0.1,2.9c0.1,4.4,0,8.7,0,13.1c0,0.9,0,1.7-0.4,2.6c-0.1,0.1-0.2,0.2-0.3,0.3
		C236.1,502.2,235.9,502.2,235.8,502.2z"/>
	<path id="XMLID_349_" fill="#A27957" d="M299.1,627.5c-0.2,0-0.3,0-0.5,0c-0.5,0.4-1.1,0.7-1.7,0.7c-4,0.1-7.9,0.1-11.9,0
		c-0.6,0-1.2-0.2-1.7-0.7c0-10.2,0-20.5,0-30.7c0.1-0.1,0.2-0.3,0.4-0.3c5-0.5,10.1-0.8,15.1,0.2c0.5,0.6,0.6,1.3,0.6,2
		c-0.3,8.6,0.7,17.1,0.6,25.6C299.9,625.4,299.9,626.6,299.1,627.5z"/>
	<path id="XMLID_348_" fill="#C18761" d="M298.6,596.8c-5.1,0-10.2,0-15.4,0c-0.1,0-0.3,0-0.4,0c0-0.1-0.1-0.3-0.1-0.5c0,0,0,0,0,0
		c0.9-0.8,1.9-0.7,2.9-0.7c8.7,0,17.4,0,26.1,0c1.2,0,2.4,0,3.3,1c0.5,0.7,0.6,1.5,0.6,2.3c-0.1,4.5,0.4,9-0.3,13.5
		c-0.1,0.3-0.4,0.5-0.6,0.7c-4.7,0.8-9.5,0.4-14.3,0.3c-1.3,0-1.6-1-1.6-2.2c0-4,0-8,0-11.9C298.9,598.4,299.1,597.6,298.6,596.8z"
		/>
	<path id="XMLID_347_" fill="#97915E" d="M283.3,627.5c5.1,0,10.2,0,15.4,0c0.6,3,0.5,6,0.5,9c0,2.3,0.1,4.6-0.5,6.8
		c-4.4,0-8.9,0-13.3,0c-2,0-2,0-2-2C283.3,636.7,283.3,632.1,283.3,627.5z"/>
	<path id="XMLID_346_" fill="#93955F" d="M409,110.6c0,5,0,9.9,0,14.9c-5.4,0-10.9,0-16.3,0c0-4.9,0-9.9,0.1-14.8
		C398.2,110.6,403.6,110.6,409,110.6z"/>
	<path id="XMLID_345_" fill="#75633B" d="M236.3,549.2c0-9.7,0-19.3-0.1-29c0-1.3,0.5-1.7,1.7-1.6c3.8,0,7.7,0,11.5,0
		c2.1,0,2.1,0,2.1,2.1c0,7.8,0,15.7,0,23.5c0,1.7,0,3.4,0,5C246.5,549.2,241.4,549.2,236.3,549.2z"/>
	<path id="XMLID_344_" fill="#B0855D" d="M267.9,549.3c0-10.2,0-20.5,0-30.7c0.1-0.1,0.2-0.2,0.3-0.3c4.9-0.6,9.8-1,14.7,0.2
		c0.6,0.8,0.6,1.6,0.6,2.5c0,4.1,0.1,8.3,0,12.4c0.1,4.6,0,9.2,0,13.9c0,0.9,0,1.8-0.6,2.5c-0.6,0.6-1.4,0.7-2.2,0.7
		c-3.4,0.1-6.8,0.1-10.2,0C269.5,550.5,268.5,550.3,267.9,549.3z"/>
	<path id="XMLID_343_" fill="#A57A53" d="M267.9,549.3c0.9,0.5,1.8,0.5,2.8,0.5c4,0,8.1,0,12.1,0c0.9,0.9,0.8,2.1,0.8,3.2
		c0,8.1,0,16.3,0,24.4c0,1.1,0.1,2.3-0.8,3.2c-5,0-9.9,0-14.9,0c0-10.2,0-20.4,0-30.7C267.9,549.6,267.9,549.4,267.9,549.3z"/>
	<path id="XMLID_342_" fill="#B0855D" d="M252.1,518.6c0-0.2,0-0.3,0-0.5c-0.4-5.1-0.3-10.3-0.1-15.4c0.4-0.3,0.8-0.5,1.3-0.6
		c4.4-0.2,8.9-0.2,13.4,0c0.5,0,0.9,0.2,1.3,0.5c0.5,0.5,0.6,1.1,0.7,1.8c0.1,4.1,0.1,8.3,0,12.4c0,0.6-0.2,1.3-0.7,1.7c0,0,0,0,0,0
		C262.6,518.6,257.4,518.6,252.1,518.6z"/>
	<path id="XMLID_341_" fill="#93955F" d="M439.8,78.4c-5,0-9.9,0-14.9,0c0-5,0-9.9,0-14.9c5,0,9.9,0,14.9,0c0,0,0,0,0,0
		c0.4,0.5,0.7,1.1,0.7,1.7c0.1,3.8,0.1,7.6,0,11.4C440.4,77.3,440.2,77.9,439.8,78.4z"/>
	<path id="XMLID_340_" fill="#B0855D" d="M252.1,502.7c0,5.1,0,10.3,0,15.4c-0.7-0.6-0.4-1.5-0.5-2.2c0-3.7,0-7.5,0-11.2
		c0-1.8-0.1-1.9-1.9-1.9c-3.7,0-7.5,0-11.2,0c-0.8,0-1.6,0.3-2.2-0.5l0,0c0.5-0.4,1.1-0.7,1.7-0.7c4.4,0,8.9-0.3,13.3,0.2
		C251.7,501.9,252.1,502.1,252.1,502.7z"/>
	<path id="XMLID_339_" fill="#B0855D" d="M251.6,425c0-0.2,0-0.3,0-0.5c0-5.1,0-10.2,0-15.4c0.8-0.6,1.8-0.5,2.7-0.5
		c4.5,0,9,0,13.5,0c0,0,0.1,0.1,0.1,0.1c0.1,0.1,0.3,0.2,0.3,0.4c0.7,5.1,0.9,10.3-0.2,15.4c-0.3,0.4-0.8,0.6-1.3,0.6
		C261.7,425.2,256.7,425.5,251.6,425z"/>
	<path id="XMLID_338_" fill="#75633B" d="M236.3,392.8c4.5,0,9,0,13.4,0c1.8,0,1.9,0.1,1.9,1.9c0,4.6,0,9.3,0,13.9
		c-4.4,0-8.8,0-13.1,0c-0.8,0-1.6,0.3-2.2-0.5C236.2,403,236.2,397.9,236.3,392.8z"/>
	<path id="XMLID_337_" fill="#CD9D73" d="M282.8,580.5c0-10.2,0-20.5,0-30.7c0-5.4,0-10.9,0-16.3c0.9-0.8,2.1-0.7,3.2-0.7
		c24.2,0,48.4,0,72.7,0c3.5,0,4,0.6,4.1,4.1c0.1,3.1,0,6.2,0,9.4c0,1.7,0.7,2.4,2.5,2.4c3,0,5.9-0.1,8.9,0c1,0,2.3-0.2,2.9,1.2
		c-1.2,1.2-2.7,0.8-4.1,0.8c-22.8,0-45.6,0-68.3,0c-5,0-5.1,0.1-5.1,5.1c0,2.2-0.1,4.5,0.1,6.7c0.1,1.7,0.9,2.6,2.7,2.6
		c3.2,0,6.4,0,9.6,0c1.1,0,2.3-0.1,3.2,0.6c0.5,0.7,0.6,1.5,0.6,2.3c0,9,0.1,18.1,0,27.1c0,0.4-0.1,0.8-0.2,1.2
		c-0.1,0.3-0.3,0.6-0.5,0.8c-0.9-0.6-2-0.5-3-0.5c-9.7,0-19.4,0-29.1,0C282.8,591,282.8,585.8,282.8,580.5z"/>
	<path id="XMLID_336_" fill="#A2A16B" d="M566,424.5c0-14.8,0-29.5,0-44.3c0-0.6,0-1.3,0-1.9c0-0.9,0.4-1.3,1.3-1.3
		c3.9,0,7.8,0,11.7,0c0.9,0,1.3,0.4,1.3,1.3c0,0.6,0,1.3,0,1.9c0,14.8,0,29.5,0,44.3C575.6,424.5,570.8,424.5,566,424.5z"/>
	<path id="XMLID_335_" fill="#BE916A" d="M566,439.4c0,4.8,0,9.6,0,14.4c0,1.9-0.1,1.9-1.9,1.9c-4.8,0-9.6,0-14.4,0
		c-0.1-0.1-0.2-0.2-0.3-0.3c-0.9-3.4-0.3-6.9-0.4-10.3c0-1.9-0.5-4,0.7-5.8c0.7-0.5,1.4-0.6,2.2-0.6c4-0.1,7.9-0.1,11.9,0
		C564.6,438.6,565.4,438.8,566,439.4z"/>
	<path id="XMLID_334_" fill="#BE916A" d="M549.7,455.7c0,4.6,0,9.3,0,13.9c0,1.8-0.1,1.9-1.9,1.9c-4.6,0-9.3,0-13.9,0
		c-0.1-0.1-0.2-0.2-0.3-0.3c-0.9-3.9-0.3-7.9-0.4-11.8c-0.1-1.3-0.2-2.7,0.7-3.9c0.7-0.6,1.6-0.6,2.5-0.6c3.6,0,7.3,0,10.9,0
		C548.1,454.9,549,455,549.7,455.7L549.7,455.7z"/>
	<path id="XMLID_333_" fill="#A2A16B" d="M566,439.4c-5.4,0-10.9,0-16.3,0c-0.1-0.1-0.2-0.2-0.3-0.3c-0.8-4.3-0.4-8.7-0.3-13.1
		c0-0.7,0.4-1.2,1.1-1.5c5.3,0,10.6,0,15.8,0C566,429.4,566,434.4,566,439.4z"/>
	<path id="XMLID_332_" fill="#BE916A" d="M533.9,471.5c0,4.9,0,9.9,0,14.8c0,0-0.1,0.1-0.1,0.1c-0.5,0.5-1.1,0.6-1.8,0.7
		c-3.8,0.1-7.5,0.1-11.3,0c-1.3,0-2.4-0.6-2.5-2.1c-0.2-4.2-0.3-8.5,0.1-12.7c0-0.3,0.2-0.6,0.4-0.9c0.6-0.5,1.3-0.6,2-0.7
		c3.7-0.1,7.4-0.1,11.1,0C532.6,470.8,533.3,471,533.9,471.5L533.9,471.5z"/>
	<path id="XMLID_331_" fill="#D6AB88" d="M519,471.5c0,4.3,0,8.6,0,13c0,1.9,0.1,1.9,1.9,1.9c4.3,0,8.6,0,13,0c0,5.3,0,10.5,0,15.8
		c-0.7,1.3-2,1.2-3.2,1.2c-2.9,0.1-5.8,0-8.6,0c-1.6,0-2.3,0.6-2.3,2.3c0,3.3,0,6.6,0,9.8c0,1.7,0.7,2.3,2.3,2.3c2.9,0,5.8,0,8.6,0
		c1.1,0,2.3-0.1,3.2,0.7c0,4.2,0,8.4,0,12.7c0,2.2,0,2.2-2.3,2.2c-3.3,0-6.5,0-9.8,0c-2.8,0-2.8,0-2.8,2.7c0,4.4,0,8.8,0,13.1
		c-0.9,0.9-2.1,0.6-3.2,0.7c-4.2,0.1-8.5-0.2-12.7,0.2c-0.3,0.1-0.6,0.2-0.9,0.2c-3.7,0.3-7.5,0.1-11.3,0.1c-3.3,0-3.4,0.1-3.4,3.3
		c0,2.9,0,5.8,0,8.6c0,1.1,0.1,2.3-0.7,3.2c-1,0.8-2.1,0.7-3.2,0.7c-2.9,0-5.7,0-8.6,0c-1.7,0-2.4,0.7-2.4,2.4c0.1,2.9,0,5.7,0,8.6
		c0,1.1,0.1,2.2-0.7,3.2c-0.9,0.8-2.1,0.7-3.2,0.7c-3,0-6.1,0-9.1,0c-2.6,0-2.8,0.2-2.8,2.9c0,3,0,6.1,0,9.1c0,1.1,0.1,2.3-0.8,3.2
		c-1.1,0.7-2.3,0.6-3.5,0.6c-44.7,0-89.3,0-134,0c-1.3,0-2.6,0.2-3.7-0.8c0-10.2,0-20.5,0-30.7c1.2-1.1,2.7-0.8,4.1-0.8
		c17.6,0,35.2,0,52.7,0c4.3,0,4.3,0,4.3-4.2c0-2.6,0-5.3,0-7.9c0-1,0-2.1,0.7-2.9c-0.6-0.8-1.5-0.5-2.2-0.5c-3.4,0-6.7,0-10.1,0
		c-2.5,0-2.6,0-2.6-2.5c0-3.6,0-7.2,0-10.8c0-2.6,0-2.6-2.7-2.6c-24.2,0-48.4,0-72.7,0c-1.3,0-2.6,0-3.8,0c0-5,0-9.9,0-14.9
		c-0.7-0.8-0.7-1.7-0.7-2.7c0-4.4-0.1-8.8,0-13.2c-0.1-14.8,0-29.6,0-44.4c0-0.9,0.1-1.8,0.6-2.5c1-0.9,2.2-0.8,3.4-0.8
		c3.1,0,6.2-0.1,9.3,0c1.8,0,2.5-0.7,2.5-2.6c0-8.1,0-16.3,0-24.4c0-2.4-0.3-2.7-2.8-2.7c-3,0-6.1,0-9.1,0c-1.1,0-2.3,0.1-3.2-0.7
		c-0.6-0.7-0.6-1.6-0.7-2.5c0-3.6,0-7.3,0-10.9c0-0.9,0.1-1.7,0.7-2.4c0,0,0,0,0,0c47.4,0,94.7,0,142.1,0c0.9-0.8,2.1-0.8,3.2-0.8
		c18.5,0,36.9,0,55.4,0c3.5,0,4,0.6,4.1,4c0,2.8,0,5.6,0,8.4c0,3.2,0.2,3.4,3.4,3.4c11.6,0,23.2,0,34.8,0c2.5,0,5.1-0.3,7.6,0.3
		c0.3,0.1,0.5,0.3,0.7,0.6c1,3.1,0.4,6.3,0.5,9.5c0.1,4.6,0,4.6,4.6,4.6c2.5,0,5.1,0,7.6,0c1,0,2.1,0,2.9,0.7c0,0,0,0,0,0
		c0,5.4,0,10.8,0,16.3c-5.3,0-10.5,0-15.8,0c-0.9,0.8-2.1,0.7-3.2,0.7c-2.9,0-5.9,0-8.8,0c-1.5,0-2.1,0.7-2.1,2.2c0,3.3,0,6.5,0,9.8
		C519.7,469.5,519.8,470.6,519,471.5z"/>
	<path id="XMLID_330_" fill="#A27957" d="M533.4,643.4c-4.8,0-9.6,0-14.4,0c0,0,0,0,0,0c-0.8-0.9-0.7-2.1-0.7-3.2
		c0-23.8,0-47.6,0-71.4c0-1,0-1.9,0.4-2.8c0.1-0.1,0.2-0.2,0.3-0.4c4.2,0,8.3,0,12.5,0c1.9,0,1.9,0.1,2,1.8c0,0.6,0,1.1,0,1.7
		C533.4,593.9,533.4,618.6,533.4,643.4z"/>
	<path id="XMLID_329_" fill="#C18761" d="M519,549.8c0,5.3,0,10.6,0,15.8c-0.5,0.4-1.1,0.7-1.7,0.7c-4.1,0.1-8.3,0.2-12.4,0
		c-1.2,0-2.2-0.6-2.2-2c-0.1-4.5-0.2-9.1,0.1-13.6c0-0.3,0.2-0.6,0.4-0.9C508.3,549.3,513.6,549.4,519,549.8z"/>
	<path id="XMLID_328_" fill="#CD9D73" d="M533.8,518.6c-4.3,0-8.6,0-12.9,0c-1.9,0-1.9-0.1-1.9-1.9c0-4.1,0-8.1,0-12.2
		c0-1.7,0.1-1.7,1.8-1.8c3.4,0,6.9,0,10.3,0c1,0,1.9,0.1,2.8-0.5C533.8,507.7,533.8,513.1,533.8,518.6z"/>
	<path id="XMLID_327_" fill="#CD9D73" d="M519,549.8c-5.3,0-10.6,0-15.8,0c-0.2,0.2-0.3,0.2-0.5,0c0.6-0.7,1.5-0.5,2.2-0.5
		c4.7,0,9.4,0,14.1,0C518.9,549.4,519,549.6,519,549.8z"/>
	<path id="XMLID_326_" fill="#B8BE7A" d="M533.8,424.5c-14.7,0-29.4,0-44.1,0c-0.4,0-0.8,0-1.2,0c-1.7-0.1-1.7-0.1-1.7-1.8
		c0-3.6,0-7.2,0-10.8c0-0.6,0-1.1,0-1.7c0.1-1.1-0.4-1.6-1.5-1.6c-0.6,0-1.3,0-1.9,0c-19.5,0-39,0-58.5,0c0-4.3,0-8.6,0-12.9
		c0-3.4,0-3.4-3.5-3.4c-19.8,0-39.6,0-59.4,0c0-5.3,0-10.6,0-15.8c35.7,0,71.3,0,107,0c3.2,0,3,0.2,3-3c0-23.8,0-47.6,0-71.5
		c0-3.5-0.3-3.3,3.2-3.3c3.2,0,6.4,0,9.6,0c2.1,0,2.1,0,2.1-2.2c0-9.7,0-19.3,0-29c0.9-0.9,2.1-0.7,3.1-0.7c3.1,0,6.2-0.1,9.3,0
		c1.9,0.1,2.7-0.6,2.7-2.6c-0.1-3.3-0.1-6.5,0-9.8c0-1-0.4-2.3,1.2-2.7c5.3,0,10.6,0,15.8,0c0.9,0.9,0.8,2.1,0.8,3.2
		c0,8.1,0,16.3,0,24.4c0,1.1,0.1,2.3-0.8,3.2c0,4.8,0,9.5,0,14.3c0,2,0,2,2,2c4.3,0,8.6,0,12.9,0c0,15.5,0,31,0,46.6
		c0.5,0.8,0.8,1.7,0.8,2.7c0,9.5,0.1,19,0,28.5c0.1,15.1,0,30.2,0,45.3C534.6,422.7,534.6,423.7,533.8,424.5z"/>
	<path id="XMLID_325_" fill="#ABAB6E" d="M533.8,376.5c0-10.4,0-20.8,0-31.2c0.2,0,0.3,0,0.5,0c0.6,0.7,1.5,0.5,2.2,0.5
		c3.5,0,7,0,10.5,0c2.6,0,2.6,0,2.6,2.7c0,9.3,0,18.7,0,28c0,0,0,0,0,0C544.4,377.7,539.1,377.7,533.8,376.5z"/>
	<path id="XMLID_324_" fill="#CDCA96" d="M533.8,376.5c5.3,0,10.6,0,15.8,0c0,16,0,32,0,48c-5.3,1.2-10.6,1.2-15.8,0c0,0,0,0,0,0
		C533.8,408.5,533.8,392.5,533.8,376.5z"/>
	<path id="XMLID_323_" fill="#ABAB6E" d="M533.8,424.5c5.3,0,10.6,0,15.8,0c0.2,0,0.3,0,0.5,0c-0.5,0.9-0.5,1.8-0.5,2.8
		c0,4,0,8.1,0,12.1c-4.6,0-9.2,0-13.8,0c-2,0-2,0-2-2C533.8,433.1,533.8,428.8,533.8,424.5z"/>
	<path id="XMLID_322_" fill="#999E63" d="M439.8,78.4c0-5,0-9.9,0-14.9c5.3,0,10.6,0,15.8,0c0,4.3,0,8.6,0,12.9c0,2-0.1,2-2,2
		C449,78.4,444.4,78.4,439.8,78.4z"/>
	<path id="XMLID_321_" fill="#B5BB74" d="M503.1,251.7c-0.7,0.6-0.5,1.5-0.5,2.2c0,3.8,0,7.5,0,11.3c0,2.3,0,2.3-2.4,2.3
		c-4.5,0-8.9,0-13.4,0c-0.8-0.9-0.7-2.1-0.7-3.2c0-3.2,0-6.4,0-9.5c0-1.7-0.7-2.4-2.4-2.4c-2.9,0.1-5.7,0-8.6,0
		c-1.1,0-2.2,0.1-3.2-0.7c0-4.5,0-9.1,0-13.6c0-2.7,0-2.7,2.8-2.7c3.3,0,6.5,0,9.8,0c2.2,0,2.3,0,2.3-2.3c0-9.5,0-19,0-28.5
		c4.4,0,8.8,0,13.2,0c2.7,0,2.7,0,2.7,2.6c0,12.1,0,24.1,0,36.2c0,1.9,0,3.8,0,5.7C502.6,250,502.6,250.9,503.1,251.7z"/>
	<path id="XMLID_320_" fill="#A2A16B" d="M518.5,212.1c0,6.7,0,13.4,0,20.1c0,0.5,0,1,0,1.4c0.1,1.2-0.4,1.7-1.7,1.7
		c-3.4,0-6.7,0-10.1,0c-0.7,0-1.4,0-2.2,0c-1,0-1.5-0.3-1.5-1.4c0-0.5,0-1,0-1.4c0-13.7,0-27.3,0-41c0-0.3,0-0.6,0-1
		c0.1-1.7,0.1-1.8,1.8-1.8c3.9,0,7.8,0,11.7,0c1.8,0,1.8,0.1,1.8,2C518.5,197.9,518.5,205,518.5,212.1z"/>
	<path id="XMLID_319_" fill="#A2A16B" d="M519,282.4c0-10.2,0-20.5,0-30.7c0-4.5,0-9.1,0-13.6c0-2.2,0-2.2,2.1-2.2
		c3.4,0,6.9,0,10.3,0c2,0,2,0,2,2c0,7.2,0,14.4,0,21.5c0,7.7,0,15.3,0,23C528.6,282.4,523.8,282.4,519,282.4z"/>
	<path id="XMLID_318_" fill="#BE916A" d="M502.6,549.8c0.2,0,0.3,0,0.5,0c0,4.6,0,9.2,0,13.8c0,2,0.1,2,2,2c4.6,0,9.2,0,13.8,0
		c0,24.9,0,49.8,0,74.7c0,1,0,2.1,0,3.1c-26.4,0-52.8,0-79.2,0c0-5.3,0-10.6,0-15.8c0.1-0.1,0.2-0.2,0.3-0.3
		c3.4-0.9,6.8-0.3,10.2-0.4c4.6-0.1,4.6,0,4.6-4.5c0-2,0-4,0-6c0-2.7-0.2-2.9-2.8-2.9c-2.9,0-5.9,0-8.8,0c-1,0-2.1,0.1-3.1-0.4
		c-0.3-0.1-0.4-0.4-0.4-0.7c0.8-1,2-0.8,3.1-0.8c3.1,0,6.2,0,9.3,0c2.5,0,2.7-0.3,2.7-2.8c0-3.1-0.1-6.2,0.1-9.3
		c0-0.9-0.3-2.2,1.2-2.4c0.8,0.8,0.7,1.9,0.7,2.9c0,2.9,0,5.9,0,8.8c0,3.2,0.1,3.3,3.4,3.3c3.9,0,7.8-0.1,11.7,0c3.7-0.1,7.3,0,11,0
		c3,0,3.1-0.1,3.2-3.1c0-2.9,0-5.9,0-8.8c0-1.1-0.1-2.2,0.6-3.2c0.9-0.7,1.9-0.6,3-0.6c3.5,0,7,0,10.5,0c1.2,0,2.3-0.2,2.3-1.7
		c-0.1-4.7,0.4-9.4-0.3-14c-0.5-4.9-0.2-9.9-0.2-14.8c-0.1-4.4,0-8.8,0-13.1C501.9,551.5,501.9,550.5,502.6,549.8z"/>
	<path id="XMLID_317_" fill="#C18761" d="M439.8,627.5c-41.6,0-83.2,0-124.8,0c0,0,0,0,0,0c-0.3-0.4-0.6-0.8-0.6-1.3
		c-0.2-4.1-0.2-8.2,0-12.3c0-0.5,0.3-0.9,0.6-1.3l0,0c1.4-1.1,3.1-0.8,4.6-0.8c38.5,0,77,0,115.6,0c0.8,0,1.6,0,2.4,0
		c0.8,0.1,1.6,0.1,2.2,0.7l0,0c0.5,0.5,0.7,1.1,0.7,1.7c0.1,3.8,0.1,7.6,0,11.4C440.4,626.4,440.2,627,439.8,627.5L439.8,627.5z"/>
	<path id="XMLID_316_" fill="#A77952" d="M314.9,612.7c0,5,0,9.9,0,14.9c-5.3,0-10.6,0-15.8,0c0.3-8.9-0.8-17.8-0.5-26.6
		c0.1-1.3,0-2.7,0-4.1c0.7,0.6,0.5,1.5,0.5,2.2c0,3.7,0,7.3,0,11c0,2.6,0,2.6,2.7,2.6C306.2,612.6,310.6,612.6,314.9,612.7z"/>
	<path id="XMLID_315_" fill="#B8BE7A" d="M471.9,251.7c4.3,0,8.6,0,12.9,0c2,0,2,0.1,2,2c0,4.6,0,9.2,0,13.8c-5,0-9.9,0-14.9,0
		C471.9,262.2,471.9,257,471.9,251.7z"/>
	<path id="XMLID_314_" fill="#CD9D73" d="M282.8,408.6c0.1,5.3-0.2,10.7,0.1,16c-0.2,0.2-0.5,0.3-0.8,0.4c-4.6,0.2-9.1,0.4-13.7-0.1
		c-0.3-0.1-0.5-0.3-0.7-0.5c0-5.3,0.1-10.5,0.1-15.8C272.9,408.6,277.8,408.6,282.8,408.6z"/>
	<path id="XMLID_313_" fill="#BE916A" d="M251.6,425c0.9-0.6,1.8-0.5,2.8-0.5c4.5,0,9,0,13.4-0.1c0,0,0.1,0.1,0.1,0.1
		c0.7,0.8,0.7,1.8,0.7,2.7c0,9.5,0.1,19,0,28.4c0.1,14.8,0,29.6,0,44.4c0,0.8,0,1.6-0.4,2.3c-0.1,0.1-0.2,0.2-0.3,0.4
		c-5.3,0-10.6,0-15.8,0c-0.2-0.2-0.3-0.3-0.5-0.5c-0.8-0.9-0.7-2.1-0.8-3.2c0-3.2,0-6.4,0-9.5c0-1.7-0.7-2.4-2.4-2.4c-3,0-6,0-9.1,0
		c-1.1,0-2.2,0.1-3.2-0.7c0-14.7,0-29.4,0-44c0-0.4,0-0.8,0-1.2c0.1-1.7,0.1-1.8,1.8-1.8c3.7,0,7.5,0,11.2,0c2.3,0,2.3,0,2.3-2.4
		C251.6,432.9,251.6,429,251.6,425z"/>
	<path id="XMLID_312_" fill="#B0855D" d="M236.2,486.4c4.4,0,8.9,0,13.3,0c2,0,2,0.1,2,2c0,4.6,0,9.2,0,13.8c-5.1,0-10.2,0-15.4,0
		C236.2,497,236.2,491.7,236.2,486.4z"/>
	<path id="XMLID_311_" fill="#CD9D73" d="M439.8,612.6c-41.6,0-83.2,0-124.8,0c0-5.3,0-10.5,0-15.8c0-0.2,0-0.3,0-0.5
		c47,0,94.1,0,141.1,0c0,0,0.1,0.1,0.1,0.1s0,0.2,0,0.2c0,0-0.1,0.1-0.1,0.1c-0.7,0.6-0.5,1.5-0.5,2.2c0,3.7,0,7.5,0,11.2
		c0,1.8-0.1,1.9-1.9,1.9c-3.9,0-7.8,0-11.7,0C441.2,612.2,440.4,611.9,439.8,612.6z"/>
	<path id="XMLID_310_" fill="#BE916A" d="M282.8,502.7c0,5.3,0,10.6,0,15.8c-5,0-9.9,0-14.9,0c0-5.3,0-10.6,0-15.8c0,0,0,0,0,0
		c0.5-0.4,1.1-0.7,1.7-0.7c3.8-0.1,7.6-0.1,11.4,0C281.7,502,282.3,502.3,282.8,502.7z"/>
	<path id="XMLID_309_" fill="#C18761" d="M376.9,549.8c0,4.6,0,9.1,0,13.7c0,2.1,0,2.1-2.2,2.1c-9,0-18.1,0-27.1,0
		c-10.9,0-21.8,0-32.6,0c-4.6,0-9.3,0-13.9,0c-1.2,0-1.9-0.3-2.1-1.6c-0.2-1-0.3-1.9-0.3-2.8c0-2.6,0-5.3,0-7.9
		c0-0.8,0.1-1.6,0.3-2.4c0.3-0.8,0.7-1.2,1.6-1.1c0.3,0,0.6,0,1,0C326.6,549.8,351.7,549.8,376.9,549.8z"/>
	<path id="XMLID_308_" fill="#CD9D73" d="M519,471.5c0-4.6,0-9.2,0-13.8c0-2,0-2,2-2c4.3,0,8.6,0,12.9,0c0,5.3,0,10.6,0,15.8
		C528.9,471.5,523.9,471.5,519,471.5z"/>
	<path id="XMLID_307_" fill="#CD9D73" d="M315,439.8c4.2,0,8.5,0,12.7,0c2.1,0,2.1,0,2.1,2.2c0,4.6,0,9.1,0,13.7c0,20,0,40,0,60
		c0,3.1,0.2,2.9-2.8,2.9c-8.4,0-16.8,0-25.2,0c-0.6,0-1.1,0-1.7,0c-0.7,0-1-0.4-1-1.1c0-0.5,0-1,0-1.4c0-9,0-18.1,0-27.1
		c0-0.4,0-0.8,0-1.2c0-0.9,0.4-1.3,1.3-1.3c1,0,2.1,0,3.1,0c3.1,0,6.2,0,9.4,0c2,0,2,0,2.1-2c0-2.6,0-5.3,0-7.9c0-7.1,0-14.2,0-21.3
		c-0.3-0.3-0.5-0.6-0.6-1c-0.3-4.3-0.3-8.7,0-13C314.4,440.6,314.6,440.2,315,439.8z"/>
	<path id="XMLID_306_" fill="#FFFFFF" d="M409.1,440c0-4.6,0-9.3,0-13.9c0-1.3,0.4-1.7,1.6-1.6c9.1,0,18.2,0,27.4,0
		c1.2,0,1.8,0.3,1.7,1.6c-0.1,3.9-0.1,7.8,0,11.8c0,1.3-0.6,1.6-1.7,1.6c-3.6,0-7.2,0-10.8,0c-2.4,0-2.4,0-2.4,2.3c0,4,0,8,0,12
		c0,1.8,0,1.8-1.7,1.9c-4.2,0-8.3,0-12.5,0c-1.3,0-1.6-0.5-1.6-1.7C409.2,449.3,409.1,444.7,409.1,440z"/>
	<path id="XMLID_305_" fill="#FFFFFF" d="M315,439.8c0,5.1,0,10.2-0.1,15.3c-0.5,0.4-1.2,0.5-1.8,0.5c-4.1,0-8.1,0-12.2,0
		c-1.7,0-1.7-0.1-1.7-1.8c0-9.2,0-18.4,0-27.5c0-1.8,0-1.8,1.9-1.8c9.6,0,19.2,0,28.7,0c1.3,5,1.3,9.9,0,14.9c-4.2,0-8.4,0-12.6,0
		C316.5,439.4,315.6,439,315,439.8z"/>
	<path id="XMLID_304_" fill="#CD9D73" d="M282.8,502.7c-5,0-9.9,0-14.9,0c0-15.1,0-30.2,0-45.2c0-0.6,0-1.3,0.1-1.9
		c0.6-0.5,1.3-0.6,2-0.6c4,0,8.1-0.2,12.1,0.1c0.3,0.1,0.6,0.2,0.8,0.4c0,1-0.1,2.1-0.1,3.1C282.8,473.3,282.8,488,282.8,502.7z"/>
	<path id="XMLID_303_" d="M282.9,424.6c4.8,0,9.6,0,14.4-0.1c1.2,0,1.5,0.5,1.5,1.6c0,2.9,0,5.7,0,8.6c0,6.3,0,12.6,0,18.9
		c0,2,0,2-1.9,2c-4.6,0-9.3,0-13.9-0.1c0,0-0.1,0.1-0.1,0.1c-0.9-0.9-0.8-2-0.8-3.1c0-8.3,0-16.6,0-24.9
		C282,426.6,282,425.4,282.9,424.6L282.9,424.6z"/>
	<path id="XMLID_302_" fill="#FFFFFF" d="M392.8,455.2c-0.4,0.4-1,0.4-1.6,0.4c-4.1,0-8.3,0-12.4,0c-1.8,0-1.9,0-1.9-1.9
		c0-9.1,0-18.2,0-27.3c0-1.9,0-1.9,1.8-1.9c4.7,0,9.4,0,14.1,0.1c0.7,0.9,0.7,1.9,0.7,3c0,8.3,0,16.5,0,24.8
		C393.5,453.3,393.6,454.4,392.8,455.2z"/>
	<path id="XMLID_301_" d="M392.8,455.2c0-10.2,0-20.4,0.1-30.7c4.6,0,9.3,0,13.9,0c2,0,2,0,2,2.2c0,7.6,0,15.2,0,22.8
		c0,1.6,0,3.2,0,4.8c0,0.8-0.2,1.4-1.2,1.4c-4.7,0-9.4,0-14.1-0.1C393.2,455.5,393,455.3,392.8,455.2z"/>
	<path id="XMLID_300_" fill="#CD9D73" d="M502.6,549.8c0,5.3,0,10.6,0,15.8c-0.3,0.3-0.6,0.5-1,0.6c-4.8,0.2-9.7,0.6-14.5-0.2
		c-0.1-0.1-0.2-0.2-0.3-0.3c0-4.6,0-9.2,0-13.8c0-2,0.1-2,2-2C493.4,549.7,498,549.8,502.6,549.8z"/>
	<path id="XMLID_299_" fill="#CD9D73" d="M456.1,596.3c0-4.6,0-9.3,0-13.9c0-1.8,0.1-1.9,1.9-1.9c4.6,0,9.3,0,13.9,0
		c0.1,0.1,0.2,0.2,0.3,0.3c0.9,3.9,0.3,7.9,0.4,11.8c0.1,1.3,0.2,2.7-0.7,3.9c-0.8,0.6-1.6,0.5-2.5,0.5c-3.6,0-7.1,0-10.7,0
		C457.8,597,456.9,597,456.1,596.3L456.1,596.3z"/>
	<path id="XMLID_298_" fill="#B0855D" d="M329.8,439.4c0-5,0-9.9,0-14.9c4.6,0,9.3,0,13.9,0c2,0,2,0,2,2c0,3.5,0,7,0,10.5
		c0,2.3,0,2.3-2.2,2.3C338.9,439.4,334.4,439.4,329.8,439.4z"/>
	<path id="XMLID_297_" fill="#CD9D73" d="M471.9,580.5c0-4.3,0-8.6,0-13c0-1.8,0.1-1.9,1.9-1.9c4.3,0,8.6,0,13,0c0,0,0,0,0,0
		c0.3,0.3,0.5,0.6,0.6,1c0.3,4.3,0.4,8.7,0,13c0,0.3-0.2,0.6-0.4,0.8c-0.6,0.6-1.4,0.7-2.2,0.7c-3.5,0.1-7,0.1-10.5,0
		C473.3,581.2,472.6,581.1,471.9,580.5L471.9,580.5z"/>
	<path id="XMLID_296_" fill="#C18761" d="M471.9,612.6c-4.6,0-9.2,0-13.8,0c-2,0-2,0-2-2c0-4.6,0-9.2,0-13.8l0,0
		c5.3-0.4,10.6-0.3,15.9-0.1c0.5,0.6,0.6,1.3,0.7,2c0.1,3.9,0.1,7.8,0,11.7C472.6,611.2,472.5,612,471.9,612.6z"/>
	<path id="XMLID_295_" fill="#CD9D73" d="M471.9,612.6c0-5.3,0-10.6,0-15.8c0.4-0.3,0.8-0.6,1.3-0.6c4.1-0.1,8.2-0.1,12.4,0
		c0.5,0,0.9,0.2,1.3,0.6c0,4.6,0,9.2,0,13.8c0,2,0,2-2,2C480.5,612.7,476.2,612.6,471.9,612.6z"/>
	<path id="XMLID_294_" fill="#A27957" d="M439.8,627.5c0-5,0-9.9,0-14.9c4.5,0,9.1,0,13.6,0c2.2,0,2.2,0,2.2,2.1c0,3.5,0,7,0,10.5
		c0,2.3,0,2.3-2.2,2.3C448.8,627.5,444.3,627.5,439.8,627.5z"/>
	<path id="XMLID_293_" fill="#C18761" d="M486.8,580.5c0-5,0-9.9,0-14.9c5.3,0,10.6,0,15.8,0c0,5,0,9.9,0,14.9
		c-0.1,0.1-0.2,0.2-0.3,0.3c-5.1,0.7-10.1,0.7-15.2,0C487,580.7,486.9,580.6,486.8,580.5z"/>
	<path id="XMLID_292_" fill="#C7936B" d="M486.8,596.8c-5,0-9.9,0-14.9,0c-5.3,0-10.6,0-15.8,0c0-0.2,0-0.3,0-0.5
		c5.3,0,10.6,0,15.8,0c0.8-0.7,1.7-0.7,2.7-0.7c4,0,8.1-0.1,12.1,0c4.1-0.1,8.1,0,12.2,0c2.8,0,2.9-0.2,3-3c0-3,0-5.9,0-8.9
		c0-1.1-0.1-2.3,0.7-3.2c0,0,0,0,0,0c0.6,0.5,0.5,1.1,0.5,1.8c0,4.2,0,8.3,0,12.5c0,2.1,0,2.1-2.2,2.1
		C496.2,596.8,491.5,596.8,486.8,596.8z"/>
	<path id="XMLID_291_" fill="#FFFFFF" d="M282.9,424.5c0,10.4,0,20.8,0,31.1c-5,0-9.9-0.1-14.9-0.1c0-5.1-0.1-10.2-0.1-15.3
		c0-5.3,0-10.5,0.1-15.8C272.9,424.5,277.9,424.5,282.9,424.5z"/>
	<path id="XMLID_290_" fill="#C18761" d="M486.8,596.3c-5,0-9.9,0-14.9,0c0-5.3,0-10.6,0-15.8c5,0,9.9,0,14.9,0c0,0,0,0,0,0
		C488,585.8,488,591,486.8,596.3z"/>
	<path id="XMLID_289_" fill="#CD9D73" d="M486.8,596.3c0-5.3,0-10.6,0-15.8c5.3,0,10.6,0,15.8,0c0,4.6,0,9.2,0,13.8c0,2-0.1,2-2,2
		C496,596.3,491.4,596.3,486.8,596.3z"/>
</g>
</svg>
